G04 #@! TF.GenerationSoftware,KiCad,Pcbnew,5.0.2-bee76a0~70~ubuntu18.04.1*
G04 #@! TF.CreationDate,2019-01-18T08:46:58-08:00*
G04 #@! TF.ProjectId,SensorArray,53656e73-6f72-4417-9272-61792e6b6963,rev?*
G04 #@! TF.SameCoordinates,Original*
G04 #@! TF.FileFunction,Copper,L2,Bot*
G04 #@! TF.FilePolarity,Positive*
%FSLAX46Y46*%
G04 Gerber Fmt 4.6, Leading zero omitted, Abs format (unit mm)*
G04 Created by KiCad (PCBNEW 5.0.2-bee76a0~70~ubuntu18.04.1) date Fri 18 Jan 2019 08:46:58 AM PST*
%MOMM*%
%LPD*%
G01*
G04 APERTURE LIST*
G04 #@! TA.AperFunction,ComponentPad*
%ADD10R,1.700000X1.700000*%
G04 #@! TD*
G04 #@! TA.AperFunction,ComponentPad*
%ADD11O,1.700000X1.700000*%
G04 #@! TD*
G04 #@! TA.AperFunction,ViaPad*
%ADD12C,0.800000*%
G04 #@! TD*
G04 #@! TA.AperFunction,Conductor*
%ADD13C,0.250000*%
G04 #@! TD*
G04 APERTURE END LIST*
D10*
G04 #@! TO.P,J1,1*
G04 #@! TO.N,VCC*
X133350000Y-93980000D03*
D11*
G04 #@! TO.P,J1,2*
G04 #@! TO.N,GND*
X133350000Y-91440000D03*
G04 #@! TO.P,J1,3*
G04 #@! TO.N,/SD_IN*
X133350000Y-88900000D03*
G04 #@! TO.P,J1,4*
G04 #@! TO.N,/SC_IN*
X133350000Y-86360000D03*
G04 #@! TO.P,J1,5*
G04 #@! TO.N,/Reset*
X133350000Y-83820000D03*
G04 #@! TO.P,J1,6*
G04 #@! TO.N,/A0*
X133350000Y-81280000D03*
G04 #@! TO.P,J1,7*
G04 #@! TO.N,/A1*
X133350000Y-78740000D03*
G04 #@! TO.P,J1,8*
G04 #@! TO.N,/A2*
X133350000Y-76200000D03*
G04 #@! TD*
D12*
G04 #@! TO.N,GND*
X153759900Y-86121900D03*
X173908700Y-82199500D03*
X176983700Y-85666000D03*
X152900300Y-87845000D03*
G04 #@! TO.N,/OUT_1*
X180152500Y-83105300D03*
X185021600Y-89280700D03*
X186693300Y-92248000D03*
X182754200Y-71489900D03*
G04 #@! TO.N,/OUT_2*
X174130500Y-95624100D03*
X171252700Y-74037600D03*
X182382100Y-86375700D03*
G04 #@! TO.N,/OUT_3*
X161814500Y-79196000D03*
X149082000Y-77396900D03*
X176167600Y-89060900D03*
G04 #@! TO.N,/OUT_4*
X180124400Y-90972800D03*
X164180000Y-83959100D03*
G04 #@! TO.N,/OUT_5*
X157053100Y-78659100D03*
X176903300Y-92660000D03*
X162277900Y-90539000D03*
X159097200Y-91440000D03*
G04 #@! TO.N,VCC*
X152791300Y-96691300D03*
X152366800Y-93391500D03*
G04 #@! TO.N,/SD_IN*
X141362300Y-82644700D03*
G04 #@! TO.N,/Reset*
X150690900Y-84594700D03*
G04 #@! TO.N,/A0*
X144538100Y-83460500D03*
G04 #@! TO.N,/A1*
X140764600Y-91712800D03*
G04 #@! TO.N,/A2*
X137041400Y-92126300D03*
G04 #@! TO.N,Net-(JP1-Pad1)*
X137071100Y-80537000D03*
X148340700Y-72916800D03*
G04 #@! TO.N,/SD5_2.8*
X154721600Y-95191300D03*
X154659600Y-76988400D03*
G04 #@! TO.N,/SC5_2.8*
X157954300Y-94879200D03*
X155375500Y-76227000D03*
G04 #@! TO.N,/SD4*
X187499500Y-89624000D03*
X149051900Y-91396100D03*
G04 #@! TO.N,/SD4_2.8*
X185566000Y-85971900D03*
X159951100Y-74763000D03*
G04 #@! TO.N,/SC4*
X190672500Y-82055000D03*
X150583500Y-91112800D03*
G04 #@! TO.N,/SC4_2.8*
X159933000Y-73749200D03*
X186945500Y-82292800D03*
G04 #@! TO.N,/SD3*
X148387700Y-78915600D03*
X145347200Y-89382500D03*
G04 #@! TO.N,/SD3_2.8*
X149378300Y-80513600D03*
X164062100Y-75234200D03*
G04 #@! TO.N,/SC3*
X150147000Y-75500900D03*
X144383500Y-88756700D03*
G04 #@! TO.N,/SD2_2.8*
X170915300Y-97225700D03*
X167414900Y-73022600D03*
G04 #@! TO.N,/SD2*
X151915300Y-99901000D03*
X145285400Y-92669000D03*
G04 #@! TO.N,/SD0_2.8*
X175496300Y-74938300D03*
X184280500Y-80312500D03*
G04 #@! TO.N,/SD0*
X152875000Y-70460300D03*
X144655100Y-85924100D03*
X191561200Y-72581500D03*
X190991000Y-77298800D03*
G04 #@! TO.N,/SD1*
X187971800Y-94380700D03*
X144110400Y-92592900D03*
G04 #@! TO.N,/SD1_2.8*
X181428800Y-94304400D03*
X171804100Y-77292200D03*
G04 #@! TO.N,/SC2_2.8*
X184612700Y-99262600D03*
X186412600Y-70933400D03*
G04 #@! TO.N,/SC2*
X174829600Y-96366900D03*
X146087700Y-88708200D03*
G04 #@! TO.N,/SC0*
X182051800Y-72555800D03*
X145846700Y-84840500D03*
G04 #@! TO.N,/SC1_2.8*
X186908000Y-90978800D03*
X174167100Y-71672900D03*
G04 #@! TO.N,/SC1*
X190666500Y-90456100D03*
X147038100Y-92094300D03*
G04 #@! TO.N,Net-(R2-Pad2)*
X183135000Y-80812500D03*
X175495900Y-75938700D03*
G04 #@! TO.N,Net-(R3-Pad2)*
X183135000Y-83387000D03*
X182492300Y-73586000D03*
G04 #@! TO.N,Net-(R4-Pad2)*
X180128300Y-81056700D03*
X172146800Y-78322800D03*
G04 #@! TO.N,Net-(R5-Pad2)*
X176834600Y-84041000D03*
X170397900Y-77289600D03*
G04 #@! TO.N,Net-(R6-Pad2)*
X184257500Y-86903600D03*
X167241800Y-77069800D03*
G04 #@! TO.N,Net-(R7-Pad2)*
X165776800Y-77214400D03*
X180170400Y-88155300D03*
G04 #@! TO.N,Net-(R8-Pad2)*
X183042600Y-89080300D03*
X163295000Y-77216500D03*
G04 #@! TO.N,Net-(R9-Pad2)*
X181626300Y-91132300D03*
X159525800Y-77817800D03*
G04 #@! TO.N,Net-(R10-Pad2)*
X183135000Y-91349400D03*
X158215000Y-77232500D03*
G04 #@! TO.N,Net-(R11-Pad2)*
X156707400Y-77498100D03*
X177635500Y-91862500D03*
G04 #@! TO.N,Net-(R15-Pad2)*
X178377100Y-86382500D03*
X168830000Y-77289600D03*
G04 #@! TD*
D13*
G04 #@! TO.N,GND*
X153759900Y-86121900D02*
X152900300Y-86981500D01*
X152900300Y-86981500D02*
X152900300Y-87845000D01*
X152900300Y-87845000D02*
X151160300Y-87845000D01*
X151160300Y-87845000D02*
X148447200Y-90558100D01*
X148447200Y-90558100D02*
X143582200Y-90558100D01*
X143582200Y-90558100D02*
X141113800Y-93026500D01*
X141113800Y-93026500D02*
X136111800Y-93026500D01*
X136111800Y-93026500D02*
X134525300Y-91440000D01*
X173908700Y-82199500D02*
X173908700Y-82591000D01*
X173908700Y-82591000D02*
X176983700Y-85666000D01*
X133350000Y-91440000D02*
X134525300Y-91440000D01*
G04 #@! TO.N,/OUT_1*
X186693300Y-92248000D02*
X188716100Y-90225200D01*
X188716100Y-90225200D02*
X188716100Y-79352700D01*
X188716100Y-79352700D02*
X183279900Y-73916500D01*
X183279900Y-73916500D02*
X183279900Y-72015600D01*
X183279900Y-72015600D02*
X182754200Y-71489900D01*
X180152500Y-83105300D02*
X183532200Y-86485000D01*
X183532200Y-86485000D02*
X183532200Y-87204000D01*
X183532200Y-87204000D02*
X185021600Y-88693400D01*
X185021600Y-88693400D02*
X185021600Y-89280700D01*
G04 #@! TO.N,/OUT_2*
X184787700Y-90010800D02*
X185368600Y-90010800D01*
X185368600Y-90010800D02*
X186315700Y-89063700D01*
X186315700Y-89063700D02*
X186315700Y-84236700D01*
X186315700Y-84236700D02*
X186197300Y-84118300D01*
X186197300Y-84118300D02*
X186197300Y-81183800D01*
X186197300Y-81183800D02*
X179051100Y-74037600D01*
X179051100Y-74037600D02*
X171252700Y-74037600D01*
X182382100Y-86375700D02*
X182382100Y-86690800D01*
X182382100Y-86690800D02*
X184296300Y-88605000D01*
X184296300Y-88605000D02*
X184296300Y-89581100D01*
X184296300Y-89581100D02*
X184726000Y-90010800D01*
X184726000Y-90010800D02*
X184787700Y-90010800D01*
X174130500Y-95624100D02*
X181167800Y-95624100D01*
X181167800Y-95624100D02*
X184787700Y-92004200D01*
X184787700Y-92004200D02*
X184787700Y-90010800D01*
G04 #@! TO.N,/OUT_3*
X161155100Y-77100500D02*
X160489600Y-77100500D01*
X160489600Y-77100500D02*
X158440500Y-75051400D01*
X158440500Y-75051400D02*
X152959200Y-75051400D01*
X152959200Y-75051400D02*
X150613700Y-77396900D01*
X150613700Y-77396900D02*
X149082000Y-77396900D01*
X176167600Y-89060900D02*
X175955600Y-89060900D01*
X175955600Y-89060900D02*
X164532600Y-77637900D01*
X164532600Y-77637900D02*
X164532600Y-76019000D01*
X164532600Y-76019000D02*
X164817300Y-75734300D01*
X164817300Y-75734300D02*
X164817300Y-74960900D01*
X164817300Y-74960900D02*
X164317900Y-74461500D01*
X164317900Y-74461500D02*
X163794100Y-74461500D01*
X163794100Y-74461500D02*
X161155100Y-77100500D01*
X161155100Y-77100500D02*
X161814500Y-77759900D01*
X161814500Y-77759900D02*
X161814500Y-79196000D01*
G04 #@! TO.N,/OUT_4*
X164180000Y-83959100D02*
X171358000Y-91137100D01*
X171358000Y-91137100D02*
X179960100Y-91137100D01*
X179960100Y-91137100D02*
X180124400Y-90972800D01*
G04 #@! TO.N,/OUT_5*
X159097200Y-91440000D02*
X159097200Y-80703200D01*
X159097200Y-80703200D02*
X157053100Y-78659100D01*
X176903300Y-92660000D02*
X164398900Y-92660000D01*
X164398900Y-92660000D02*
X162277900Y-90539000D01*
X159097200Y-91440000D02*
X161376900Y-91440000D01*
X161376900Y-91440000D02*
X162277900Y-90539000D01*
G04 #@! TO.N,VCC*
X152366800Y-93391500D02*
X149915800Y-93391500D01*
X149915800Y-93391500D02*
X147889100Y-91364800D01*
X147889100Y-91364800D02*
X144312700Y-91364800D01*
X144312700Y-91364800D02*
X141697500Y-93980000D01*
X141697500Y-93980000D02*
X133350000Y-93980000D01*
X152366800Y-93391500D02*
X152366800Y-96266800D01*
X152366800Y-96266800D02*
X152791300Y-96691300D01*
G04 #@! TO.N,/SD_IN*
X141362300Y-82644700D02*
X141562000Y-82844400D01*
X141562000Y-82844400D02*
X141562000Y-91941300D01*
X141562000Y-91941300D02*
X141010900Y-92492400D01*
X141010900Y-92492400D02*
X140465400Y-92492400D01*
X140465400Y-92492400D02*
X136873000Y-88900000D01*
X136873000Y-88900000D02*
X133350000Y-88900000D01*
G04 #@! TO.N,/Reset*
X133350000Y-83820000D02*
X134525300Y-83820000D01*
X134525300Y-83820000D02*
X136446900Y-81898400D01*
X136446900Y-81898400D02*
X141661000Y-81898400D01*
X141661000Y-81898400D02*
X143463600Y-83701000D01*
X143463600Y-83701000D02*
X143463600Y-88866600D01*
X143463600Y-88866600D02*
X144704800Y-90107800D01*
X144704800Y-90107800D02*
X145729400Y-90107800D01*
X145729400Y-90107800D02*
X150690900Y-85146300D01*
X150690900Y-85146300D02*
X150690900Y-84594700D01*
G04 #@! TO.N,/A0*
X134525300Y-81280000D02*
X142357600Y-81280000D01*
X142357600Y-81280000D02*
X144538100Y-83460500D01*
X133350000Y-81280000D02*
X134525300Y-81280000D01*
G04 #@! TO.N,/A1*
X133350000Y-79915300D02*
X132982700Y-79915300D01*
X132982700Y-79915300D02*
X132174600Y-80723400D01*
X132174600Y-80723400D02*
X132174600Y-84308800D01*
X132174600Y-84308800D02*
X132871600Y-85005800D01*
X132871600Y-85005800D02*
X134057600Y-85005800D01*
X134057600Y-85005800D02*
X140764600Y-91712800D01*
X133350000Y-78740000D02*
X133350000Y-79915300D01*
G04 #@! TO.N,/A2*
X137041400Y-92126300D02*
X134990500Y-90075400D01*
X134990500Y-90075400D02*
X132832200Y-90075400D01*
X132832200Y-90075400D02*
X131690600Y-88933800D01*
X131690600Y-88933800D02*
X131690600Y-78667400D01*
X131690600Y-78667400D02*
X132982700Y-77375300D01*
X132982700Y-77375300D02*
X133350000Y-77375300D01*
X133350000Y-76200000D02*
X133350000Y-77375300D01*
G04 #@! TO.N,Net-(JP1-Pad1)*
X148340700Y-72916800D02*
X140720500Y-80537000D01*
X140720500Y-80537000D02*
X137071100Y-80537000D01*
G04 #@! TO.N,/SD5_2.8*
X154721600Y-95191300D02*
X154935500Y-94977400D01*
X154935500Y-94977400D02*
X154935500Y-77264300D01*
X154935500Y-77264300D02*
X154659600Y-76988400D01*
G04 #@! TO.N,/SC5_2.8*
X155375500Y-76227000D02*
X155385900Y-76237400D01*
X155385900Y-76237400D02*
X155385900Y-92310800D01*
X155385900Y-92310800D02*
X157954300Y-94879200D01*
G04 #@! TO.N,/SD4*
X149051900Y-91396100D02*
X150062100Y-90385900D01*
X150062100Y-90385900D02*
X151038000Y-90385900D01*
X151038000Y-90385900D02*
X153542400Y-92890300D01*
X153542400Y-92890300D02*
X153542400Y-95779700D01*
X153542400Y-95779700D02*
X155755900Y-97993200D01*
X155755900Y-97993200D02*
X180072500Y-97993200D01*
X180072500Y-97993200D02*
X185688300Y-92377400D01*
X185688300Y-92377400D02*
X185688300Y-91148500D01*
X185688300Y-91148500D02*
X187212800Y-89624000D01*
X187212800Y-89624000D02*
X187499500Y-89624000D01*
G04 #@! TO.N,/SD4_2.8*
X159951100Y-74763000D02*
X161190400Y-73523700D01*
X161190400Y-73523700D02*
X165790400Y-73523700D01*
X165790400Y-73523700D02*
X167029700Y-74763000D01*
X167029700Y-74763000D02*
X173288000Y-74763000D01*
X173288000Y-74763000D02*
X177371800Y-78846800D01*
X177371800Y-78846800D02*
X179664700Y-78846800D01*
X179664700Y-78846800D02*
X185566000Y-84748100D01*
X185566000Y-84748100D02*
X185566000Y-85971900D01*
G04 #@! TO.N,/SC4*
X190672500Y-82055000D02*
X190672500Y-89298000D01*
X190672500Y-89298000D02*
X181526900Y-98443600D01*
X181526900Y-98443600D02*
X155569400Y-98443600D01*
X155569400Y-98443600D02*
X153092100Y-95966300D01*
X153092100Y-95966300D02*
X153092100Y-93078800D01*
X153092100Y-93078800D02*
X151126100Y-91112800D01*
X151126100Y-91112800D02*
X150583500Y-91112800D01*
G04 #@! TO.N,/SC4_2.8*
X186945500Y-82292800D02*
X186945500Y-81248800D01*
X186945500Y-81248800D02*
X179009000Y-73312300D01*
X179009000Y-73312300D02*
X170912800Y-73312300D01*
X170912800Y-73312300D02*
X170476000Y-73749100D01*
X170476000Y-73749100D02*
X166652700Y-73749100D01*
X166652700Y-73749100D02*
X165972200Y-73068600D01*
X165972200Y-73068600D02*
X160613600Y-73068600D01*
X160613600Y-73068600D02*
X159933000Y-73749200D01*
G04 #@! TO.N,/SD3*
X148387700Y-78915600D02*
X148387700Y-85355700D01*
X148387700Y-85355700D02*
X145347200Y-88396200D01*
X145347200Y-88396200D02*
X145347200Y-89382500D01*
G04 #@! TO.N,/SD3_2.8*
X149378300Y-80513600D02*
X154390200Y-75501700D01*
X154390200Y-75501700D02*
X158253900Y-75501700D01*
X158253900Y-75501700D02*
X161089200Y-78337000D01*
X161089200Y-78337000D02*
X161089200Y-79496400D01*
X161089200Y-79496400D02*
X161514100Y-79921300D01*
X161514100Y-79921300D02*
X162174700Y-79921300D01*
X162174700Y-79921300D02*
X162569500Y-79526500D01*
X162569500Y-79526500D02*
X162569500Y-76726800D01*
X162569500Y-76726800D02*
X164062100Y-75234200D01*
G04 #@! TO.N,/SC3*
X144383500Y-88756700D02*
X144383500Y-88623000D01*
X144383500Y-88623000D02*
X147043700Y-85962800D01*
X147043700Y-85962800D02*
X147043700Y-78409400D01*
X147043700Y-78409400D02*
X149952100Y-75501000D01*
X149952100Y-75501000D02*
X150147000Y-75501000D01*
X150147000Y-75501000D02*
X150147000Y-75500900D01*
G04 #@! TO.N,/SD2_2.8*
X170915300Y-97225700D02*
X180203100Y-97225700D01*
X180203100Y-97225700D02*
X185238000Y-92190800D01*
X185238000Y-92190800D02*
X185238000Y-90852600D01*
X185238000Y-90852600D02*
X187712600Y-88378000D01*
X187712600Y-88378000D02*
X187712600Y-81284800D01*
X187712600Y-81284800D02*
X179289800Y-72862000D01*
X179289800Y-72862000D02*
X167575500Y-72862000D01*
X167575500Y-72862000D02*
X167414900Y-73022600D01*
G04 #@! TO.N,/SD2*
X145285400Y-92669000D02*
X145285400Y-93271100D01*
X145285400Y-93271100D02*
X151915300Y-99901000D01*
G04 #@! TO.N,/SD0_2.8*
X175496300Y-74938300D02*
X178906300Y-74938300D01*
X178906300Y-74938300D02*
X184280500Y-80312500D01*
G04 #@! TO.N,/SD0*
X152875000Y-70460300D02*
X145459100Y-77876200D01*
X145459100Y-77876200D02*
X145459100Y-84202400D01*
X145459100Y-84202400D02*
X144655100Y-85006400D01*
X144655100Y-85006400D02*
X144655100Y-85924100D01*
X190991000Y-77298800D02*
X190991000Y-73151700D01*
X190991000Y-73151700D02*
X191561200Y-72581500D01*
G04 #@! TO.N,/SD1*
X144110400Y-92592900D02*
X144794300Y-91909000D01*
X144794300Y-91909000D02*
X145553800Y-91909000D01*
X145553800Y-91909000D02*
X153018100Y-99373300D01*
X153018100Y-99373300D02*
X182979200Y-99373300D01*
X182979200Y-99373300D02*
X187971800Y-94380700D01*
G04 #@! TO.N,/SD1_2.8*
X171804100Y-77292200D02*
X172160900Y-77292200D01*
X172160900Y-77292200D02*
X182025700Y-87157000D01*
X182025700Y-87157000D02*
X182211400Y-87157000D01*
X182211400Y-87157000D02*
X183812600Y-88758200D01*
X183812600Y-88758200D02*
X183812600Y-89739800D01*
X183812600Y-89739800D02*
X184337400Y-90264600D01*
X184337400Y-90264600D02*
X184337400Y-91817600D01*
X184337400Y-91817600D02*
X181850600Y-94304400D01*
X181850600Y-94304400D02*
X181428800Y-94304400D01*
G04 #@! TO.N,/SC2_2.8*
X184612700Y-99262600D02*
X191397800Y-92477500D01*
X191397800Y-92477500D02*
X191397800Y-80760600D01*
X191397800Y-80760600D02*
X186412600Y-75775400D01*
X186412600Y-75775400D02*
X186412600Y-70933400D01*
G04 #@! TO.N,/SC2*
X174829600Y-96366900D02*
X154832200Y-96366900D01*
X154832200Y-96366900D02*
X153995600Y-95530300D01*
X153995600Y-95530300D02*
X153995600Y-86912000D01*
X153995600Y-86912000D02*
X154485200Y-86422400D01*
X154485200Y-86422400D02*
X154485200Y-85821400D01*
X154485200Y-85821400D02*
X152514800Y-83851000D01*
X152514800Y-83851000D02*
X150392900Y-83851000D01*
X150392900Y-83851000D02*
X149841000Y-84402900D01*
X149841000Y-84402900D02*
X149841000Y-84954900D01*
X149841000Y-84954900D02*
X146087700Y-88708200D01*
G04 #@! TO.N,/SC0*
X182051800Y-72555800D02*
X179942600Y-70446600D01*
X179942600Y-70446600D02*
X154155100Y-70446600D01*
X154155100Y-70446600D02*
X145970000Y-78631700D01*
X145970000Y-78631700D02*
X145970000Y-84717200D01*
X145970000Y-84717200D02*
X145846700Y-84840500D01*
G04 #@! TO.N,/SC1_2.8*
X186908000Y-90978800D02*
X187211500Y-90978800D01*
X187211500Y-90978800D02*
X188265800Y-89924500D01*
X188265800Y-89924500D02*
X188265800Y-81129800D01*
X188265800Y-81129800D02*
X178808900Y-71672900D01*
X178808900Y-71672900D02*
X174167100Y-71672900D01*
G04 #@! TO.N,/SC1*
X190666500Y-90456100D02*
X182227100Y-98895500D01*
X182227100Y-98895500D02*
X153839300Y-98895500D01*
X153839300Y-98895500D02*
X147038100Y-92094300D01*
G04 #@! TO.N,Net-(R2-Pad2)*
X175495900Y-75938700D02*
X178261200Y-75938700D01*
X178261200Y-75938700D02*
X183135000Y-80812500D01*
G04 #@! TO.N,Net-(R3-Pad2)*
X182492300Y-73586000D02*
X181432600Y-73586000D01*
X181432600Y-73586000D02*
X178743500Y-70896900D01*
X178743500Y-70896900D02*
X161759500Y-70896900D01*
X161759500Y-70896900D02*
X159167000Y-73489400D01*
X159167000Y-73489400D02*
X159167000Y-75038200D01*
X159167000Y-75038200D02*
X159631800Y-75503000D01*
X159631800Y-75503000D02*
X161460900Y-75503000D01*
X161460900Y-75503000D02*
X162989900Y-73974000D01*
X162989900Y-73974000D02*
X165603800Y-73974000D01*
X165603800Y-73974000D02*
X166843100Y-75213300D01*
X166843100Y-75213300D02*
X172888400Y-75213300D01*
X172888400Y-75213300D02*
X176972200Y-79297100D01*
X176972200Y-79297100D02*
X179420100Y-79297100D01*
X179420100Y-79297100D02*
X183135000Y-83012000D01*
X183135000Y-83012000D02*
X183135000Y-83387000D01*
G04 #@! TO.N,Net-(R4-Pad2)*
X172146800Y-78322800D02*
X180945100Y-87121100D01*
X180945100Y-87121100D02*
X180945100Y-88427400D01*
X180945100Y-88427400D02*
X180486900Y-88885600D01*
X180486900Y-88885600D02*
X177088800Y-88885600D01*
X177088800Y-88885600D02*
X176538800Y-88335600D01*
X176538800Y-88335600D02*
X175867200Y-88335600D01*
X175867200Y-88335600D02*
X165042400Y-77510800D01*
X165042400Y-77510800D02*
X165042400Y-76870800D01*
X165042400Y-76870800D02*
X165799300Y-76113900D01*
X165799300Y-76113900D02*
X172515200Y-76113900D01*
X172515200Y-76113900D02*
X177458000Y-81056700D01*
X177458000Y-81056700D02*
X180128300Y-81056700D01*
G04 #@! TO.N,Net-(R5-Pad2)*
X170397900Y-77289600D02*
X170397900Y-77604300D01*
X170397900Y-77604300D02*
X176834600Y-84041000D01*
G04 #@! TO.N,Net-(R6-Pad2)*
X167241800Y-77069800D02*
X167747400Y-76564200D01*
X167747400Y-76564200D02*
X172328600Y-76564200D01*
X172328600Y-76564200D02*
X177849500Y-82085100D01*
X177849500Y-82085100D02*
X180199700Y-82085100D01*
X180199700Y-82085100D02*
X184257500Y-86142900D01*
X184257500Y-86142900D02*
X184257500Y-86903600D01*
G04 #@! TO.N,Net-(R7-Pad2)*
X180170400Y-88155300D02*
X179900400Y-87885300D01*
X179900400Y-87885300D02*
X176447700Y-87885300D01*
X176447700Y-87885300D02*
X165776800Y-77214400D01*
G04 #@! TO.N,Net-(R8-Pad2)*
X183042600Y-89080300D02*
X182787000Y-89335900D01*
X182787000Y-89335900D02*
X178152400Y-89335900D01*
X178152400Y-89335900D02*
X177702100Y-89786200D01*
X177702100Y-89786200D02*
X175864700Y-89786200D01*
X175864700Y-89786200D02*
X163295000Y-77216500D01*
G04 #@! TO.N,Net-(R9-Pad2)*
X159525800Y-77817800D02*
X159525800Y-78569900D01*
X159525800Y-78569900D02*
X161576600Y-80620700D01*
X161576600Y-80620700D02*
X164340200Y-80620700D01*
X164340200Y-80620700D02*
X173956000Y-90236500D01*
X173956000Y-90236500D02*
X178113600Y-90236500D01*
X178113600Y-90236500D02*
X178563900Y-89786200D01*
X178563900Y-89786200D02*
X182610900Y-89786200D01*
X182610900Y-89786200D02*
X183887100Y-91062400D01*
X183887100Y-91062400D02*
X183887100Y-91631000D01*
X183887100Y-91631000D02*
X183396300Y-92121800D01*
X183396300Y-92121800D02*
X182615800Y-92121800D01*
X182615800Y-92121800D02*
X181626300Y-91132300D01*
G04 #@! TO.N,Net-(R10-Pad2)*
X158215000Y-77232500D02*
X158393100Y-77410600D01*
X158393100Y-77410600D02*
X158393200Y-77410600D01*
X158393200Y-77410600D02*
X158393200Y-78074200D01*
X158393200Y-78074200D02*
X161390000Y-81071000D01*
X161390000Y-81071000D02*
X164153600Y-81071000D01*
X164153600Y-81071000D02*
X173769400Y-90686800D01*
X173769400Y-90686800D02*
X178300400Y-90686800D01*
X178300400Y-90686800D02*
X178750700Y-90236500D01*
X178750700Y-90236500D02*
X182022100Y-90236500D01*
X182022100Y-90236500D02*
X183135000Y-91349400D01*
G04 #@! TO.N,Net-(R11-Pad2)*
X156707400Y-77498100D02*
X156917900Y-77498100D01*
X156917900Y-77498100D02*
X157778400Y-78358600D01*
X157778400Y-78358600D02*
X157778400Y-78586300D01*
X157778400Y-78586300D02*
X171054600Y-91862500D01*
X171054600Y-91862500D02*
X177635500Y-91862500D01*
G04 #@! TO.N,Net-(R15-Pad2)*
X168830000Y-77289600D02*
X168830000Y-78596900D01*
X168830000Y-78596900D02*
X176674200Y-86441100D01*
X176674200Y-86441100D02*
X178318500Y-86441100D01*
X178318500Y-86441100D02*
X178377100Y-86382500D01*
G04 #@! TD*
M02*
