G04 #@! TF.GenerationSoftware,KiCad,Pcbnew,5.0.2-bee76a0~70~ubuntu18.04.1*
G04 #@! TF.CreationDate,2019-01-18T08:46:58-08:00*
G04 #@! TF.ProjectId,SensorArray,53656e73-6f72-4417-9272-61792e6b6963,rev?*
G04 #@! TF.SameCoordinates,Original*
G04 #@! TF.FileFunction,Legend,Top*
G04 #@! TF.FilePolarity,Positive*
%FSLAX46Y46*%
G04 Gerber Fmt 4.6, Leading zero omitted, Abs format (unit mm)*
G04 Created by KiCad (PCBNEW 5.0.2-bee76a0~70~ubuntu18.04.1) date Fri 18 Jan 2019 08:46:58 AM PST*
%MOMM*%
%LPD*%
G01*
G04 APERTURE LIST*
%ADD10C,0.100000*%
%ADD11C,0.127000*%
%ADD12C,0.050000*%
%ADD13C,0.120000*%
%ADD14C,0.150000*%
G04 APERTURE END LIST*
D10*
G04 #@! TO.C,C1*
X178195000Y-79960000D02*
G75*
G03X178195000Y-79960000I-50000J0D01*
G01*
D11*
X178745000Y-80390000D02*
X179345000Y-80390000D01*
X178745000Y-79630000D02*
X179345000Y-79630000D01*
G04 #@! TO.C,C2*
X178745000Y-82170000D02*
X179345000Y-82170000D01*
X178745000Y-82930000D02*
X179345000Y-82930000D01*
D10*
X178195000Y-82500000D02*
G75*
G03X178195000Y-82500000I-50000J0D01*
G01*
D11*
G04 #@! TO.C,C3*
X178745000Y-84710000D02*
X179345000Y-84710000D01*
X178745000Y-85470000D02*
X179345000Y-85470000D01*
D10*
X178195000Y-85040000D02*
G75*
G03X178195000Y-85040000I-50000J0D01*
G01*
G04 #@! TO.C,C4*
X178195000Y-87580000D02*
G75*
G03X178195000Y-87580000I-50000J0D01*
G01*
D11*
X178745000Y-88010000D02*
X179345000Y-88010000D01*
X178745000Y-87250000D02*
X179345000Y-87250000D01*
D10*
G04 #@! TO.C,C5*
X178195000Y-90120000D02*
G75*
G03X178195000Y-90120000I-50000J0D01*
G01*
D11*
X178745000Y-90550000D02*
X179345000Y-90550000D01*
X178745000Y-89790000D02*
X179345000Y-89790000D01*
G04 #@! TO.C,C6*
X178745000Y-92330000D02*
X179345000Y-92330000D01*
X178745000Y-93090000D02*
X179345000Y-93090000D01*
D10*
X178195000Y-92660000D02*
G75*
G03X178195000Y-92660000I-50000J0D01*
G01*
D12*
G04 #@! TO.C,IC1*
X166195000Y-83030000D02*
X166195000Y-79530000D01*
X170395000Y-83030000D02*
X166195000Y-83030000D01*
X170395000Y-79530000D02*
X170395000Y-83030000D01*
X166195000Y-79530000D02*
X170395000Y-79530000D01*
G04 #@! TO.C,IC2*
X154130000Y-89690000D02*
X158330000Y-89690000D01*
X158330000Y-89690000D02*
X158330000Y-93190000D01*
X158330000Y-93190000D02*
X154130000Y-93190000D01*
X154130000Y-93190000D02*
X154130000Y-89690000D01*
G04 #@! TO.C,IC3*
X154130000Y-84610000D02*
X158330000Y-84610000D01*
X158330000Y-84610000D02*
X158330000Y-88110000D01*
X158330000Y-88110000D02*
X154130000Y-88110000D01*
X154130000Y-88110000D02*
X154130000Y-84610000D01*
G04 #@! TO.C,IC4*
X154130000Y-82710000D02*
X154130000Y-79210000D01*
X158330000Y-82710000D02*
X154130000Y-82710000D01*
X158330000Y-79210000D02*
X158330000Y-82710000D01*
X154130000Y-79210000D02*
X158330000Y-79210000D01*
G04 #@! TO.C,IC5*
X166175000Y-84610000D02*
X170375000Y-84610000D01*
X170375000Y-84610000D02*
X170375000Y-88110000D01*
X170375000Y-88110000D02*
X166175000Y-88110000D01*
X166175000Y-88110000D02*
X166175000Y-84610000D01*
G04 #@! TO.C,IC6*
X166175000Y-93190000D02*
X166175000Y-89690000D01*
X170375000Y-93190000D02*
X166175000Y-93190000D01*
X170375000Y-89690000D02*
X170375000Y-93190000D01*
X166175000Y-89690000D02*
X170375000Y-89690000D01*
D13*
G04 #@! TO.C,J1*
X134680000Y-92710000D02*
X132020000Y-92710000D01*
X134680000Y-92710000D02*
X134680000Y-74870000D01*
X134680000Y-74870000D02*
X132020000Y-74870000D01*
X132020000Y-92710000D02*
X132020000Y-74870000D01*
X132020000Y-95310000D02*
X132020000Y-93980000D01*
X133350000Y-95310000D02*
X132020000Y-95310000D01*
G04 #@! TO.C,JP1*
X137430000Y-82695000D02*
X137430000Y-79895000D01*
X137430000Y-79895000D02*
X139430000Y-79895000D01*
X139430000Y-79895000D02*
X139430000Y-82695000D01*
X139430000Y-82695000D02*
X137430000Y-82695000D01*
G04 #@! TO.C,JP2*
X139430000Y-77615000D02*
X137430000Y-77615000D01*
X139430000Y-74815000D02*
X139430000Y-77615000D01*
X137430000Y-74815000D02*
X139430000Y-74815000D01*
X137430000Y-77615000D02*
X137430000Y-74815000D01*
G04 #@! TO.C,JP3*
X139430000Y-87760000D02*
X137430000Y-87760000D01*
X139430000Y-84960000D02*
X139430000Y-87760000D01*
X137430000Y-84960000D02*
X139430000Y-84960000D01*
X137430000Y-87760000D02*
X137430000Y-84960000D01*
G04 #@! TO.C,JP4*
X140825000Y-95615000D02*
X140825000Y-93615000D01*
X143625000Y-95615000D02*
X140825000Y-95615000D01*
X143625000Y-93615000D02*
X143625000Y-95615000D01*
X140825000Y-93615000D02*
X143625000Y-93615000D01*
G04 #@! TO.C,JP5*
X137415000Y-92840000D02*
X137415000Y-90040000D01*
X137415000Y-90040000D02*
X139415000Y-90040000D01*
X139415000Y-90040000D02*
X139415000Y-92840000D01*
X139415000Y-92840000D02*
X137415000Y-92840000D01*
G04 #@! TO.C,Q1*
X152867000Y-96347100D02*
X152867000Y-97807100D01*
X149707000Y-96347100D02*
X149707000Y-98507100D01*
X149707000Y-96347100D02*
X150637000Y-96347100D01*
X152867000Y-96347100D02*
X151937000Y-96347100D01*
G04 #@! TO.C,Q2*
X157570000Y-97692300D02*
X158500000Y-97692300D01*
X160730000Y-97692300D02*
X159800000Y-97692300D01*
X160730000Y-97692300D02*
X160730000Y-95532300D01*
X157570000Y-97692300D02*
X157570000Y-96232300D01*
G04 #@! TO.C,Q3*
X191253000Y-86032000D02*
X191253000Y-87492000D01*
X188093000Y-86032000D02*
X188093000Y-88192000D01*
X188093000Y-86032000D02*
X189023000Y-86032000D01*
X191253000Y-86032000D02*
X190323000Y-86032000D01*
G04 #@! TO.C,Q4*
X191253000Y-81587000D02*
X191253000Y-83047000D01*
X188093000Y-81587000D02*
X188093000Y-83747000D01*
X188093000Y-81587000D02*
X189023000Y-81587000D01*
X191253000Y-81587000D02*
X190323000Y-81587000D01*
G04 #@! TO.C,Q5*
X148241000Y-78293900D02*
X148241000Y-79753900D01*
X145081000Y-78293900D02*
X145081000Y-80453900D01*
X145081000Y-78293900D02*
X146011000Y-78293900D01*
X148241000Y-78293900D02*
X147311000Y-78293900D01*
G04 #@! TO.C,Q6*
X148091000Y-73932000D02*
X147161000Y-73932000D01*
X144931000Y-73932000D02*
X145861000Y-73932000D01*
X144931000Y-73932000D02*
X144931000Y-76092000D01*
X148091000Y-73932000D02*
X148091000Y-75392000D01*
G04 #@! TO.C,Q7*
X166619000Y-98025100D02*
X167549000Y-98025100D01*
X169779000Y-98025100D02*
X168849000Y-98025100D01*
X169779000Y-98025100D02*
X169779000Y-95865100D01*
X166619000Y-98025100D02*
X166619000Y-96565100D01*
G04 #@! TO.C,Q8*
X191555000Y-77443900D02*
X190625000Y-77443900D01*
X188395000Y-77443900D02*
X189325000Y-77443900D01*
X188395000Y-77443900D02*
X188395000Y-79603900D01*
X191555000Y-77443900D02*
X191555000Y-78903900D01*
G04 #@! TO.C,Q9*
X191244000Y-94552100D02*
X191244000Y-96012100D01*
X188084000Y-94552100D02*
X188084000Y-96712100D01*
X188084000Y-94552100D02*
X189014000Y-94552100D01*
X191244000Y-94552100D02*
X190314000Y-94552100D01*
G04 #@! TO.C,Q10*
X179777000Y-96415900D02*
X178847000Y-96415900D01*
X176617000Y-96415900D02*
X177547000Y-96415900D01*
X176617000Y-96415900D02*
X176617000Y-98575900D01*
X179777000Y-96415900D02*
X179777000Y-97875900D01*
G04 #@! TO.C,Q11*
X191555000Y-73903900D02*
X191555000Y-75363900D01*
X188395000Y-73903900D02*
X188395000Y-76063900D01*
X188395000Y-73903900D02*
X189325000Y-73903900D01*
X191555000Y-73903900D02*
X190625000Y-73903900D01*
G04 #@! TO.C,Q12*
X191244000Y-90742100D02*
X190314000Y-90742100D01*
X188084000Y-90742100D02*
X189014000Y-90742100D01*
X188084000Y-90742100D02*
X188084000Y-92902100D01*
X191244000Y-90742100D02*
X191244000Y-92202100D01*
D11*
G04 #@! TO.C,R1*
X180940000Y-80525000D02*
X181540000Y-80525000D01*
X180940000Y-79495000D02*
X181540000Y-79495000D01*
G04 #@! TO.C,R2*
X182555000Y-79495000D02*
X183155000Y-79495000D01*
X182555000Y-80525000D02*
X183155000Y-80525000D01*
G04 #@! TO.C,R3*
X182555000Y-83065000D02*
X183155000Y-83065000D01*
X182555000Y-82035000D02*
X183155000Y-82035000D01*
G04 #@! TO.C,R4*
X180990000Y-82035000D02*
X181590000Y-82035000D01*
X180990000Y-83065000D02*
X181590000Y-83065000D01*
G04 #@! TO.C,R5*
X182555000Y-85605000D02*
X183155000Y-85605000D01*
X182555000Y-84575000D02*
X183155000Y-84575000D01*
G04 #@! TO.C,R6*
X182555000Y-87115000D02*
X183155000Y-87115000D01*
X182555000Y-88145000D02*
X183155000Y-88145000D01*
G04 #@! TO.C,R7*
X181015000Y-88145000D02*
X181615000Y-88145000D01*
X181015000Y-87115000D02*
X181615000Y-87115000D01*
G04 #@! TO.C,R8*
X182555000Y-89655000D02*
X183155000Y-89655000D01*
X182555000Y-90685000D02*
X183155000Y-90685000D01*
G04 #@! TO.C,R9*
X180955000Y-90685000D02*
X181555000Y-90685000D01*
X180955000Y-89655000D02*
X181555000Y-89655000D01*
G04 #@! TO.C,R10*
X182555000Y-93225000D02*
X183155000Y-93225000D01*
X182555000Y-92195000D02*
X183155000Y-92195000D01*
G04 #@! TO.C,R11*
X180960000Y-93225000D02*
X181560000Y-93225000D01*
X180960000Y-92195000D02*
X181560000Y-92195000D01*
G04 #@! TO.C,R12*
X151465000Y-83940000D02*
X152065000Y-83940000D01*
X151465000Y-84970000D02*
X152065000Y-84970000D01*
G04 #@! TO.C,R13*
X151465000Y-78860000D02*
X152065000Y-78860000D01*
X151465000Y-79890000D02*
X152065000Y-79890000D01*
G04 #@! TO.C,R14*
X151465000Y-81400000D02*
X152065000Y-81400000D01*
X151465000Y-82430000D02*
X152065000Y-82430000D01*
G04 #@! TO.C,R15*
X181010000Y-84575000D02*
X181610000Y-84575000D01*
X181010000Y-85605000D02*
X181610000Y-85605000D01*
G04 #@! TO.C,R16*
X146837000Y-96592100D02*
X147437000Y-96592100D01*
X146837000Y-97622100D02*
X147437000Y-97622100D01*
G04 #@! TO.C,R17*
X163260000Y-96417300D02*
X162660000Y-96417300D01*
X163260000Y-97447300D02*
X162660000Y-97447300D01*
G04 #@! TO.C,R18*
X151465000Y-90050000D02*
X152065000Y-90050000D01*
X151465000Y-89020000D02*
X152065000Y-89020000D01*
G04 #@! TO.C,R19*
X146055000Y-94495000D02*
X146655000Y-94495000D01*
X146055000Y-93465000D02*
X146655000Y-93465000D01*
G04 #@! TO.C,R20*
X149560000Y-93465000D02*
X150160000Y-93465000D01*
X149560000Y-94495000D02*
X150160000Y-94495000D01*
G04 #@! TO.C,R21*
X153847000Y-96592100D02*
X154447000Y-96592100D01*
X153847000Y-97622100D02*
X154447000Y-97622100D01*
G04 #@! TO.C,R22*
X156890000Y-96417300D02*
X156290000Y-96417300D01*
X156890000Y-97447300D02*
X156290000Y-97447300D01*
G04 #@! TO.C,R23*
X185563000Y-87307000D02*
X186163000Y-87307000D01*
X185563000Y-86277000D02*
X186163000Y-86277000D01*
G04 #@! TO.C,R24*
X185563000Y-81832000D02*
X186163000Y-81832000D01*
X185563000Y-82862000D02*
X186163000Y-82862000D01*
G04 #@! TO.C,R25*
X191913000Y-87307000D02*
X192513000Y-87307000D01*
X191913000Y-86277000D02*
X192513000Y-86277000D01*
G04 #@! TO.C,R26*
X192218000Y-82862000D02*
X192818000Y-82862000D01*
X192218000Y-81832000D02*
X192818000Y-81832000D01*
G04 #@! TO.C,R27*
X141660000Y-78860000D02*
X142260000Y-78860000D01*
X141660000Y-79890000D02*
X142260000Y-79890000D01*
G04 #@! TO.C,R28*
X141940000Y-74415000D02*
X142540000Y-74415000D01*
X141940000Y-75445000D02*
X142540000Y-75445000D01*
G04 #@! TO.C,R29*
X149206000Y-79568900D02*
X149806000Y-79568900D01*
X149206000Y-78538900D02*
X149806000Y-78538900D01*
G04 #@! TO.C,R30*
X149056000Y-74177000D02*
X149656000Y-74177000D01*
X149056000Y-75207000D02*
X149656000Y-75207000D01*
G04 #@! TO.C,R31*
X172309000Y-96750100D02*
X171709000Y-96750100D01*
X172309000Y-97780100D02*
X171709000Y-97780100D01*
G04 #@! TO.C,R32*
X185360000Y-78718900D02*
X185960000Y-78718900D01*
X185360000Y-77688900D02*
X185960000Y-77688900D01*
G04 #@! TO.C,R33*
X185554000Y-95827100D02*
X186154000Y-95827100D01*
X185554000Y-94797100D02*
X186154000Y-94797100D01*
G04 #@! TO.C,R34*
X174087000Y-96660900D02*
X174687000Y-96660900D01*
X174087000Y-97690900D02*
X174687000Y-97690900D01*
G04 #@! TO.C,R35*
X185475000Y-74148900D02*
X186075000Y-74148900D01*
X185475000Y-75178900D02*
X186075000Y-75178900D01*
G04 #@! TO.C,R36*
X185554000Y-90987100D02*
X186154000Y-90987100D01*
X185554000Y-92017100D02*
X186154000Y-92017100D01*
G04 #@! TO.C,R37*
X165891000Y-97780100D02*
X165291000Y-97780100D01*
X165891000Y-96750100D02*
X165291000Y-96750100D01*
G04 #@! TO.C,R38*
X192535000Y-78718900D02*
X193135000Y-78718900D01*
X192535000Y-77688900D02*
X193135000Y-77688900D01*
G04 #@! TO.C,R39*
X192209000Y-95827100D02*
X192809000Y-95827100D01*
X192209000Y-94797100D02*
X192809000Y-94797100D01*
G04 #@! TO.C,R40*
X180830000Y-97670000D02*
X181430000Y-97670000D01*
X180830000Y-96640000D02*
X181430000Y-96640000D01*
G04 #@! TO.C,R41*
X192510000Y-74415000D02*
X193110000Y-74415000D01*
X192510000Y-75445000D02*
X193110000Y-75445000D01*
G04 #@! TO.C,R42*
X192414000Y-90987100D02*
X193014000Y-90987100D01*
X192414000Y-92017100D02*
X193014000Y-92017100D01*
D14*
G04 #@! TO.C,U1*
X167306000Y-73140000D02*
G75*
G03X167306000Y-73140000I-75000J0D01*
G01*
D11*
X164535000Y-72563000D02*
X164535000Y-76963000D01*
X166935000Y-72563000D02*
X164535000Y-72563000D01*
X166935000Y-76963000D02*
X166935000Y-72563000D01*
X164535000Y-76963000D02*
X166935000Y-76963000D01*
D14*
G04 #@! TO.C,U2*
X148375000Y-82970000D02*
X148375000Y-82995000D01*
X148375000Y-91020000D02*
X148375000Y-90995000D01*
X143725000Y-91020000D02*
X143725000Y-90995000D01*
X142650000Y-82920000D02*
X148375000Y-82920000D01*
X143725000Y-91020000D02*
X148375000Y-91020000D01*
D11*
G04 #@! TO.C,U3*
X175965000Y-76953000D02*
X178365000Y-76953000D01*
X178365000Y-76953000D02*
X178365000Y-72553000D01*
X178365000Y-72553000D02*
X175965000Y-72553000D01*
X175965000Y-72553000D02*
X175965000Y-76953000D01*
D14*
X178736000Y-73130000D02*
G75*
G03X178736000Y-73130000I-75000J0D01*
G01*
G04 #@! TO.C,U4*
X163181000Y-73140000D02*
G75*
G03X163181000Y-73140000I-75000J0D01*
G01*
D11*
X160410000Y-72563000D02*
X160410000Y-76963000D01*
X162810000Y-72563000D02*
X160410000Y-72563000D01*
X162810000Y-76963000D02*
X162810000Y-72563000D01*
X160410000Y-76963000D02*
X162810000Y-76963000D01*
D14*
G04 #@! TO.C,U5*
X174926000Y-73130000D02*
G75*
G03X174926000Y-73130000I-75000J0D01*
G01*
D11*
X172155000Y-72553000D02*
X172155000Y-76953000D01*
X174555000Y-72553000D02*
X172155000Y-72553000D01*
X174555000Y-76953000D02*
X174555000Y-72553000D01*
X172155000Y-76953000D02*
X174555000Y-76953000D01*
G04 #@! TO.C,U6*
X156280000Y-76963000D02*
X158680000Y-76963000D01*
X158680000Y-76963000D02*
X158680000Y-72563000D01*
X158680000Y-72563000D02*
X156280000Y-72563000D01*
X156280000Y-72563000D02*
X156280000Y-76963000D01*
D14*
X159051000Y-73140000D02*
G75*
G03X159051000Y-73140000I-75000J0D01*
G01*
D11*
G04 #@! TO.C,U7*
X168345000Y-76953000D02*
X170745000Y-76953000D01*
X170745000Y-76953000D02*
X170745000Y-72553000D01*
X170745000Y-72553000D02*
X168345000Y-72553000D01*
X168345000Y-72553000D02*
X168345000Y-76953000D01*
D14*
X171116000Y-73130000D02*
G75*
G03X171116000Y-73130000I-75000J0D01*
G01*
G04 #@! TO.C,C1*
D12*
X178071629Y-80081509D02*
X178062094Y-80091043D01*
X178033490Y-80100578D01*
X178014421Y-80100578D01*
X177985817Y-80091043D01*
X177966748Y-80071974D01*
X177957214Y-80052905D01*
X177947679Y-80014767D01*
X177947679Y-79986163D01*
X177957214Y-79948025D01*
X177966748Y-79928956D01*
X177985817Y-79909887D01*
X178014421Y-79900352D01*
X178033490Y-79900352D01*
X178062094Y-79909887D01*
X178071629Y-79919421D01*
X178262320Y-80100578D02*
X178147905Y-80100578D01*
X178205113Y-80100578D02*
X178205113Y-79900352D01*
X178186043Y-79928956D01*
X178166974Y-79948025D01*
X178147905Y-79957559D01*
G04 #@! TO.C,C2*
X178766770Y-81842579D02*
X178757235Y-81852113D01*
X178728631Y-81861648D01*
X178709562Y-81861648D01*
X178680958Y-81852113D01*
X178661889Y-81833044D01*
X178652355Y-81813975D01*
X178642820Y-81775837D01*
X178642820Y-81747233D01*
X178652355Y-81709095D01*
X178661889Y-81690026D01*
X178680958Y-81670957D01*
X178709562Y-81661422D01*
X178728631Y-81661422D01*
X178757235Y-81670957D01*
X178766770Y-81680491D01*
X178843046Y-81680491D02*
X178852581Y-81670957D01*
X178871650Y-81661422D01*
X178919323Y-81661422D01*
X178938392Y-81670957D01*
X178947926Y-81680491D01*
X178957461Y-81699560D01*
X178957461Y-81718629D01*
X178947926Y-81747233D01*
X178833512Y-81861648D01*
X178957461Y-81861648D01*
X178627824Y-83165660D02*
X178646887Y-83165660D01*
X178665950Y-83175191D01*
X178675481Y-83184722D01*
X178685013Y-83203785D01*
X178694544Y-83241911D01*
X178694544Y-83289569D01*
X178685013Y-83327695D01*
X178675481Y-83346758D01*
X178665950Y-83356289D01*
X178646887Y-83365821D01*
X178627824Y-83365821D01*
X178608761Y-83356289D01*
X178599230Y-83346758D01*
X178589698Y-83327695D01*
X178580167Y-83289569D01*
X178580167Y-83241911D01*
X178589698Y-83203785D01*
X178599230Y-83184722D01*
X178608761Y-83175191D01*
X178627824Y-83165660D01*
X178780328Y-83346758D02*
X178789859Y-83356289D01*
X178780328Y-83365821D01*
X178770796Y-83356289D01*
X178780328Y-83346758D01*
X178780328Y-83365821D01*
X178980489Y-83365821D02*
X178866111Y-83365821D01*
X178923300Y-83365821D02*
X178923300Y-83165660D01*
X178904237Y-83194254D01*
X178885174Y-83213317D01*
X178866111Y-83222848D01*
X179152055Y-83232380D02*
X179152055Y-83365821D01*
X179066272Y-83232380D02*
X179066272Y-83337226D01*
X179075803Y-83356289D01*
X179094866Y-83365821D01*
X179123461Y-83365821D01*
X179142524Y-83356289D01*
X179152055Y-83346758D01*
X179218776Y-83232380D02*
X179295027Y-83232380D01*
X179247370Y-83365821D02*
X179247370Y-83194254D01*
X179256901Y-83175191D01*
X179275964Y-83165660D01*
X179295027Y-83165660D01*
G04 #@! TO.C,C3*
X178766770Y-84382579D02*
X178757235Y-84392113D01*
X178728631Y-84401648D01*
X178709562Y-84401648D01*
X178680958Y-84392113D01*
X178661889Y-84373044D01*
X178652355Y-84353975D01*
X178642820Y-84315837D01*
X178642820Y-84287233D01*
X178652355Y-84249095D01*
X178661889Y-84230026D01*
X178680958Y-84210957D01*
X178709562Y-84201422D01*
X178728631Y-84201422D01*
X178757235Y-84210957D01*
X178766770Y-84220491D01*
X178833512Y-84201422D02*
X178957461Y-84201422D01*
X178890719Y-84277699D01*
X178919323Y-84277699D01*
X178938392Y-84287233D01*
X178947926Y-84296768D01*
X178957461Y-84315837D01*
X178957461Y-84363510D01*
X178947926Y-84382579D01*
X178938392Y-84392113D01*
X178919323Y-84401648D01*
X178862115Y-84401648D01*
X178843046Y-84392113D01*
X178833512Y-84382579D01*
X178627824Y-85705660D02*
X178646887Y-85705660D01*
X178665950Y-85715191D01*
X178675481Y-85724722D01*
X178685013Y-85743785D01*
X178694544Y-85781911D01*
X178694544Y-85829569D01*
X178685013Y-85867695D01*
X178675481Y-85886758D01*
X178665950Y-85896289D01*
X178646887Y-85905821D01*
X178627824Y-85905821D01*
X178608761Y-85896289D01*
X178599230Y-85886758D01*
X178589698Y-85867695D01*
X178580167Y-85829569D01*
X178580167Y-85781911D01*
X178589698Y-85743785D01*
X178599230Y-85724722D01*
X178608761Y-85715191D01*
X178627824Y-85705660D01*
X178780328Y-85886758D02*
X178789859Y-85896289D01*
X178780328Y-85905821D01*
X178770796Y-85896289D01*
X178780328Y-85886758D01*
X178780328Y-85905821D01*
X178980489Y-85905821D02*
X178866111Y-85905821D01*
X178923300Y-85905821D02*
X178923300Y-85705660D01*
X178904237Y-85734254D01*
X178885174Y-85753317D01*
X178866111Y-85762848D01*
X179152055Y-85772380D02*
X179152055Y-85905821D01*
X179066272Y-85772380D02*
X179066272Y-85877226D01*
X179075803Y-85896289D01*
X179094866Y-85905821D01*
X179123461Y-85905821D01*
X179142524Y-85896289D01*
X179152055Y-85886758D01*
X179218776Y-85772380D02*
X179295027Y-85772380D01*
X179247370Y-85905821D02*
X179247370Y-85734254D01*
X179256901Y-85715191D01*
X179275964Y-85705660D01*
X179295027Y-85705660D01*
G04 #@! TO.C,C4*
X178766770Y-86922579D02*
X178757235Y-86932113D01*
X178728631Y-86941648D01*
X178709562Y-86941648D01*
X178680958Y-86932113D01*
X178661889Y-86913044D01*
X178652355Y-86893975D01*
X178642820Y-86855837D01*
X178642820Y-86827233D01*
X178652355Y-86789095D01*
X178661889Y-86770026D01*
X178680958Y-86750957D01*
X178709562Y-86741422D01*
X178728631Y-86741422D01*
X178757235Y-86750957D01*
X178766770Y-86760491D01*
X178938392Y-86808164D02*
X178938392Y-86941648D01*
X178890719Y-86731887D02*
X178843046Y-86874906D01*
X178966996Y-86874906D01*
X178627824Y-88245660D02*
X178646887Y-88245660D01*
X178665950Y-88255191D01*
X178675481Y-88264722D01*
X178685013Y-88283785D01*
X178694544Y-88321911D01*
X178694544Y-88369569D01*
X178685013Y-88407695D01*
X178675481Y-88426758D01*
X178665950Y-88436289D01*
X178646887Y-88445821D01*
X178627824Y-88445821D01*
X178608761Y-88436289D01*
X178599230Y-88426758D01*
X178589698Y-88407695D01*
X178580167Y-88369569D01*
X178580167Y-88321911D01*
X178589698Y-88283785D01*
X178599230Y-88264722D01*
X178608761Y-88255191D01*
X178627824Y-88245660D01*
X178780328Y-88426758D02*
X178789859Y-88436289D01*
X178780328Y-88445821D01*
X178770796Y-88436289D01*
X178780328Y-88426758D01*
X178780328Y-88445821D01*
X178980489Y-88445821D02*
X178866111Y-88445821D01*
X178923300Y-88445821D02*
X178923300Y-88245660D01*
X178904237Y-88274254D01*
X178885174Y-88293317D01*
X178866111Y-88302848D01*
X179152055Y-88312380D02*
X179152055Y-88445821D01*
X179066272Y-88312380D02*
X179066272Y-88417226D01*
X179075803Y-88436289D01*
X179094866Y-88445821D01*
X179123461Y-88445821D01*
X179142524Y-88436289D01*
X179152055Y-88426758D01*
X179218776Y-88312380D02*
X179295027Y-88312380D01*
X179247370Y-88445821D02*
X179247370Y-88274254D01*
X179256901Y-88255191D01*
X179275964Y-88245660D01*
X179295027Y-88245660D01*
G04 #@! TO.C,C5*
X178766770Y-89462579D02*
X178757235Y-89472113D01*
X178728631Y-89481648D01*
X178709562Y-89481648D01*
X178680958Y-89472113D01*
X178661889Y-89453044D01*
X178652355Y-89433975D01*
X178642820Y-89395837D01*
X178642820Y-89367233D01*
X178652355Y-89329095D01*
X178661889Y-89310026D01*
X178680958Y-89290957D01*
X178709562Y-89281422D01*
X178728631Y-89281422D01*
X178757235Y-89290957D01*
X178766770Y-89300491D01*
X178947926Y-89281422D02*
X178852581Y-89281422D01*
X178843046Y-89376768D01*
X178852581Y-89367233D01*
X178871650Y-89357699D01*
X178919323Y-89357699D01*
X178938392Y-89367233D01*
X178947926Y-89376768D01*
X178957461Y-89395837D01*
X178957461Y-89443510D01*
X178947926Y-89462579D01*
X178938392Y-89472113D01*
X178919323Y-89481648D01*
X178871650Y-89481648D01*
X178852581Y-89472113D01*
X178843046Y-89462579D01*
X178627824Y-90785660D02*
X178646887Y-90785660D01*
X178665950Y-90795191D01*
X178675481Y-90804722D01*
X178685013Y-90823785D01*
X178694544Y-90861911D01*
X178694544Y-90909569D01*
X178685013Y-90947695D01*
X178675481Y-90966758D01*
X178665950Y-90976289D01*
X178646887Y-90985821D01*
X178627824Y-90985821D01*
X178608761Y-90976289D01*
X178599230Y-90966758D01*
X178589698Y-90947695D01*
X178580167Y-90909569D01*
X178580167Y-90861911D01*
X178589698Y-90823785D01*
X178599230Y-90804722D01*
X178608761Y-90795191D01*
X178627824Y-90785660D01*
X178780328Y-90966758D02*
X178789859Y-90976289D01*
X178780328Y-90985821D01*
X178770796Y-90976289D01*
X178780328Y-90966758D01*
X178780328Y-90985821D01*
X178980489Y-90985821D02*
X178866111Y-90985821D01*
X178923300Y-90985821D02*
X178923300Y-90785660D01*
X178904237Y-90814254D01*
X178885174Y-90833317D01*
X178866111Y-90842848D01*
X179152055Y-90852380D02*
X179152055Y-90985821D01*
X179066272Y-90852380D02*
X179066272Y-90957226D01*
X179075803Y-90976289D01*
X179094866Y-90985821D01*
X179123461Y-90985821D01*
X179142524Y-90976289D01*
X179152055Y-90966758D01*
X179218776Y-90852380D02*
X179295027Y-90852380D01*
X179247370Y-90985821D02*
X179247370Y-90814254D01*
X179256901Y-90795191D01*
X179275964Y-90785660D01*
X179295027Y-90785660D01*
G04 #@! TO.C,C6*
X178766770Y-92002579D02*
X178757235Y-92012113D01*
X178728631Y-92021648D01*
X178709562Y-92021648D01*
X178680958Y-92012113D01*
X178661889Y-91993044D01*
X178652355Y-91973975D01*
X178642820Y-91935837D01*
X178642820Y-91907233D01*
X178652355Y-91869095D01*
X178661889Y-91850026D01*
X178680958Y-91830957D01*
X178709562Y-91821422D01*
X178728631Y-91821422D01*
X178757235Y-91830957D01*
X178766770Y-91840491D01*
X178938392Y-91821422D02*
X178900254Y-91821422D01*
X178881184Y-91830957D01*
X178871650Y-91840491D01*
X178852581Y-91869095D01*
X178843046Y-91907233D01*
X178843046Y-91983510D01*
X178852581Y-92002579D01*
X178862115Y-92012113D01*
X178881184Y-92021648D01*
X178919323Y-92021648D01*
X178938392Y-92012113D01*
X178947926Y-92002579D01*
X178957461Y-91983510D01*
X178957461Y-91935837D01*
X178947926Y-91916768D01*
X178938392Y-91907233D01*
X178919323Y-91897699D01*
X178881184Y-91897699D01*
X178862115Y-91907233D01*
X178852581Y-91916768D01*
X178843046Y-91935837D01*
X178627824Y-93325660D02*
X178646887Y-93325660D01*
X178665950Y-93335191D01*
X178675481Y-93344722D01*
X178685013Y-93363785D01*
X178694544Y-93401911D01*
X178694544Y-93449569D01*
X178685013Y-93487695D01*
X178675481Y-93506758D01*
X178665950Y-93516289D01*
X178646887Y-93525821D01*
X178627824Y-93525821D01*
X178608761Y-93516289D01*
X178599230Y-93506758D01*
X178589698Y-93487695D01*
X178580167Y-93449569D01*
X178580167Y-93401911D01*
X178589698Y-93363785D01*
X178599230Y-93344722D01*
X178608761Y-93335191D01*
X178627824Y-93325660D01*
X178780328Y-93506758D02*
X178789859Y-93516289D01*
X178780328Y-93525821D01*
X178770796Y-93516289D01*
X178780328Y-93506758D01*
X178780328Y-93525821D01*
X178980489Y-93525821D02*
X178866111Y-93525821D01*
X178923300Y-93525821D02*
X178923300Y-93325660D01*
X178904237Y-93354254D01*
X178885174Y-93373317D01*
X178866111Y-93382848D01*
X179152055Y-93392380D02*
X179152055Y-93525821D01*
X179066272Y-93392380D02*
X179066272Y-93497226D01*
X179075803Y-93516289D01*
X179094866Y-93525821D01*
X179123461Y-93525821D01*
X179142524Y-93516289D01*
X179152055Y-93506758D01*
X179218776Y-93392380D02*
X179295027Y-93392380D01*
X179247370Y-93525821D02*
X179247370Y-93354254D01*
X179256901Y-93335191D01*
X179275964Y-93325660D01*
X179295027Y-93325660D01*
G04 #@! TO.C,C7*
X151714171Y-83698066D02*
X151744647Y-83728542D01*
X151775123Y-83819971D01*
X151775123Y-83880923D01*
X151744647Y-83972352D01*
X151683695Y-84033304D01*
X151622742Y-84063780D01*
X151500838Y-84094257D01*
X151409409Y-84094257D01*
X151287504Y-84063780D01*
X151226552Y-84033304D01*
X151165600Y-83972352D01*
X151135123Y-83880923D01*
X151135123Y-83819971D01*
X151165600Y-83728542D01*
X151196076Y-83698066D01*
X151135123Y-83484733D02*
X151135123Y-83058066D01*
X151775123Y-83332352D01*
X152468561Y-84498142D02*
X152468561Y-84681000D01*
X152468561Y-84589571D02*
X152148561Y-84589571D01*
X152194276Y-84620047D01*
X152224752Y-84650523D01*
X152239990Y-84681000D01*
X152148561Y-84300047D02*
X152148561Y-84269571D01*
X152163800Y-84239095D01*
X152179038Y-84223857D01*
X152209514Y-84208619D01*
X152270466Y-84193380D01*
X152346657Y-84193380D01*
X152407609Y-84208619D01*
X152438085Y-84223857D01*
X152453323Y-84239095D01*
X152468561Y-84269571D01*
X152468561Y-84300047D01*
X152453323Y-84330523D01*
X152438085Y-84345761D01*
X152407609Y-84361000D01*
X152346657Y-84376238D01*
X152270466Y-84376238D01*
X152209514Y-84361000D01*
X152179038Y-84345761D01*
X152163800Y-84330523D01*
X152148561Y-84300047D01*
X152255228Y-83919095D02*
X152468561Y-83919095D01*
X152255228Y-84056238D02*
X152422847Y-84056238D01*
X152453323Y-84041000D01*
X152468561Y-84010523D01*
X152468561Y-83964809D01*
X152453323Y-83934333D01*
X152438085Y-83919095D01*
X152255228Y-83812428D02*
X152255228Y-83690523D01*
X152468561Y-83766714D02*
X152194276Y-83766714D01*
X152163800Y-83751476D01*
X152148561Y-83721000D01*
X152148561Y-83690523D01*
G04 #@! TO.C,C8*
X176758571Y-81386666D02*
X176789047Y-81417142D01*
X176819523Y-81508571D01*
X176819523Y-81569523D01*
X176789047Y-81660952D01*
X176728095Y-81721904D01*
X176667142Y-81752380D01*
X176545238Y-81782857D01*
X176453809Y-81782857D01*
X176331904Y-81752380D01*
X176270952Y-81721904D01*
X176210000Y-81660952D01*
X176179523Y-81569523D01*
X176179523Y-81508571D01*
X176210000Y-81417142D01*
X176240476Y-81386666D01*
X176453809Y-81020952D02*
X176423333Y-81081904D01*
X176392857Y-81112380D01*
X176331904Y-81142857D01*
X176301428Y-81142857D01*
X176240476Y-81112380D01*
X176210000Y-81081904D01*
X176179523Y-81020952D01*
X176179523Y-80899047D01*
X176210000Y-80838095D01*
X176240476Y-80807619D01*
X176301428Y-80777142D01*
X176331904Y-80777142D01*
X176392857Y-80807619D01*
X176423333Y-80838095D01*
X176453809Y-80899047D01*
X176453809Y-81020952D01*
X176484285Y-81081904D01*
X176514761Y-81112380D01*
X176575714Y-81142857D01*
X176697619Y-81142857D01*
X176758571Y-81112380D01*
X176789047Y-81081904D01*
X176819523Y-81020952D01*
X176819523Y-80899047D01*
X176789047Y-80838095D01*
X176758571Y-80807619D01*
X176697619Y-80777142D01*
X176575714Y-80777142D01*
X176514761Y-80807619D01*
X176484285Y-80838095D01*
X176453809Y-80899047D01*
G04 #@! TO.C,C9*
X174218571Y-81386666D02*
X174249047Y-81417142D01*
X174279523Y-81508571D01*
X174279523Y-81569523D01*
X174249047Y-81660952D01*
X174188095Y-81721904D01*
X174127142Y-81752380D01*
X174005238Y-81782857D01*
X173913809Y-81782857D01*
X173791904Y-81752380D01*
X173730952Y-81721904D01*
X173670000Y-81660952D01*
X173639523Y-81569523D01*
X173639523Y-81508571D01*
X173670000Y-81417142D01*
X173700476Y-81386666D01*
X174279523Y-81081904D02*
X174279523Y-80960000D01*
X174249047Y-80899047D01*
X174218571Y-80868571D01*
X174127142Y-80807619D01*
X174005238Y-80777142D01*
X173761428Y-80777142D01*
X173700476Y-80807619D01*
X173670000Y-80838095D01*
X173639523Y-80899047D01*
X173639523Y-81020952D01*
X173670000Y-81081904D01*
X173700476Y-81112380D01*
X173761428Y-81142857D01*
X173913809Y-81142857D01*
X173974761Y-81112380D01*
X174005238Y-81081904D01*
X174035714Y-81020952D01*
X174035714Y-80899047D01*
X174005238Y-80838095D01*
X173974761Y-80807619D01*
X173913809Y-80777142D01*
G04 #@! TO.C,C10*
X162023571Y-91851428D02*
X162054047Y-91881904D01*
X162084523Y-91973333D01*
X162084523Y-92034285D01*
X162054047Y-92125714D01*
X161993095Y-92186666D01*
X161932142Y-92217142D01*
X161810238Y-92247619D01*
X161718809Y-92247619D01*
X161596904Y-92217142D01*
X161535952Y-92186666D01*
X161475000Y-92125714D01*
X161444523Y-92034285D01*
X161444523Y-91973333D01*
X161475000Y-91881904D01*
X161505476Y-91851428D01*
X162084523Y-91241904D02*
X162084523Y-91607619D01*
X162084523Y-91424761D02*
X161444523Y-91424761D01*
X161535952Y-91485714D01*
X161596904Y-91546666D01*
X161627380Y-91607619D01*
X161444523Y-90845714D02*
X161444523Y-90784761D01*
X161475000Y-90723809D01*
X161505476Y-90693333D01*
X161566428Y-90662857D01*
X161688333Y-90632380D01*
X161840714Y-90632380D01*
X161962619Y-90662857D01*
X162023571Y-90693333D01*
X162054047Y-90723809D01*
X162084523Y-90784761D01*
X162084523Y-90845714D01*
X162054047Y-90906666D01*
X162023571Y-90937142D01*
X161962619Y-90967619D01*
X161840714Y-90998095D01*
X161688333Y-90998095D01*
X161566428Y-90967619D01*
X161505476Y-90937142D01*
X161475000Y-90906666D01*
X161444523Y-90845714D01*
G04 #@! TO.C,C11*
X165328571Y-91851428D02*
X165359047Y-91881904D01*
X165389523Y-91973333D01*
X165389523Y-92034285D01*
X165359047Y-92125714D01*
X165298095Y-92186666D01*
X165237142Y-92217142D01*
X165115238Y-92247619D01*
X165023809Y-92247619D01*
X164901904Y-92217142D01*
X164840952Y-92186666D01*
X164780000Y-92125714D01*
X164749523Y-92034285D01*
X164749523Y-91973333D01*
X164780000Y-91881904D01*
X164810476Y-91851428D01*
X165389523Y-91241904D02*
X165389523Y-91607619D01*
X165389523Y-91424761D02*
X164749523Y-91424761D01*
X164840952Y-91485714D01*
X164901904Y-91546666D01*
X164932380Y-91607619D01*
X165389523Y-90632380D02*
X165389523Y-90998095D01*
X165389523Y-90815238D02*
X164749523Y-90815238D01*
X164840952Y-90876190D01*
X164901904Y-90937142D01*
X164932380Y-90998095D01*
G04 #@! TO.C,C12*
X162153571Y-86771428D02*
X162184047Y-86801904D01*
X162214523Y-86893333D01*
X162214523Y-86954285D01*
X162184047Y-87045714D01*
X162123095Y-87106666D01*
X162062142Y-87137142D01*
X161940238Y-87167619D01*
X161848809Y-87167619D01*
X161726904Y-87137142D01*
X161665952Y-87106666D01*
X161605000Y-87045714D01*
X161574523Y-86954285D01*
X161574523Y-86893333D01*
X161605000Y-86801904D01*
X161635476Y-86771428D01*
X162214523Y-86161904D02*
X162214523Y-86527619D01*
X162214523Y-86344761D02*
X161574523Y-86344761D01*
X161665952Y-86405714D01*
X161726904Y-86466666D01*
X161757380Y-86527619D01*
X161635476Y-85918095D02*
X161605000Y-85887619D01*
X161574523Y-85826666D01*
X161574523Y-85674285D01*
X161605000Y-85613333D01*
X161635476Y-85582857D01*
X161696428Y-85552380D01*
X161757380Y-85552380D01*
X161848809Y-85582857D01*
X162214523Y-85948571D01*
X162214523Y-85552380D01*
G04 #@! TO.C,C13*
X165328571Y-86771428D02*
X165359047Y-86801904D01*
X165389523Y-86893333D01*
X165389523Y-86954285D01*
X165359047Y-87045714D01*
X165298095Y-87106666D01*
X165237142Y-87137142D01*
X165115238Y-87167619D01*
X165023809Y-87167619D01*
X164901904Y-87137142D01*
X164840952Y-87106666D01*
X164780000Y-87045714D01*
X164749523Y-86954285D01*
X164749523Y-86893333D01*
X164780000Y-86801904D01*
X164810476Y-86771428D01*
X165389523Y-86161904D02*
X165389523Y-86527619D01*
X165389523Y-86344761D02*
X164749523Y-86344761D01*
X164840952Y-86405714D01*
X164901904Y-86466666D01*
X164932380Y-86527619D01*
X164749523Y-85948571D02*
X164749523Y-85552380D01*
X164993333Y-85765714D01*
X164993333Y-85674285D01*
X165023809Y-85613333D01*
X165054285Y-85582857D01*
X165115238Y-85552380D01*
X165267619Y-85552380D01*
X165328571Y-85582857D01*
X165359047Y-85613333D01*
X165389523Y-85674285D01*
X165389523Y-85857142D01*
X165359047Y-85918095D01*
X165328571Y-85948571D01*
G04 #@! TO.C,C14*
X162153571Y-81371428D02*
X162184047Y-81401904D01*
X162214523Y-81493333D01*
X162214523Y-81554285D01*
X162184047Y-81645714D01*
X162123095Y-81706666D01*
X162062142Y-81737142D01*
X161940238Y-81767619D01*
X161848809Y-81767619D01*
X161726904Y-81737142D01*
X161665952Y-81706666D01*
X161605000Y-81645714D01*
X161574523Y-81554285D01*
X161574523Y-81493333D01*
X161605000Y-81401904D01*
X161635476Y-81371428D01*
X162214523Y-80761904D02*
X162214523Y-81127619D01*
X162214523Y-80944761D02*
X161574523Y-80944761D01*
X161665952Y-81005714D01*
X161726904Y-81066666D01*
X161757380Y-81127619D01*
X161787857Y-80213333D02*
X162214523Y-80213333D01*
X161544047Y-80365714D02*
X162001190Y-80518095D01*
X162001190Y-80121904D01*
G04 #@! TO.C,C15*
X165328571Y-81371428D02*
X165359047Y-81401904D01*
X165389523Y-81493333D01*
X165389523Y-81554285D01*
X165359047Y-81645714D01*
X165298095Y-81706666D01*
X165237142Y-81737142D01*
X165115238Y-81767619D01*
X165023809Y-81767619D01*
X164901904Y-81737142D01*
X164840952Y-81706666D01*
X164780000Y-81645714D01*
X164749523Y-81554285D01*
X164749523Y-81493333D01*
X164780000Y-81401904D01*
X164810476Y-81371428D01*
X165389523Y-80761904D02*
X165389523Y-81127619D01*
X165389523Y-80944761D02*
X164749523Y-80944761D01*
X164840952Y-81005714D01*
X164901904Y-81066666D01*
X164932380Y-81127619D01*
X164749523Y-80182857D02*
X164749523Y-80487619D01*
X165054285Y-80518095D01*
X165023809Y-80487619D01*
X164993333Y-80426666D01*
X164993333Y-80274285D01*
X165023809Y-80213333D01*
X165054285Y-80182857D01*
X165115238Y-80152380D01*
X165267619Y-80152380D01*
X165328571Y-80182857D01*
X165359047Y-80213333D01*
X165389523Y-80274285D01*
X165389523Y-80426666D01*
X165359047Y-80487619D01*
X165328571Y-80518095D01*
G04 #@! TO.C,C16*
X174218571Y-86771428D02*
X174249047Y-86801904D01*
X174279523Y-86893333D01*
X174279523Y-86954285D01*
X174249047Y-87045714D01*
X174188095Y-87106666D01*
X174127142Y-87137142D01*
X174005238Y-87167619D01*
X173913809Y-87167619D01*
X173791904Y-87137142D01*
X173730952Y-87106666D01*
X173670000Y-87045714D01*
X173639523Y-86954285D01*
X173639523Y-86893333D01*
X173670000Y-86801904D01*
X173700476Y-86771428D01*
X174279523Y-86161904D02*
X174279523Y-86527619D01*
X174279523Y-86344761D02*
X173639523Y-86344761D01*
X173730952Y-86405714D01*
X173791904Y-86466666D01*
X173822380Y-86527619D01*
X173639523Y-85613333D02*
X173639523Y-85735238D01*
X173670000Y-85796190D01*
X173700476Y-85826666D01*
X173791904Y-85887619D01*
X173913809Y-85918095D01*
X174157619Y-85918095D01*
X174218571Y-85887619D01*
X174249047Y-85857142D01*
X174279523Y-85796190D01*
X174279523Y-85674285D01*
X174249047Y-85613333D01*
X174218571Y-85582857D01*
X174157619Y-85552380D01*
X174005238Y-85552380D01*
X173944285Y-85582857D01*
X173913809Y-85613333D01*
X173883333Y-85674285D01*
X173883333Y-85796190D01*
X173913809Y-85857142D01*
X173944285Y-85887619D01*
X174005238Y-85918095D01*
G04 #@! TO.C,C17*
X174218571Y-91851428D02*
X174249047Y-91881904D01*
X174279523Y-91973333D01*
X174279523Y-92034285D01*
X174249047Y-92125714D01*
X174188095Y-92186666D01*
X174127142Y-92217142D01*
X174005238Y-92247619D01*
X173913809Y-92247619D01*
X173791904Y-92217142D01*
X173730952Y-92186666D01*
X173670000Y-92125714D01*
X173639523Y-92034285D01*
X173639523Y-91973333D01*
X173670000Y-91881904D01*
X173700476Y-91851428D01*
X174279523Y-91241904D02*
X174279523Y-91607619D01*
X174279523Y-91424761D02*
X173639523Y-91424761D01*
X173730952Y-91485714D01*
X173791904Y-91546666D01*
X173822380Y-91607619D01*
X173639523Y-91028571D02*
X173639523Y-90601904D01*
X174279523Y-90876190D01*
G04 #@! TO.C,C18*
X176758571Y-86771428D02*
X176789047Y-86801904D01*
X176819523Y-86893333D01*
X176819523Y-86954285D01*
X176789047Y-87045714D01*
X176728095Y-87106666D01*
X176667142Y-87137142D01*
X176545238Y-87167619D01*
X176453809Y-87167619D01*
X176331904Y-87137142D01*
X176270952Y-87106666D01*
X176210000Y-87045714D01*
X176179523Y-86954285D01*
X176179523Y-86893333D01*
X176210000Y-86801904D01*
X176240476Y-86771428D01*
X176819523Y-86161904D02*
X176819523Y-86527619D01*
X176819523Y-86344761D02*
X176179523Y-86344761D01*
X176270952Y-86405714D01*
X176331904Y-86466666D01*
X176362380Y-86527619D01*
X176453809Y-85796190D02*
X176423333Y-85857142D01*
X176392857Y-85887619D01*
X176331904Y-85918095D01*
X176301428Y-85918095D01*
X176240476Y-85887619D01*
X176210000Y-85857142D01*
X176179523Y-85796190D01*
X176179523Y-85674285D01*
X176210000Y-85613333D01*
X176240476Y-85582857D01*
X176301428Y-85552380D01*
X176331904Y-85552380D01*
X176392857Y-85582857D01*
X176423333Y-85613333D01*
X176453809Y-85674285D01*
X176453809Y-85796190D01*
X176484285Y-85857142D01*
X176514761Y-85887619D01*
X176575714Y-85918095D01*
X176697619Y-85918095D01*
X176758571Y-85887619D01*
X176789047Y-85857142D01*
X176819523Y-85796190D01*
X176819523Y-85674285D01*
X176789047Y-85613333D01*
X176758571Y-85582857D01*
X176697619Y-85552380D01*
X176575714Y-85552380D01*
X176514761Y-85582857D01*
X176484285Y-85613333D01*
X176453809Y-85674285D01*
G04 #@! TO.C,C19*
X176758571Y-92271428D02*
X176789047Y-92301904D01*
X176819523Y-92393333D01*
X176819523Y-92454285D01*
X176789047Y-92545714D01*
X176728095Y-92606666D01*
X176667142Y-92637142D01*
X176545238Y-92667619D01*
X176453809Y-92667619D01*
X176331904Y-92637142D01*
X176270952Y-92606666D01*
X176210000Y-92545714D01*
X176179523Y-92454285D01*
X176179523Y-92393333D01*
X176210000Y-92301904D01*
X176240476Y-92271428D01*
X176819523Y-91661904D02*
X176819523Y-92027619D01*
X176819523Y-91844761D02*
X176179523Y-91844761D01*
X176270952Y-91905714D01*
X176331904Y-91966666D01*
X176362380Y-92027619D01*
X176819523Y-91357142D02*
X176819523Y-91235238D01*
X176789047Y-91174285D01*
X176758571Y-91143809D01*
X176667142Y-91082857D01*
X176545238Y-91052380D01*
X176301428Y-91052380D01*
X176240476Y-91082857D01*
X176210000Y-91113333D01*
X176179523Y-91174285D01*
X176179523Y-91296190D01*
X176210000Y-91357142D01*
X176240476Y-91387619D01*
X176301428Y-91418095D01*
X176453809Y-91418095D01*
X176514761Y-91387619D01*
X176545238Y-91357142D01*
X176575714Y-91296190D01*
X176575714Y-91174285D01*
X176545238Y-91113333D01*
X176514761Y-91082857D01*
X176453809Y-91052380D01*
G04 #@! TO.C,IC1*
X167295861Y-79193747D02*
X167295861Y-78190727D01*
X168346644Y-79098221D02*
X168298881Y-79145984D01*
X168155592Y-79193747D01*
X168060067Y-79193747D01*
X167916778Y-79145984D01*
X167821252Y-79050458D01*
X167773490Y-78954932D01*
X167725727Y-78763881D01*
X167725727Y-78620592D01*
X167773490Y-78429541D01*
X167821252Y-78334015D01*
X167916778Y-78238490D01*
X168060067Y-78190727D01*
X168155592Y-78190727D01*
X168298881Y-78238490D01*
X168346644Y-78286252D01*
X169301901Y-79193747D02*
X168728747Y-79193747D01*
X169015324Y-79193747D02*
X169015324Y-78190727D01*
X168919798Y-78334015D01*
X168824272Y-78429541D01*
X168728747Y-78477304D01*
G04 #@! TO.C,IC2*
X155230861Y-89353747D02*
X155230861Y-88350727D01*
X156281644Y-89258221D02*
X156233881Y-89305984D01*
X156090592Y-89353747D01*
X155995067Y-89353747D01*
X155851778Y-89305984D01*
X155756252Y-89210458D01*
X155708490Y-89114932D01*
X155660727Y-88923881D01*
X155660727Y-88780592D01*
X155708490Y-88589541D01*
X155756252Y-88494015D01*
X155851778Y-88398490D01*
X155995067Y-88350727D01*
X156090592Y-88350727D01*
X156233881Y-88398490D01*
X156281644Y-88446252D01*
X156663747Y-88446252D02*
X156711510Y-88398490D01*
X156807035Y-88350727D01*
X157045850Y-88350727D01*
X157141375Y-88398490D01*
X157189138Y-88446252D01*
X157236901Y-88541778D01*
X157236901Y-88637304D01*
X157189138Y-88780592D01*
X156615984Y-89353747D01*
X157236901Y-89353747D01*
G04 #@! TO.C,IC3*
X155230861Y-84273747D02*
X155230861Y-83270727D01*
X156281644Y-84178221D02*
X156233881Y-84225984D01*
X156090592Y-84273747D01*
X155995067Y-84273747D01*
X155851778Y-84225984D01*
X155756252Y-84130458D01*
X155708490Y-84034932D01*
X155660727Y-83843881D01*
X155660727Y-83700592D01*
X155708490Y-83509541D01*
X155756252Y-83414015D01*
X155851778Y-83318490D01*
X155995067Y-83270727D01*
X156090592Y-83270727D01*
X156233881Y-83318490D01*
X156281644Y-83366252D01*
X156615984Y-83270727D02*
X157236901Y-83270727D01*
X156902561Y-83652830D01*
X157045850Y-83652830D01*
X157141375Y-83700592D01*
X157189138Y-83748355D01*
X157236901Y-83843881D01*
X157236901Y-84082695D01*
X157189138Y-84178221D01*
X157141375Y-84225984D01*
X157045850Y-84273747D01*
X156759272Y-84273747D01*
X156663747Y-84225984D01*
X156615984Y-84178221D01*
G04 #@! TO.C,IC4*
X155230861Y-78873747D02*
X155230861Y-77870727D01*
X156281644Y-78778221D02*
X156233881Y-78825984D01*
X156090592Y-78873747D01*
X155995067Y-78873747D01*
X155851778Y-78825984D01*
X155756252Y-78730458D01*
X155708490Y-78634932D01*
X155660727Y-78443881D01*
X155660727Y-78300592D01*
X155708490Y-78109541D01*
X155756252Y-78014015D01*
X155851778Y-77918490D01*
X155995067Y-77870727D01*
X156090592Y-77870727D01*
X156233881Y-77918490D01*
X156281644Y-77966252D01*
X157141375Y-78205067D02*
X157141375Y-78873747D01*
X156902561Y-77822964D02*
X156663747Y-78539407D01*
X157284664Y-78539407D01*
G04 #@! TO.C,IC5*
X167295861Y-84273747D02*
X167295861Y-83270727D01*
X168346644Y-84178221D02*
X168298881Y-84225984D01*
X168155592Y-84273747D01*
X168060067Y-84273747D01*
X167916778Y-84225984D01*
X167821252Y-84130458D01*
X167773490Y-84034932D01*
X167725727Y-83843881D01*
X167725727Y-83700592D01*
X167773490Y-83509541D01*
X167821252Y-83414015D01*
X167916778Y-83318490D01*
X168060067Y-83270727D01*
X168155592Y-83270727D01*
X168298881Y-83318490D01*
X168346644Y-83366252D01*
X169254138Y-83270727D02*
X168776510Y-83270727D01*
X168728747Y-83748355D01*
X168776510Y-83700592D01*
X168872035Y-83652830D01*
X169110850Y-83652830D01*
X169206375Y-83700592D01*
X169254138Y-83748355D01*
X169301901Y-83843881D01*
X169301901Y-84082695D01*
X169254138Y-84178221D01*
X169206375Y-84225984D01*
X169110850Y-84273747D01*
X168872035Y-84273747D01*
X168776510Y-84225984D01*
X168728747Y-84178221D01*
G04 #@! TO.C,IC6*
X167295861Y-89353747D02*
X167295861Y-88350727D01*
X168346644Y-89258221D02*
X168298881Y-89305984D01*
X168155592Y-89353747D01*
X168060067Y-89353747D01*
X167916778Y-89305984D01*
X167821252Y-89210458D01*
X167773490Y-89114932D01*
X167725727Y-88923881D01*
X167725727Y-88780592D01*
X167773490Y-88589541D01*
X167821252Y-88494015D01*
X167916778Y-88398490D01*
X168060067Y-88350727D01*
X168155592Y-88350727D01*
X168298881Y-88398490D01*
X168346644Y-88446252D01*
X169206375Y-88350727D02*
X169015324Y-88350727D01*
X168919798Y-88398490D01*
X168872035Y-88446252D01*
X168776510Y-88589541D01*
X168728747Y-88780592D01*
X168728747Y-89162695D01*
X168776510Y-89258221D01*
X168824272Y-89305984D01*
X168919798Y-89353747D01*
X169110850Y-89353747D01*
X169206375Y-89305984D01*
X169254138Y-89258221D01*
X169301901Y-89162695D01*
X169301901Y-88923881D01*
X169254138Y-88828355D01*
X169206375Y-88780592D01*
X169110850Y-88732830D01*
X168919798Y-88732830D01*
X168824272Y-88780592D01*
X168776510Y-88828355D01*
X168728747Y-88923881D01*
G04 #@! TO.C,J1*
D14*
X133016666Y-96202380D02*
X133016666Y-96916666D01*
X132969047Y-97059523D01*
X132873809Y-97154761D01*
X132730952Y-97202380D01*
X132635714Y-97202380D01*
X134016666Y-97202380D02*
X133445238Y-97202380D01*
X133730952Y-97202380D02*
X133730952Y-96202380D01*
X133635714Y-96345238D01*
X133540476Y-96440476D01*
X133445238Y-96488095D01*
G04 #@! TO.C,JP1*
X137581666Y-78207380D02*
X137581666Y-78921666D01*
X137534047Y-79064523D01*
X137438809Y-79159761D01*
X137295952Y-79207380D01*
X137200714Y-79207380D01*
X138057857Y-79207380D02*
X138057857Y-78207380D01*
X138438809Y-78207380D01*
X138534047Y-78255000D01*
X138581666Y-78302619D01*
X138629285Y-78397857D01*
X138629285Y-78540714D01*
X138581666Y-78635952D01*
X138534047Y-78683571D01*
X138438809Y-78731190D01*
X138057857Y-78731190D01*
X139581666Y-79207380D02*
X139010238Y-79207380D01*
X139295952Y-79207380D02*
X139295952Y-78207380D01*
X139200714Y-78350238D01*
X139105476Y-78445476D01*
X139010238Y-78493095D01*
G04 #@! TO.C,JP2*
X137611666Y-73127380D02*
X137611666Y-73841666D01*
X137564047Y-73984523D01*
X137468809Y-74079761D01*
X137325952Y-74127380D01*
X137230714Y-74127380D01*
X138087857Y-74127380D02*
X138087857Y-73127380D01*
X138468809Y-73127380D01*
X138564047Y-73175000D01*
X138611666Y-73222619D01*
X138659285Y-73317857D01*
X138659285Y-73460714D01*
X138611666Y-73555952D01*
X138564047Y-73603571D01*
X138468809Y-73651190D01*
X138087857Y-73651190D01*
X139040238Y-73222619D02*
X139087857Y-73175000D01*
X139183095Y-73127380D01*
X139421190Y-73127380D01*
X139516428Y-73175000D01*
X139564047Y-73222619D01*
X139611666Y-73317857D01*
X139611666Y-73413095D01*
X139564047Y-73555952D01*
X138992619Y-74127380D01*
X139611666Y-74127380D01*
G04 #@! TO.C,JP3*
X137596666Y-83272380D02*
X137596666Y-83986666D01*
X137549047Y-84129523D01*
X137453809Y-84224761D01*
X137310952Y-84272380D01*
X137215714Y-84272380D01*
X138072857Y-84272380D02*
X138072857Y-83272380D01*
X138453809Y-83272380D01*
X138549047Y-83320000D01*
X138596666Y-83367619D01*
X138644285Y-83462857D01*
X138644285Y-83605714D01*
X138596666Y-83700952D01*
X138549047Y-83748571D01*
X138453809Y-83796190D01*
X138072857Y-83796190D01*
X138977619Y-83272380D02*
X139596666Y-83272380D01*
X139263333Y-83653333D01*
X139406190Y-83653333D01*
X139501428Y-83700952D01*
X139549047Y-83748571D01*
X139596666Y-83843809D01*
X139596666Y-84081904D01*
X139549047Y-84177142D01*
X139501428Y-84224761D01*
X139406190Y-84272380D01*
X139120476Y-84272380D01*
X139025238Y-84224761D01*
X138977619Y-84177142D01*
G04 #@! TO.C,JP4*
X137596666Y-94067380D02*
X137596666Y-94781666D01*
X137549047Y-94924523D01*
X137453809Y-95019761D01*
X137310952Y-95067380D01*
X137215714Y-95067380D01*
X138072857Y-95067380D02*
X138072857Y-94067380D01*
X138453809Y-94067380D01*
X138549047Y-94115000D01*
X138596666Y-94162619D01*
X138644285Y-94257857D01*
X138644285Y-94400714D01*
X138596666Y-94495952D01*
X138549047Y-94543571D01*
X138453809Y-94591190D01*
X138072857Y-94591190D01*
X139501428Y-94400714D02*
X139501428Y-95067380D01*
X139263333Y-94019761D02*
X139025238Y-94734047D01*
X139644285Y-94734047D01*
G04 #@! TO.C,JP5*
X137596666Y-88352380D02*
X137596666Y-89066666D01*
X137549047Y-89209523D01*
X137453809Y-89304761D01*
X137310952Y-89352380D01*
X137215714Y-89352380D01*
X138072857Y-89352380D02*
X138072857Y-88352380D01*
X138453809Y-88352380D01*
X138549047Y-88400000D01*
X138596666Y-88447619D01*
X138644285Y-88542857D01*
X138644285Y-88685714D01*
X138596666Y-88780952D01*
X138549047Y-88828571D01*
X138453809Y-88876190D01*
X138072857Y-88876190D01*
X139549047Y-88352380D02*
X139072857Y-88352380D01*
X139025238Y-88828571D01*
X139072857Y-88780952D01*
X139168095Y-88733333D01*
X139406190Y-88733333D01*
X139501428Y-88780952D01*
X139549047Y-88828571D01*
X139596666Y-88923809D01*
X139596666Y-89161904D01*
X139549047Y-89257142D01*
X139501428Y-89304761D01*
X139406190Y-89352380D01*
X139168095Y-89352380D01*
X139072857Y-89304761D01*
X139025238Y-89257142D01*
G04 #@! TO.C,Q1*
X149334619Y-97202338D02*
X149287000Y-97297576D01*
X149191761Y-97392814D01*
X149048904Y-97535671D01*
X149001285Y-97630909D01*
X149001285Y-97726147D01*
X149239380Y-97678528D02*
X149191761Y-97773766D01*
X149096523Y-97869004D01*
X148906047Y-97916623D01*
X148572714Y-97916623D01*
X148382238Y-97869004D01*
X148287000Y-97773766D01*
X148239380Y-97678528D01*
X148239380Y-97488052D01*
X148287000Y-97392814D01*
X148382238Y-97297576D01*
X148572714Y-97249957D01*
X148906047Y-97249957D01*
X149096523Y-97297576D01*
X149191761Y-97392814D01*
X149239380Y-97488052D01*
X149239380Y-97678528D01*
X149239380Y-96297576D02*
X149239380Y-96869004D01*
X149239380Y-96583290D02*
X148239380Y-96583290D01*
X148382238Y-96678528D01*
X148477476Y-96773766D01*
X148525095Y-96869004D01*
G04 #@! TO.C,Q2*
X162197619Y-97027538D02*
X162150000Y-97122776D01*
X162054761Y-97218014D01*
X161911904Y-97360871D01*
X161864285Y-97456109D01*
X161864285Y-97551347D01*
X162102380Y-97503728D02*
X162054761Y-97598966D01*
X161959523Y-97694204D01*
X161769047Y-97741823D01*
X161435714Y-97741823D01*
X161245238Y-97694204D01*
X161150000Y-97598966D01*
X161102380Y-97503728D01*
X161102380Y-97313252D01*
X161150000Y-97218014D01*
X161245238Y-97122776D01*
X161435714Y-97075157D01*
X161769047Y-97075157D01*
X161959523Y-97122776D01*
X162054761Y-97218014D01*
X162102380Y-97313252D01*
X162102380Y-97503728D01*
X161197619Y-96694204D02*
X161150000Y-96646585D01*
X161102380Y-96551347D01*
X161102380Y-96313252D01*
X161150000Y-96218014D01*
X161197619Y-96170395D01*
X161292857Y-96122776D01*
X161388095Y-96122776D01*
X161530952Y-96170395D01*
X162102380Y-96741823D01*
X162102380Y-96122776D01*
G04 #@! TO.C,Q3*
X187720619Y-86887238D02*
X187673000Y-86982476D01*
X187577761Y-87077714D01*
X187434904Y-87220571D01*
X187387285Y-87315809D01*
X187387285Y-87411047D01*
X187625380Y-87363428D02*
X187577761Y-87458666D01*
X187482523Y-87553904D01*
X187292047Y-87601523D01*
X186958714Y-87601523D01*
X186768238Y-87553904D01*
X186673000Y-87458666D01*
X186625380Y-87363428D01*
X186625380Y-87172952D01*
X186673000Y-87077714D01*
X186768238Y-86982476D01*
X186958714Y-86934857D01*
X187292047Y-86934857D01*
X187482523Y-86982476D01*
X187577761Y-87077714D01*
X187625380Y-87172952D01*
X187625380Y-87363428D01*
X186625380Y-86601523D02*
X186625380Y-85982476D01*
X187006333Y-86315809D01*
X187006333Y-86172952D01*
X187053952Y-86077714D01*
X187101571Y-86030095D01*
X187196809Y-85982476D01*
X187434904Y-85982476D01*
X187530142Y-86030095D01*
X187577761Y-86077714D01*
X187625380Y-86172952D01*
X187625380Y-86458666D01*
X187577761Y-86553904D01*
X187530142Y-86601523D01*
G04 #@! TO.C,Q4*
X187720619Y-82442238D02*
X187673000Y-82537476D01*
X187577761Y-82632714D01*
X187434904Y-82775571D01*
X187387285Y-82870809D01*
X187387285Y-82966047D01*
X187625380Y-82918428D02*
X187577761Y-83013666D01*
X187482523Y-83108904D01*
X187292047Y-83156523D01*
X186958714Y-83156523D01*
X186768238Y-83108904D01*
X186673000Y-83013666D01*
X186625380Y-82918428D01*
X186625380Y-82727952D01*
X186673000Y-82632714D01*
X186768238Y-82537476D01*
X186958714Y-82489857D01*
X187292047Y-82489857D01*
X187482523Y-82537476D01*
X187577761Y-82632714D01*
X187625380Y-82727952D01*
X187625380Y-82918428D01*
X186958714Y-81632714D02*
X187625380Y-81632714D01*
X186577761Y-81870809D02*
X187292047Y-82108904D01*
X187292047Y-81489857D01*
G04 #@! TO.C,Q5*
X144708619Y-79149138D02*
X144661000Y-79244376D01*
X144565761Y-79339614D01*
X144422904Y-79482471D01*
X144375285Y-79577709D01*
X144375285Y-79672947D01*
X144613380Y-79625328D02*
X144565761Y-79720566D01*
X144470523Y-79815804D01*
X144280047Y-79863423D01*
X143946714Y-79863423D01*
X143756238Y-79815804D01*
X143661000Y-79720566D01*
X143613380Y-79625328D01*
X143613380Y-79434852D01*
X143661000Y-79339614D01*
X143756238Y-79244376D01*
X143946714Y-79196757D01*
X144280047Y-79196757D01*
X144470523Y-79244376D01*
X144565761Y-79339614D01*
X144613380Y-79434852D01*
X144613380Y-79625328D01*
X143613380Y-78291995D02*
X143613380Y-78768185D01*
X144089571Y-78815804D01*
X144041952Y-78768185D01*
X143994333Y-78672947D01*
X143994333Y-78434852D01*
X144041952Y-78339614D01*
X144089571Y-78291995D01*
X144184809Y-78244376D01*
X144422904Y-78244376D01*
X144518142Y-78291995D01*
X144565761Y-78339614D01*
X144613380Y-78434852D01*
X144613380Y-78672947D01*
X144565761Y-78768185D01*
X144518142Y-78815804D01*
G04 #@! TO.C,Q6*
X144558619Y-74787238D02*
X144511000Y-74882476D01*
X144415761Y-74977714D01*
X144272904Y-75120571D01*
X144225285Y-75215809D01*
X144225285Y-75311047D01*
X144463380Y-75263428D02*
X144415761Y-75358666D01*
X144320523Y-75453904D01*
X144130047Y-75501523D01*
X143796714Y-75501523D01*
X143606238Y-75453904D01*
X143511000Y-75358666D01*
X143463380Y-75263428D01*
X143463380Y-75072952D01*
X143511000Y-74977714D01*
X143606238Y-74882476D01*
X143796714Y-74834857D01*
X144130047Y-74834857D01*
X144320523Y-74882476D01*
X144415761Y-74977714D01*
X144463380Y-75072952D01*
X144463380Y-75263428D01*
X143463380Y-73977714D02*
X143463380Y-74168190D01*
X143511000Y-74263428D01*
X143558619Y-74311047D01*
X143701476Y-74406285D01*
X143891952Y-74453904D01*
X144272904Y-74453904D01*
X144368142Y-74406285D01*
X144415761Y-74358666D01*
X144463380Y-74263428D01*
X144463380Y-74072952D01*
X144415761Y-73977714D01*
X144368142Y-73930095D01*
X144272904Y-73882476D01*
X144034809Y-73882476D01*
X143939571Y-73930095D01*
X143891952Y-73977714D01*
X143844333Y-74072952D01*
X143844333Y-74263428D01*
X143891952Y-74358666D01*
X143939571Y-74406285D01*
X144034809Y-74453904D01*
G04 #@! TO.C,Q7*
X171246619Y-97360338D02*
X171199000Y-97455576D01*
X171103761Y-97550814D01*
X170960904Y-97693671D01*
X170913285Y-97788909D01*
X170913285Y-97884147D01*
X171151380Y-97836528D02*
X171103761Y-97931766D01*
X171008523Y-98027004D01*
X170818047Y-98074623D01*
X170484714Y-98074623D01*
X170294238Y-98027004D01*
X170199000Y-97931766D01*
X170151380Y-97836528D01*
X170151380Y-97646052D01*
X170199000Y-97550814D01*
X170294238Y-97455576D01*
X170484714Y-97407957D01*
X170818047Y-97407957D01*
X171008523Y-97455576D01*
X171103761Y-97550814D01*
X171151380Y-97646052D01*
X171151380Y-97836528D01*
X170151380Y-97074623D02*
X170151380Y-96407957D01*
X171151380Y-96836528D01*
G04 #@! TO.C,Q8*
X188022619Y-78299138D02*
X187975000Y-78394376D01*
X187879761Y-78489614D01*
X187736904Y-78632471D01*
X187689285Y-78727709D01*
X187689285Y-78822947D01*
X187927380Y-78775328D02*
X187879761Y-78870566D01*
X187784523Y-78965804D01*
X187594047Y-79013423D01*
X187260714Y-79013423D01*
X187070238Y-78965804D01*
X186975000Y-78870566D01*
X186927380Y-78775328D01*
X186927380Y-78584852D01*
X186975000Y-78489614D01*
X187070238Y-78394376D01*
X187260714Y-78346757D01*
X187594047Y-78346757D01*
X187784523Y-78394376D01*
X187879761Y-78489614D01*
X187927380Y-78584852D01*
X187927380Y-78775328D01*
X187355952Y-77775328D02*
X187308333Y-77870566D01*
X187260714Y-77918185D01*
X187165476Y-77965804D01*
X187117857Y-77965804D01*
X187022619Y-77918185D01*
X186975000Y-77870566D01*
X186927380Y-77775328D01*
X186927380Y-77584852D01*
X186975000Y-77489614D01*
X187022619Y-77441995D01*
X187117857Y-77394376D01*
X187165476Y-77394376D01*
X187260714Y-77441995D01*
X187308333Y-77489614D01*
X187355952Y-77584852D01*
X187355952Y-77775328D01*
X187403571Y-77870566D01*
X187451190Y-77918185D01*
X187546428Y-77965804D01*
X187736904Y-77965804D01*
X187832142Y-77918185D01*
X187879761Y-77870566D01*
X187927380Y-77775328D01*
X187927380Y-77584852D01*
X187879761Y-77489614D01*
X187832142Y-77441995D01*
X187736904Y-77394376D01*
X187546428Y-77394376D01*
X187451190Y-77441995D01*
X187403571Y-77489614D01*
X187355952Y-77584852D01*
G04 #@! TO.C,Q9*
X187711619Y-95407338D02*
X187664000Y-95502576D01*
X187568761Y-95597814D01*
X187425904Y-95740671D01*
X187378285Y-95835909D01*
X187378285Y-95931147D01*
X187616380Y-95883528D02*
X187568761Y-95978766D01*
X187473523Y-96074004D01*
X187283047Y-96121623D01*
X186949714Y-96121623D01*
X186759238Y-96074004D01*
X186664000Y-95978766D01*
X186616380Y-95883528D01*
X186616380Y-95693052D01*
X186664000Y-95597814D01*
X186759238Y-95502576D01*
X186949714Y-95454957D01*
X187283047Y-95454957D01*
X187473523Y-95502576D01*
X187568761Y-95597814D01*
X187616380Y-95693052D01*
X187616380Y-95883528D01*
X187616380Y-94978766D02*
X187616380Y-94788290D01*
X187568761Y-94693052D01*
X187521142Y-94645433D01*
X187378285Y-94550195D01*
X187187809Y-94502576D01*
X186806857Y-94502576D01*
X186711619Y-94550195D01*
X186664000Y-94597814D01*
X186616380Y-94693052D01*
X186616380Y-94883528D01*
X186664000Y-94978766D01*
X186711619Y-95026385D01*
X186806857Y-95074004D01*
X187044952Y-95074004D01*
X187140190Y-95026385D01*
X187187809Y-94978766D01*
X187235428Y-94883528D01*
X187235428Y-94693052D01*
X187187809Y-94597814D01*
X187140190Y-94550195D01*
X187044952Y-94502576D01*
G04 #@! TO.C,Q10*
X176244619Y-97747328D02*
X176197000Y-97842566D01*
X176101761Y-97937804D01*
X175958904Y-98080661D01*
X175911285Y-98175900D01*
X175911285Y-98271138D01*
X176149380Y-98223519D02*
X176101761Y-98318757D01*
X176006523Y-98413995D01*
X175816047Y-98461614D01*
X175482714Y-98461614D01*
X175292238Y-98413995D01*
X175197000Y-98318757D01*
X175149380Y-98223519D01*
X175149380Y-98033042D01*
X175197000Y-97937804D01*
X175292238Y-97842566D01*
X175482714Y-97794947D01*
X175816047Y-97794947D01*
X176006523Y-97842566D01*
X176101761Y-97937804D01*
X176149380Y-98033042D01*
X176149380Y-98223519D01*
X176149380Y-96842566D02*
X176149380Y-97413995D01*
X176149380Y-97128280D02*
X175149380Y-97128280D01*
X175292238Y-97223519D01*
X175387476Y-97318757D01*
X175435095Y-97413995D01*
X175149380Y-96223519D02*
X175149380Y-96128280D01*
X175197000Y-96033042D01*
X175244619Y-95985423D01*
X175339857Y-95937804D01*
X175530333Y-95890185D01*
X175768428Y-95890185D01*
X175958904Y-95937804D01*
X176054142Y-95985423D01*
X176101761Y-96033042D01*
X176149380Y-96128280D01*
X176149380Y-96223519D01*
X176101761Y-96318757D01*
X176054142Y-96366376D01*
X175958904Y-96413995D01*
X175768428Y-96461614D01*
X175530333Y-96461614D01*
X175339857Y-96413995D01*
X175244619Y-96366376D01*
X175197000Y-96318757D01*
X175149380Y-96223519D01*
G04 #@! TO.C,Q11*
X188022619Y-75235328D02*
X187975000Y-75330566D01*
X187879761Y-75425804D01*
X187736904Y-75568661D01*
X187689285Y-75663900D01*
X187689285Y-75759138D01*
X187927380Y-75711519D02*
X187879761Y-75806757D01*
X187784523Y-75901995D01*
X187594047Y-75949614D01*
X187260714Y-75949614D01*
X187070238Y-75901995D01*
X186975000Y-75806757D01*
X186927380Y-75711519D01*
X186927380Y-75521042D01*
X186975000Y-75425804D01*
X187070238Y-75330566D01*
X187260714Y-75282947D01*
X187594047Y-75282947D01*
X187784523Y-75330566D01*
X187879761Y-75425804D01*
X187927380Y-75521042D01*
X187927380Y-75711519D01*
X187927380Y-74330566D02*
X187927380Y-74901995D01*
X187927380Y-74616280D02*
X186927380Y-74616280D01*
X187070238Y-74711519D01*
X187165476Y-74806757D01*
X187213095Y-74901995D01*
X187927380Y-73378185D02*
X187927380Y-73949614D01*
X187927380Y-73663900D02*
X186927380Y-73663900D01*
X187070238Y-73759138D01*
X187165476Y-73854376D01*
X187213095Y-73949614D01*
G04 #@! TO.C,Q12*
X187711619Y-92073528D02*
X187664000Y-92168766D01*
X187568761Y-92264004D01*
X187425904Y-92406861D01*
X187378285Y-92502100D01*
X187378285Y-92597338D01*
X187616380Y-92549719D02*
X187568761Y-92644957D01*
X187473523Y-92740195D01*
X187283047Y-92787814D01*
X186949714Y-92787814D01*
X186759238Y-92740195D01*
X186664000Y-92644957D01*
X186616380Y-92549719D01*
X186616380Y-92359242D01*
X186664000Y-92264004D01*
X186759238Y-92168766D01*
X186949714Y-92121147D01*
X187283047Y-92121147D01*
X187473523Y-92168766D01*
X187568761Y-92264004D01*
X187616380Y-92359242D01*
X187616380Y-92549719D01*
X187616380Y-91168766D02*
X187616380Y-91740195D01*
X187616380Y-91454480D02*
X186616380Y-91454480D01*
X186759238Y-91549719D01*
X186854476Y-91644957D01*
X186902095Y-91740195D01*
X186711619Y-90787814D02*
X186664000Y-90740195D01*
X186616380Y-90644957D01*
X186616380Y-90406861D01*
X186664000Y-90311623D01*
X186711619Y-90264004D01*
X186806857Y-90216385D01*
X186902095Y-90216385D01*
X187044952Y-90264004D01*
X187616380Y-90835433D01*
X187616380Y-90216385D01*
G04 #@! TO.C,R1*
D12*
X180216666Y-80100476D02*
X180150000Y-80005238D01*
X180102380Y-80100476D02*
X180102380Y-79900476D01*
X180178571Y-79900476D01*
X180197619Y-79910000D01*
X180207142Y-79919523D01*
X180216666Y-79938571D01*
X180216666Y-79967142D01*
X180207142Y-79986190D01*
X180197619Y-79995714D01*
X180178571Y-80005238D01*
X180102380Y-80005238D01*
X180407142Y-80100476D02*
X180292857Y-80100476D01*
X180350000Y-80100476D02*
X180350000Y-79900476D01*
X180330952Y-79929047D01*
X180311904Y-79948095D01*
X180292857Y-79957619D01*
G04 #@! TO.C,R2*
X181551666Y-80100476D02*
X181485000Y-80005238D01*
X181437380Y-80100476D02*
X181437380Y-79900476D01*
X181513571Y-79900476D01*
X181532619Y-79910000D01*
X181542142Y-79919523D01*
X181551666Y-79938571D01*
X181551666Y-79967142D01*
X181542142Y-79986190D01*
X181532619Y-79995714D01*
X181513571Y-80005238D01*
X181437380Y-80005238D01*
X181627857Y-79919523D02*
X181637380Y-79910000D01*
X181656428Y-79900476D01*
X181704047Y-79900476D01*
X181723095Y-79910000D01*
X181732619Y-79919523D01*
X181742142Y-79938571D01*
X181742142Y-79957619D01*
X181732619Y-79986190D01*
X181618333Y-80100476D01*
X181742142Y-80100476D01*
G04 #@! TO.C,R3*
X182629666Y-81786476D02*
X182563000Y-81691238D01*
X182515380Y-81786476D02*
X182515380Y-81586476D01*
X182591571Y-81586476D01*
X182610619Y-81596000D01*
X182620142Y-81605523D01*
X182629666Y-81624571D01*
X182629666Y-81653142D01*
X182620142Y-81672190D01*
X182610619Y-81681714D01*
X182591571Y-81691238D01*
X182515380Y-81691238D01*
X182696333Y-81586476D02*
X182820142Y-81586476D01*
X182753476Y-81662666D01*
X182782047Y-81662666D01*
X182801095Y-81672190D01*
X182810619Y-81681714D01*
X182820142Y-81700761D01*
X182820142Y-81748380D01*
X182810619Y-81767428D01*
X182801095Y-81776952D01*
X182782047Y-81786476D01*
X182724904Y-81786476D01*
X182705857Y-81776952D01*
X182696333Y-81767428D01*
X182670952Y-83440476D02*
X182556666Y-83440476D01*
X182613809Y-83440476D02*
X182613809Y-83240476D01*
X182594761Y-83269047D01*
X182575714Y-83288095D01*
X182556666Y-83297619D01*
X182794761Y-83240476D02*
X182813809Y-83240476D01*
X182832857Y-83250000D01*
X182842380Y-83259523D01*
X182851904Y-83278571D01*
X182861428Y-83316666D01*
X182861428Y-83364285D01*
X182851904Y-83402380D01*
X182842380Y-83421428D01*
X182832857Y-83430952D01*
X182813809Y-83440476D01*
X182794761Y-83440476D01*
X182775714Y-83430952D01*
X182766190Y-83421428D01*
X182756666Y-83402380D01*
X182747142Y-83364285D01*
X182747142Y-83316666D01*
X182756666Y-83278571D01*
X182766190Y-83259523D01*
X182775714Y-83250000D01*
X182794761Y-83240476D01*
X182947142Y-83440476D02*
X182947142Y-83240476D01*
X182966190Y-83364285D02*
X183023333Y-83440476D01*
X183023333Y-83307142D02*
X182947142Y-83383333D01*
G04 #@! TO.C,R4*
X181064666Y-81786476D02*
X180998000Y-81691238D01*
X180950380Y-81786476D02*
X180950380Y-81586476D01*
X181026571Y-81586476D01*
X181045619Y-81596000D01*
X181055142Y-81605523D01*
X181064666Y-81624571D01*
X181064666Y-81653142D01*
X181055142Y-81672190D01*
X181045619Y-81681714D01*
X181026571Y-81691238D01*
X180950380Y-81691238D01*
X181236095Y-81653142D02*
X181236095Y-81786476D01*
X181188476Y-81576952D02*
X181140857Y-81719809D01*
X181264666Y-81719809D01*
X181105952Y-83440476D02*
X180991666Y-83440476D01*
X181048809Y-83440476D02*
X181048809Y-83240476D01*
X181029761Y-83269047D01*
X181010714Y-83288095D01*
X180991666Y-83297619D01*
X181229761Y-83240476D02*
X181248809Y-83240476D01*
X181267857Y-83250000D01*
X181277380Y-83259523D01*
X181286904Y-83278571D01*
X181296428Y-83316666D01*
X181296428Y-83364285D01*
X181286904Y-83402380D01*
X181277380Y-83421428D01*
X181267857Y-83430952D01*
X181248809Y-83440476D01*
X181229761Y-83440476D01*
X181210714Y-83430952D01*
X181201190Y-83421428D01*
X181191666Y-83402380D01*
X181182142Y-83364285D01*
X181182142Y-83316666D01*
X181191666Y-83278571D01*
X181201190Y-83259523D01*
X181210714Y-83250000D01*
X181229761Y-83240476D01*
X181382142Y-83440476D02*
X181382142Y-83240476D01*
X181401190Y-83364285D02*
X181458333Y-83440476D01*
X181458333Y-83307142D02*
X181382142Y-83383333D01*
G04 #@! TO.C,R5*
X182629666Y-84326476D02*
X182563000Y-84231238D01*
X182515380Y-84326476D02*
X182515380Y-84126476D01*
X182591571Y-84126476D01*
X182610619Y-84136000D01*
X182620142Y-84145523D01*
X182629666Y-84164571D01*
X182629666Y-84193142D01*
X182620142Y-84212190D01*
X182610619Y-84221714D01*
X182591571Y-84231238D01*
X182515380Y-84231238D01*
X182810619Y-84126476D02*
X182715380Y-84126476D01*
X182705857Y-84221714D01*
X182715380Y-84212190D01*
X182734428Y-84202666D01*
X182782047Y-84202666D01*
X182801095Y-84212190D01*
X182810619Y-84221714D01*
X182820142Y-84240761D01*
X182820142Y-84288380D01*
X182810619Y-84307428D01*
X182801095Y-84316952D01*
X182782047Y-84326476D01*
X182734428Y-84326476D01*
X182715380Y-84316952D01*
X182705857Y-84307428D01*
X182670952Y-85980476D02*
X182556666Y-85980476D01*
X182613809Y-85980476D02*
X182613809Y-85780476D01*
X182594761Y-85809047D01*
X182575714Y-85828095D01*
X182556666Y-85837619D01*
X182794761Y-85780476D02*
X182813809Y-85780476D01*
X182832857Y-85790000D01*
X182842380Y-85799523D01*
X182851904Y-85818571D01*
X182861428Y-85856666D01*
X182861428Y-85904285D01*
X182851904Y-85942380D01*
X182842380Y-85961428D01*
X182832857Y-85970952D01*
X182813809Y-85980476D01*
X182794761Y-85980476D01*
X182775714Y-85970952D01*
X182766190Y-85961428D01*
X182756666Y-85942380D01*
X182747142Y-85904285D01*
X182747142Y-85856666D01*
X182756666Y-85818571D01*
X182766190Y-85799523D01*
X182775714Y-85790000D01*
X182794761Y-85780476D01*
X182947142Y-85980476D02*
X182947142Y-85780476D01*
X182966190Y-85904285D02*
X183023333Y-85980476D01*
X183023333Y-85847142D02*
X182947142Y-85923333D01*
G04 #@! TO.C,R6*
X182629666Y-86866476D02*
X182563000Y-86771238D01*
X182515380Y-86866476D02*
X182515380Y-86666476D01*
X182591571Y-86666476D01*
X182610619Y-86676000D01*
X182620142Y-86685523D01*
X182629666Y-86704571D01*
X182629666Y-86733142D01*
X182620142Y-86752190D01*
X182610619Y-86761714D01*
X182591571Y-86771238D01*
X182515380Y-86771238D01*
X182801095Y-86666476D02*
X182763000Y-86666476D01*
X182743952Y-86676000D01*
X182734428Y-86685523D01*
X182715380Y-86714095D01*
X182705857Y-86752190D01*
X182705857Y-86828380D01*
X182715380Y-86847428D01*
X182724904Y-86856952D01*
X182743952Y-86866476D01*
X182782047Y-86866476D01*
X182801095Y-86856952D01*
X182810619Y-86847428D01*
X182820142Y-86828380D01*
X182820142Y-86780761D01*
X182810619Y-86761714D01*
X182801095Y-86752190D01*
X182782047Y-86742666D01*
X182743952Y-86742666D01*
X182724904Y-86752190D01*
X182715380Y-86761714D01*
X182705857Y-86780761D01*
X182670952Y-88520476D02*
X182556666Y-88520476D01*
X182613809Y-88520476D02*
X182613809Y-88320476D01*
X182594761Y-88349047D01*
X182575714Y-88368095D01*
X182556666Y-88377619D01*
X182794761Y-88320476D02*
X182813809Y-88320476D01*
X182832857Y-88330000D01*
X182842380Y-88339523D01*
X182851904Y-88358571D01*
X182861428Y-88396666D01*
X182861428Y-88444285D01*
X182851904Y-88482380D01*
X182842380Y-88501428D01*
X182832857Y-88510952D01*
X182813809Y-88520476D01*
X182794761Y-88520476D01*
X182775714Y-88510952D01*
X182766190Y-88501428D01*
X182756666Y-88482380D01*
X182747142Y-88444285D01*
X182747142Y-88396666D01*
X182756666Y-88358571D01*
X182766190Y-88339523D01*
X182775714Y-88330000D01*
X182794761Y-88320476D01*
X182947142Y-88520476D02*
X182947142Y-88320476D01*
X182966190Y-88444285D02*
X183023333Y-88520476D01*
X183023333Y-88387142D02*
X182947142Y-88463333D01*
G04 #@! TO.C,R7*
X181089666Y-86866476D02*
X181023000Y-86771238D01*
X180975380Y-86866476D02*
X180975380Y-86666476D01*
X181051571Y-86666476D01*
X181070619Y-86676000D01*
X181080142Y-86685523D01*
X181089666Y-86704571D01*
X181089666Y-86733142D01*
X181080142Y-86752190D01*
X181070619Y-86761714D01*
X181051571Y-86771238D01*
X180975380Y-86771238D01*
X181156333Y-86666476D02*
X181289666Y-86666476D01*
X181203952Y-86866476D01*
X181130952Y-88520476D02*
X181016666Y-88520476D01*
X181073809Y-88520476D02*
X181073809Y-88320476D01*
X181054761Y-88349047D01*
X181035714Y-88368095D01*
X181016666Y-88377619D01*
X181254761Y-88320476D02*
X181273809Y-88320476D01*
X181292857Y-88330000D01*
X181302380Y-88339523D01*
X181311904Y-88358571D01*
X181321428Y-88396666D01*
X181321428Y-88444285D01*
X181311904Y-88482380D01*
X181302380Y-88501428D01*
X181292857Y-88510952D01*
X181273809Y-88520476D01*
X181254761Y-88520476D01*
X181235714Y-88510952D01*
X181226190Y-88501428D01*
X181216666Y-88482380D01*
X181207142Y-88444285D01*
X181207142Y-88396666D01*
X181216666Y-88358571D01*
X181226190Y-88339523D01*
X181235714Y-88330000D01*
X181254761Y-88320476D01*
X181407142Y-88520476D02*
X181407142Y-88320476D01*
X181426190Y-88444285D02*
X181483333Y-88520476D01*
X181483333Y-88387142D02*
X181407142Y-88463333D01*
G04 #@! TO.C,R8*
X182629666Y-89406476D02*
X182563000Y-89311238D01*
X182515380Y-89406476D02*
X182515380Y-89206476D01*
X182591571Y-89206476D01*
X182610619Y-89216000D01*
X182620142Y-89225523D01*
X182629666Y-89244571D01*
X182629666Y-89273142D01*
X182620142Y-89292190D01*
X182610619Y-89301714D01*
X182591571Y-89311238D01*
X182515380Y-89311238D01*
X182743952Y-89292190D02*
X182724904Y-89282666D01*
X182715380Y-89273142D01*
X182705857Y-89254095D01*
X182705857Y-89244571D01*
X182715380Y-89225523D01*
X182724904Y-89216000D01*
X182743952Y-89206476D01*
X182782047Y-89206476D01*
X182801095Y-89216000D01*
X182810619Y-89225523D01*
X182820142Y-89244571D01*
X182820142Y-89254095D01*
X182810619Y-89273142D01*
X182801095Y-89282666D01*
X182782047Y-89292190D01*
X182743952Y-89292190D01*
X182724904Y-89301714D01*
X182715380Y-89311238D01*
X182705857Y-89330285D01*
X182705857Y-89368380D01*
X182715380Y-89387428D01*
X182724904Y-89396952D01*
X182743952Y-89406476D01*
X182782047Y-89406476D01*
X182801095Y-89396952D01*
X182810619Y-89387428D01*
X182820142Y-89368380D01*
X182820142Y-89330285D01*
X182810619Y-89311238D01*
X182801095Y-89301714D01*
X182782047Y-89292190D01*
X182670952Y-91060476D02*
X182556666Y-91060476D01*
X182613809Y-91060476D02*
X182613809Y-90860476D01*
X182594761Y-90889047D01*
X182575714Y-90908095D01*
X182556666Y-90917619D01*
X182794761Y-90860476D02*
X182813809Y-90860476D01*
X182832857Y-90870000D01*
X182842380Y-90879523D01*
X182851904Y-90898571D01*
X182861428Y-90936666D01*
X182861428Y-90984285D01*
X182851904Y-91022380D01*
X182842380Y-91041428D01*
X182832857Y-91050952D01*
X182813809Y-91060476D01*
X182794761Y-91060476D01*
X182775714Y-91050952D01*
X182766190Y-91041428D01*
X182756666Y-91022380D01*
X182747142Y-90984285D01*
X182747142Y-90936666D01*
X182756666Y-90898571D01*
X182766190Y-90879523D01*
X182775714Y-90870000D01*
X182794761Y-90860476D01*
X182947142Y-91060476D02*
X182947142Y-90860476D01*
X182966190Y-90984285D02*
X183023333Y-91060476D01*
X183023333Y-90927142D02*
X182947142Y-91003333D01*
G04 #@! TO.C,R9*
X181029666Y-89406476D02*
X180963000Y-89311238D01*
X180915380Y-89406476D02*
X180915380Y-89206476D01*
X180991571Y-89206476D01*
X181010619Y-89216000D01*
X181020142Y-89225523D01*
X181029666Y-89244571D01*
X181029666Y-89273142D01*
X181020142Y-89292190D01*
X181010619Y-89301714D01*
X180991571Y-89311238D01*
X180915380Y-89311238D01*
X181124904Y-89406476D02*
X181163000Y-89406476D01*
X181182047Y-89396952D01*
X181191571Y-89387428D01*
X181210619Y-89358857D01*
X181220142Y-89320761D01*
X181220142Y-89244571D01*
X181210619Y-89225523D01*
X181201095Y-89216000D01*
X181182047Y-89206476D01*
X181143952Y-89206476D01*
X181124904Y-89216000D01*
X181115380Y-89225523D01*
X181105857Y-89244571D01*
X181105857Y-89292190D01*
X181115380Y-89311238D01*
X181124904Y-89320761D01*
X181143952Y-89330285D01*
X181182047Y-89330285D01*
X181201095Y-89320761D01*
X181210619Y-89311238D01*
X181220142Y-89292190D01*
X181070952Y-91060476D02*
X180956666Y-91060476D01*
X181013809Y-91060476D02*
X181013809Y-90860476D01*
X180994761Y-90889047D01*
X180975714Y-90908095D01*
X180956666Y-90917619D01*
X181194761Y-90860476D02*
X181213809Y-90860476D01*
X181232857Y-90870000D01*
X181242380Y-90879523D01*
X181251904Y-90898571D01*
X181261428Y-90936666D01*
X181261428Y-90984285D01*
X181251904Y-91022380D01*
X181242380Y-91041428D01*
X181232857Y-91050952D01*
X181213809Y-91060476D01*
X181194761Y-91060476D01*
X181175714Y-91050952D01*
X181166190Y-91041428D01*
X181156666Y-91022380D01*
X181147142Y-90984285D01*
X181147142Y-90936666D01*
X181156666Y-90898571D01*
X181166190Y-90879523D01*
X181175714Y-90870000D01*
X181194761Y-90860476D01*
X181347142Y-91060476D02*
X181347142Y-90860476D01*
X181366190Y-90984285D02*
X181423333Y-91060476D01*
X181423333Y-90927142D02*
X181347142Y-91003333D01*
G04 #@! TO.C,R10*
X182534428Y-91946476D02*
X182467761Y-91851238D01*
X182420142Y-91946476D02*
X182420142Y-91746476D01*
X182496333Y-91746476D01*
X182515380Y-91756000D01*
X182524904Y-91765523D01*
X182534428Y-91784571D01*
X182534428Y-91813142D01*
X182524904Y-91832190D01*
X182515380Y-91841714D01*
X182496333Y-91851238D01*
X182420142Y-91851238D01*
X182724904Y-91946476D02*
X182610619Y-91946476D01*
X182667761Y-91946476D02*
X182667761Y-91746476D01*
X182648714Y-91775047D01*
X182629666Y-91794095D01*
X182610619Y-91803619D01*
X182848714Y-91746476D02*
X182867761Y-91746476D01*
X182886809Y-91756000D01*
X182896333Y-91765523D01*
X182905857Y-91784571D01*
X182915380Y-91822666D01*
X182915380Y-91870285D01*
X182905857Y-91908380D01*
X182896333Y-91927428D01*
X182886809Y-91936952D01*
X182867761Y-91946476D01*
X182848714Y-91946476D01*
X182829666Y-91936952D01*
X182820142Y-91927428D01*
X182810619Y-91908380D01*
X182801095Y-91870285D01*
X182801095Y-91822666D01*
X182810619Y-91784571D01*
X182820142Y-91765523D01*
X182829666Y-91756000D01*
X182848714Y-91746476D01*
X182670952Y-93600476D02*
X182556666Y-93600476D01*
X182613809Y-93600476D02*
X182613809Y-93400476D01*
X182594761Y-93429047D01*
X182575714Y-93448095D01*
X182556666Y-93457619D01*
X182794761Y-93400476D02*
X182813809Y-93400476D01*
X182832857Y-93410000D01*
X182842380Y-93419523D01*
X182851904Y-93438571D01*
X182861428Y-93476666D01*
X182861428Y-93524285D01*
X182851904Y-93562380D01*
X182842380Y-93581428D01*
X182832857Y-93590952D01*
X182813809Y-93600476D01*
X182794761Y-93600476D01*
X182775714Y-93590952D01*
X182766190Y-93581428D01*
X182756666Y-93562380D01*
X182747142Y-93524285D01*
X182747142Y-93476666D01*
X182756666Y-93438571D01*
X182766190Y-93419523D01*
X182775714Y-93410000D01*
X182794761Y-93400476D01*
X182947142Y-93600476D02*
X182947142Y-93400476D01*
X182966190Y-93524285D02*
X183023333Y-93600476D01*
X183023333Y-93467142D02*
X182947142Y-93543333D01*
G04 #@! TO.C,R11*
X180939428Y-91946476D02*
X180872761Y-91851238D01*
X180825142Y-91946476D02*
X180825142Y-91746476D01*
X180901333Y-91746476D01*
X180920380Y-91756000D01*
X180929904Y-91765523D01*
X180939428Y-91784571D01*
X180939428Y-91813142D01*
X180929904Y-91832190D01*
X180920380Y-91841714D01*
X180901333Y-91851238D01*
X180825142Y-91851238D01*
X181129904Y-91946476D02*
X181015619Y-91946476D01*
X181072761Y-91946476D02*
X181072761Y-91746476D01*
X181053714Y-91775047D01*
X181034666Y-91794095D01*
X181015619Y-91803619D01*
X181320380Y-91946476D02*
X181206095Y-91946476D01*
X181263238Y-91946476D02*
X181263238Y-91746476D01*
X181244190Y-91775047D01*
X181225142Y-91794095D01*
X181206095Y-91803619D01*
X181075952Y-93600476D02*
X180961666Y-93600476D01*
X181018809Y-93600476D02*
X181018809Y-93400476D01*
X180999761Y-93429047D01*
X180980714Y-93448095D01*
X180961666Y-93457619D01*
X181199761Y-93400476D02*
X181218809Y-93400476D01*
X181237857Y-93410000D01*
X181247380Y-93419523D01*
X181256904Y-93438571D01*
X181266428Y-93476666D01*
X181266428Y-93524285D01*
X181256904Y-93562380D01*
X181247380Y-93581428D01*
X181237857Y-93590952D01*
X181218809Y-93600476D01*
X181199761Y-93600476D01*
X181180714Y-93590952D01*
X181171190Y-93581428D01*
X181161666Y-93562380D01*
X181152142Y-93524285D01*
X181152142Y-93476666D01*
X181161666Y-93438571D01*
X181171190Y-93419523D01*
X181180714Y-93410000D01*
X181199761Y-93400476D01*
X181352142Y-93600476D02*
X181352142Y-93400476D01*
X181371190Y-93524285D02*
X181428333Y-93600476D01*
X181428333Y-93467142D02*
X181352142Y-93543333D01*
G04 #@! TO.C,R12*
X151444428Y-83691476D02*
X151377761Y-83596238D01*
X151330142Y-83691476D02*
X151330142Y-83491476D01*
X151406333Y-83491476D01*
X151425380Y-83501000D01*
X151434904Y-83510523D01*
X151444428Y-83529571D01*
X151444428Y-83558142D01*
X151434904Y-83577190D01*
X151425380Y-83586714D01*
X151406333Y-83596238D01*
X151330142Y-83596238D01*
X151634904Y-83691476D02*
X151520619Y-83691476D01*
X151577761Y-83691476D02*
X151577761Y-83491476D01*
X151558714Y-83520047D01*
X151539666Y-83539095D01*
X151520619Y-83548619D01*
X151711095Y-83510523D02*
X151720619Y-83501000D01*
X151739666Y-83491476D01*
X151787285Y-83491476D01*
X151806333Y-83501000D01*
X151815857Y-83510523D01*
X151825380Y-83529571D01*
X151825380Y-83548619D01*
X151815857Y-83577190D01*
X151701571Y-83691476D01*
X151825380Y-83691476D01*
X151580952Y-85345476D02*
X151466666Y-85345476D01*
X151523809Y-85345476D02*
X151523809Y-85145476D01*
X151504761Y-85174047D01*
X151485714Y-85193095D01*
X151466666Y-85202619D01*
X151704761Y-85145476D02*
X151723809Y-85145476D01*
X151742857Y-85155000D01*
X151752380Y-85164523D01*
X151761904Y-85183571D01*
X151771428Y-85221666D01*
X151771428Y-85269285D01*
X151761904Y-85307380D01*
X151752380Y-85326428D01*
X151742857Y-85335952D01*
X151723809Y-85345476D01*
X151704761Y-85345476D01*
X151685714Y-85335952D01*
X151676190Y-85326428D01*
X151666666Y-85307380D01*
X151657142Y-85269285D01*
X151657142Y-85221666D01*
X151666666Y-85183571D01*
X151676190Y-85164523D01*
X151685714Y-85155000D01*
X151704761Y-85145476D01*
X151857142Y-85345476D02*
X151857142Y-85145476D01*
X151876190Y-85269285D02*
X151933333Y-85345476D01*
X151933333Y-85212142D02*
X151857142Y-85288333D01*
G04 #@! TO.C,R13*
X151444428Y-78611476D02*
X151377761Y-78516238D01*
X151330142Y-78611476D02*
X151330142Y-78411476D01*
X151406333Y-78411476D01*
X151425380Y-78421000D01*
X151434904Y-78430523D01*
X151444428Y-78449571D01*
X151444428Y-78478142D01*
X151434904Y-78497190D01*
X151425380Y-78506714D01*
X151406333Y-78516238D01*
X151330142Y-78516238D01*
X151634904Y-78611476D02*
X151520619Y-78611476D01*
X151577761Y-78611476D02*
X151577761Y-78411476D01*
X151558714Y-78440047D01*
X151539666Y-78459095D01*
X151520619Y-78468619D01*
X151701571Y-78411476D02*
X151825380Y-78411476D01*
X151758714Y-78487666D01*
X151787285Y-78487666D01*
X151806333Y-78497190D01*
X151815857Y-78506714D01*
X151825380Y-78525761D01*
X151825380Y-78573380D01*
X151815857Y-78592428D01*
X151806333Y-78601952D01*
X151787285Y-78611476D01*
X151730142Y-78611476D01*
X151711095Y-78601952D01*
X151701571Y-78592428D01*
X151580952Y-80265476D02*
X151466666Y-80265476D01*
X151523809Y-80265476D02*
X151523809Y-80065476D01*
X151504761Y-80094047D01*
X151485714Y-80113095D01*
X151466666Y-80122619D01*
X151704761Y-80065476D02*
X151723809Y-80065476D01*
X151742857Y-80075000D01*
X151752380Y-80084523D01*
X151761904Y-80103571D01*
X151771428Y-80141666D01*
X151771428Y-80189285D01*
X151761904Y-80227380D01*
X151752380Y-80246428D01*
X151742857Y-80255952D01*
X151723809Y-80265476D01*
X151704761Y-80265476D01*
X151685714Y-80255952D01*
X151676190Y-80246428D01*
X151666666Y-80227380D01*
X151657142Y-80189285D01*
X151657142Y-80141666D01*
X151666666Y-80103571D01*
X151676190Y-80084523D01*
X151685714Y-80075000D01*
X151704761Y-80065476D01*
X151857142Y-80265476D02*
X151857142Y-80065476D01*
X151876190Y-80189285D02*
X151933333Y-80265476D01*
X151933333Y-80132142D02*
X151857142Y-80208333D01*
G04 #@! TO.C,R14*
X151444428Y-81151476D02*
X151377761Y-81056238D01*
X151330142Y-81151476D02*
X151330142Y-80951476D01*
X151406333Y-80951476D01*
X151425380Y-80961000D01*
X151434904Y-80970523D01*
X151444428Y-80989571D01*
X151444428Y-81018142D01*
X151434904Y-81037190D01*
X151425380Y-81046714D01*
X151406333Y-81056238D01*
X151330142Y-81056238D01*
X151634904Y-81151476D02*
X151520619Y-81151476D01*
X151577761Y-81151476D02*
X151577761Y-80951476D01*
X151558714Y-80980047D01*
X151539666Y-80999095D01*
X151520619Y-81008619D01*
X151806333Y-81018142D02*
X151806333Y-81151476D01*
X151758714Y-80941952D02*
X151711095Y-81084809D01*
X151834904Y-81084809D01*
X151580952Y-82805476D02*
X151466666Y-82805476D01*
X151523809Y-82805476D02*
X151523809Y-82605476D01*
X151504761Y-82634047D01*
X151485714Y-82653095D01*
X151466666Y-82662619D01*
X151704761Y-82605476D02*
X151723809Y-82605476D01*
X151742857Y-82615000D01*
X151752380Y-82624523D01*
X151761904Y-82643571D01*
X151771428Y-82681666D01*
X151771428Y-82729285D01*
X151761904Y-82767380D01*
X151752380Y-82786428D01*
X151742857Y-82795952D01*
X151723809Y-82805476D01*
X151704761Y-82805476D01*
X151685714Y-82795952D01*
X151676190Y-82786428D01*
X151666666Y-82767380D01*
X151657142Y-82729285D01*
X151657142Y-82681666D01*
X151666666Y-82643571D01*
X151676190Y-82624523D01*
X151685714Y-82615000D01*
X151704761Y-82605476D01*
X151857142Y-82805476D02*
X151857142Y-82605476D01*
X151876190Y-82729285D02*
X151933333Y-82805476D01*
X151933333Y-82672142D02*
X151857142Y-82748333D01*
G04 #@! TO.C,R15*
X180989428Y-84326476D02*
X180922761Y-84231238D01*
X180875142Y-84326476D02*
X180875142Y-84126476D01*
X180951333Y-84126476D01*
X180970380Y-84136000D01*
X180979904Y-84145523D01*
X180989428Y-84164571D01*
X180989428Y-84193142D01*
X180979904Y-84212190D01*
X180970380Y-84221714D01*
X180951333Y-84231238D01*
X180875142Y-84231238D01*
X181179904Y-84326476D02*
X181065619Y-84326476D01*
X181122761Y-84326476D02*
X181122761Y-84126476D01*
X181103714Y-84155047D01*
X181084666Y-84174095D01*
X181065619Y-84183619D01*
X181360857Y-84126476D02*
X181265619Y-84126476D01*
X181256095Y-84221714D01*
X181265619Y-84212190D01*
X181284666Y-84202666D01*
X181332285Y-84202666D01*
X181351333Y-84212190D01*
X181360857Y-84221714D01*
X181370380Y-84240761D01*
X181370380Y-84288380D01*
X181360857Y-84307428D01*
X181351333Y-84316952D01*
X181332285Y-84326476D01*
X181284666Y-84326476D01*
X181265619Y-84316952D01*
X181256095Y-84307428D01*
X181125952Y-85980476D02*
X181011666Y-85980476D01*
X181068809Y-85980476D02*
X181068809Y-85780476D01*
X181049761Y-85809047D01*
X181030714Y-85828095D01*
X181011666Y-85837619D01*
X181249761Y-85780476D02*
X181268809Y-85780476D01*
X181287857Y-85790000D01*
X181297380Y-85799523D01*
X181306904Y-85818571D01*
X181316428Y-85856666D01*
X181316428Y-85904285D01*
X181306904Y-85942380D01*
X181297380Y-85961428D01*
X181287857Y-85970952D01*
X181268809Y-85980476D01*
X181249761Y-85980476D01*
X181230714Y-85970952D01*
X181221190Y-85961428D01*
X181211666Y-85942380D01*
X181202142Y-85904285D01*
X181202142Y-85856666D01*
X181211666Y-85818571D01*
X181221190Y-85799523D01*
X181230714Y-85790000D01*
X181249761Y-85780476D01*
X181402142Y-85980476D02*
X181402142Y-85780476D01*
X181421190Y-85904285D02*
X181478333Y-85980476D01*
X181478333Y-85847142D02*
X181402142Y-85923333D01*
G04 #@! TO.C,R16*
X146816428Y-96343576D02*
X146749761Y-96248338D01*
X146702142Y-96343576D02*
X146702142Y-96143576D01*
X146778333Y-96143576D01*
X146797380Y-96153100D01*
X146806904Y-96162623D01*
X146816428Y-96181671D01*
X146816428Y-96210242D01*
X146806904Y-96229290D01*
X146797380Y-96238814D01*
X146778333Y-96248338D01*
X146702142Y-96248338D01*
X147006904Y-96343576D02*
X146892619Y-96343576D01*
X146949761Y-96343576D02*
X146949761Y-96143576D01*
X146930714Y-96172147D01*
X146911666Y-96191195D01*
X146892619Y-96200719D01*
X147178333Y-96143576D02*
X147140238Y-96143576D01*
X147121190Y-96153100D01*
X147111666Y-96162623D01*
X147092619Y-96191195D01*
X147083095Y-96229290D01*
X147083095Y-96305480D01*
X147092619Y-96324528D01*
X147102142Y-96334052D01*
X147121190Y-96343576D01*
X147159285Y-96343576D01*
X147178333Y-96334052D01*
X147187857Y-96324528D01*
X147197380Y-96305480D01*
X147197380Y-96257861D01*
X147187857Y-96238814D01*
X147178333Y-96229290D01*
X147159285Y-96219766D01*
X147121190Y-96219766D01*
X147102142Y-96229290D01*
X147092619Y-96238814D01*
X147083095Y-96257861D01*
X146952952Y-97997576D02*
X146838666Y-97997576D01*
X146895809Y-97997576D02*
X146895809Y-97797576D01*
X146876761Y-97826147D01*
X146857714Y-97845195D01*
X146838666Y-97854719D01*
X147076761Y-97797576D02*
X147095809Y-97797576D01*
X147114857Y-97807100D01*
X147124380Y-97816623D01*
X147133904Y-97835671D01*
X147143428Y-97873766D01*
X147143428Y-97921385D01*
X147133904Y-97959480D01*
X147124380Y-97978528D01*
X147114857Y-97988052D01*
X147095809Y-97997576D01*
X147076761Y-97997576D01*
X147057714Y-97988052D01*
X147048190Y-97978528D01*
X147038666Y-97959480D01*
X147029142Y-97921385D01*
X147029142Y-97873766D01*
X147038666Y-97835671D01*
X147048190Y-97816623D01*
X147057714Y-97807100D01*
X147076761Y-97797576D01*
X147229142Y-97997576D02*
X147229142Y-97797576D01*
X147248190Y-97921385D02*
X147305333Y-97997576D01*
X147305333Y-97864242D02*
X147229142Y-97940433D01*
G04 #@! TO.C,R17*
X163023428Y-97876776D02*
X162956761Y-97781538D01*
X162909142Y-97876776D02*
X162909142Y-97676776D01*
X162985333Y-97676776D01*
X163004380Y-97686300D01*
X163013904Y-97695823D01*
X163023428Y-97714871D01*
X163023428Y-97743442D01*
X163013904Y-97762490D01*
X163004380Y-97772014D01*
X162985333Y-97781538D01*
X162909142Y-97781538D01*
X163213904Y-97876776D02*
X163099619Y-97876776D01*
X163156761Y-97876776D02*
X163156761Y-97676776D01*
X163137714Y-97705347D01*
X163118666Y-97724395D01*
X163099619Y-97733919D01*
X163280571Y-97676776D02*
X163413904Y-97676776D01*
X163328190Y-97876776D01*
X162905952Y-96222776D02*
X162791666Y-96222776D01*
X162848809Y-96222776D02*
X162848809Y-96022776D01*
X162829761Y-96051347D01*
X162810714Y-96070395D01*
X162791666Y-96079919D01*
X163029761Y-96022776D02*
X163048809Y-96022776D01*
X163067857Y-96032300D01*
X163077380Y-96041823D01*
X163086904Y-96060871D01*
X163096428Y-96098966D01*
X163096428Y-96146585D01*
X163086904Y-96184680D01*
X163077380Y-96203728D01*
X163067857Y-96213252D01*
X163048809Y-96222776D01*
X163029761Y-96222776D01*
X163010714Y-96213252D01*
X163001190Y-96203728D01*
X162991666Y-96184680D01*
X162982142Y-96146585D01*
X162982142Y-96098966D01*
X162991666Y-96060871D01*
X163001190Y-96041823D01*
X163010714Y-96032300D01*
X163029761Y-96022776D01*
X163182142Y-96222776D02*
X163182142Y-96022776D01*
X163201190Y-96146585D02*
X163258333Y-96222776D01*
X163258333Y-96089442D02*
X163182142Y-96165633D01*
G04 #@! TO.C,R18*
X151444428Y-88771476D02*
X151377761Y-88676238D01*
X151330142Y-88771476D02*
X151330142Y-88571476D01*
X151406333Y-88571476D01*
X151425380Y-88581000D01*
X151434904Y-88590523D01*
X151444428Y-88609571D01*
X151444428Y-88638142D01*
X151434904Y-88657190D01*
X151425380Y-88666714D01*
X151406333Y-88676238D01*
X151330142Y-88676238D01*
X151634904Y-88771476D02*
X151520619Y-88771476D01*
X151577761Y-88771476D02*
X151577761Y-88571476D01*
X151558714Y-88600047D01*
X151539666Y-88619095D01*
X151520619Y-88628619D01*
X151749190Y-88657190D02*
X151730142Y-88647666D01*
X151720619Y-88638142D01*
X151711095Y-88619095D01*
X151711095Y-88609571D01*
X151720619Y-88590523D01*
X151730142Y-88581000D01*
X151749190Y-88571476D01*
X151787285Y-88571476D01*
X151806333Y-88581000D01*
X151815857Y-88590523D01*
X151825380Y-88609571D01*
X151825380Y-88619095D01*
X151815857Y-88638142D01*
X151806333Y-88647666D01*
X151787285Y-88657190D01*
X151749190Y-88657190D01*
X151730142Y-88666714D01*
X151720619Y-88676238D01*
X151711095Y-88695285D01*
X151711095Y-88733380D01*
X151720619Y-88752428D01*
X151730142Y-88761952D01*
X151749190Y-88771476D01*
X151787285Y-88771476D01*
X151806333Y-88761952D01*
X151815857Y-88752428D01*
X151825380Y-88733380D01*
X151825380Y-88695285D01*
X151815857Y-88676238D01*
X151806333Y-88666714D01*
X151787285Y-88657190D01*
X151580952Y-90425476D02*
X151466666Y-90425476D01*
X151523809Y-90425476D02*
X151523809Y-90225476D01*
X151504761Y-90254047D01*
X151485714Y-90273095D01*
X151466666Y-90282619D01*
X151704761Y-90225476D02*
X151723809Y-90225476D01*
X151742857Y-90235000D01*
X151752380Y-90244523D01*
X151761904Y-90263571D01*
X151771428Y-90301666D01*
X151771428Y-90349285D01*
X151761904Y-90387380D01*
X151752380Y-90406428D01*
X151742857Y-90415952D01*
X151723809Y-90425476D01*
X151704761Y-90425476D01*
X151685714Y-90415952D01*
X151676190Y-90406428D01*
X151666666Y-90387380D01*
X151657142Y-90349285D01*
X151657142Y-90301666D01*
X151666666Y-90263571D01*
X151676190Y-90244523D01*
X151685714Y-90235000D01*
X151704761Y-90225476D01*
X151857142Y-90425476D02*
X151857142Y-90225476D01*
X151876190Y-90349285D02*
X151933333Y-90425476D01*
X151933333Y-90292142D02*
X151857142Y-90368333D01*
G04 #@! TO.C,R19*
X146034428Y-93216476D02*
X145967761Y-93121238D01*
X145920142Y-93216476D02*
X145920142Y-93016476D01*
X145996333Y-93016476D01*
X146015380Y-93026000D01*
X146024904Y-93035523D01*
X146034428Y-93054571D01*
X146034428Y-93083142D01*
X146024904Y-93102190D01*
X146015380Y-93111714D01*
X145996333Y-93121238D01*
X145920142Y-93121238D01*
X146224904Y-93216476D02*
X146110619Y-93216476D01*
X146167761Y-93216476D02*
X146167761Y-93016476D01*
X146148714Y-93045047D01*
X146129666Y-93064095D01*
X146110619Y-93073619D01*
X146320142Y-93216476D02*
X146358238Y-93216476D01*
X146377285Y-93206952D01*
X146386809Y-93197428D01*
X146405857Y-93168857D01*
X146415380Y-93130761D01*
X146415380Y-93054571D01*
X146405857Y-93035523D01*
X146396333Y-93026000D01*
X146377285Y-93016476D01*
X146339190Y-93016476D01*
X146320142Y-93026000D01*
X146310619Y-93035523D01*
X146301095Y-93054571D01*
X146301095Y-93102190D01*
X146310619Y-93121238D01*
X146320142Y-93130761D01*
X146339190Y-93140285D01*
X146377285Y-93140285D01*
X146396333Y-93130761D01*
X146405857Y-93121238D01*
X146415380Y-93102190D01*
X146170952Y-94870476D02*
X146056666Y-94870476D01*
X146113809Y-94870476D02*
X146113809Y-94670476D01*
X146094761Y-94699047D01*
X146075714Y-94718095D01*
X146056666Y-94727619D01*
X146294761Y-94670476D02*
X146313809Y-94670476D01*
X146332857Y-94680000D01*
X146342380Y-94689523D01*
X146351904Y-94708571D01*
X146361428Y-94746666D01*
X146361428Y-94794285D01*
X146351904Y-94832380D01*
X146342380Y-94851428D01*
X146332857Y-94860952D01*
X146313809Y-94870476D01*
X146294761Y-94870476D01*
X146275714Y-94860952D01*
X146266190Y-94851428D01*
X146256666Y-94832380D01*
X146247142Y-94794285D01*
X146247142Y-94746666D01*
X146256666Y-94708571D01*
X146266190Y-94689523D01*
X146275714Y-94680000D01*
X146294761Y-94670476D01*
X146447142Y-94870476D02*
X146447142Y-94670476D01*
X146466190Y-94794285D02*
X146523333Y-94870476D01*
X146523333Y-94737142D02*
X146447142Y-94813333D01*
G04 #@! TO.C,R20*
X149539428Y-93216476D02*
X149472761Y-93121238D01*
X149425142Y-93216476D02*
X149425142Y-93016476D01*
X149501333Y-93016476D01*
X149520380Y-93026000D01*
X149529904Y-93035523D01*
X149539428Y-93054571D01*
X149539428Y-93083142D01*
X149529904Y-93102190D01*
X149520380Y-93111714D01*
X149501333Y-93121238D01*
X149425142Y-93121238D01*
X149615619Y-93035523D02*
X149625142Y-93026000D01*
X149644190Y-93016476D01*
X149691809Y-93016476D01*
X149710857Y-93026000D01*
X149720380Y-93035523D01*
X149729904Y-93054571D01*
X149729904Y-93073619D01*
X149720380Y-93102190D01*
X149606095Y-93216476D01*
X149729904Y-93216476D01*
X149853714Y-93016476D02*
X149872761Y-93016476D01*
X149891809Y-93026000D01*
X149901333Y-93035523D01*
X149910857Y-93054571D01*
X149920380Y-93092666D01*
X149920380Y-93140285D01*
X149910857Y-93178380D01*
X149901333Y-93197428D01*
X149891809Y-93206952D01*
X149872761Y-93216476D01*
X149853714Y-93216476D01*
X149834666Y-93206952D01*
X149825142Y-93197428D01*
X149815619Y-93178380D01*
X149806095Y-93140285D01*
X149806095Y-93092666D01*
X149815619Y-93054571D01*
X149825142Y-93035523D01*
X149834666Y-93026000D01*
X149853714Y-93016476D01*
X149675952Y-94870476D02*
X149561666Y-94870476D01*
X149618809Y-94870476D02*
X149618809Y-94670476D01*
X149599761Y-94699047D01*
X149580714Y-94718095D01*
X149561666Y-94727619D01*
X149799761Y-94670476D02*
X149818809Y-94670476D01*
X149837857Y-94680000D01*
X149847380Y-94689523D01*
X149856904Y-94708571D01*
X149866428Y-94746666D01*
X149866428Y-94794285D01*
X149856904Y-94832380D01*
X149847380Y-94851428D01*
X149837857Y-94860952D01*
X149818809Y-94870476D01*
X149799761Y-94870476D01*
X149780714Y-94860952D01*
X149771190Y-94851428D01*
X149761666Y-94832380D01*
X149752142Y-94794285D01*
X149752142Y-94746666D01*
X149761666Y-94708571D01*
X149771190Y-94689523D01*
X149780714Y-94680000D01*
X149799761Y-94670476D01*
X149952142Y-94870476D02*
X149952142Y-94670476D01*
X149971190Y-94794285D02*
X150028333Y-94870476D01*
X150028333Y-94737142D02*
X149952142Y-94813333D01*
G04 #@! TO.C,R21*
X153826428Y-96343576D02*
X153759761Y-96248338D01*
X153712142Y-96343576D02*
X153712142Y-96143576D01*
X153788333Y-96143576D01*
X153807380Y-96153100D01*
X153816904Y-96162623D01*
X153826428Y-96181671D01*
X153826428Y-96210242D01*
X153816904Y-96229290D01*
X153807380Y-96238814D01*
X153788333Y-96248338D01*
X153712142Y-96248338D01*
X153902619Y-96162623D02*
X153912142Y-96153100D01*
X153931190Y-96143576D01*
X153978809Y-96143576D01*
X153997857Y-96153100D01*
X154007380Y-96162623D01*
X154016904Y-96181671D01*
X154016904Y-96200719D01*
X154007380Y-96229290D01*
X153893095Y-96343576D01*
X154016904Y-96343576D01*
X154207380Y-96343576D02*
X154093095Y-96343576D01*
X154150238Y-96343576D02*
X154150238Y-96143576D01*
X154131190Y-96172147D01*
X154112142Y-96191195D01*
X154093095Y-96200719D01*
X153962952Y-97997576D02*
X153848666Y-97997576D01*
X153905809Y-97997576D02*
X153905809Y-97797576D01*
X153886761Y-97826147D01*
X153867714Y-97845195D01*
X153848666Y-97854719D01*
X154086761Y-97797576D02*
X154105809Y-97797576D01*
X154124857Y-97807100D01*
X154134380Y-97816623D01*
X154143904Y-97835671D01*
X154153428Y-97873766D01*
X154153428Y-97921385D01*
X154143904Y-97959480D01*
X154134380Y-97978528D01*
X154124857Y-97988052D01*
X154105809Y-97997576D01*
X154086761Y-97997576D01*
X154067714Y-97988052D01*
X154058190Y-97978528D01*
X154048666Y-97959480D01*
X154039142Y-97921385D01*
X154039142Y-97873766D01*
X154048666Y-97835671D01*
X154058190Y-97816623D01*
X154067714Y-97807100D01*
X154086761Y-97797576D01*
X154239142Y-97997576D02*
X154239142Y-97797576D01*
X154258190Y-97921385D02*
X154315333Y-97997576D01*
X154315333Y-97864242D02*
X154239142Y-97940433D01*
G04 #@! TO.C,R22*
X156653428Y-97876776D02*
X156586761Y-97781538D01*
X156539142Y-97876776D02*
X156539142Y-97676776D01*
X156615333Y-97676776D01*
X156634380Y-97686300D01*
X156643904Y-97695823D01*
X156653428Y-97714871D01*
X156653428Y-97743442D01*
X156643904Y-97762490D01*
X156634380Y-97772014D01*
X156615333Y-97781538D01*
X156539142Y-97781538D01*
X156729619Y-97695823D02*
X156739142Y-97686300D01*
X156758190Y-97676776D01*
X156805809Y-97676776D01*
X156824857Y-97686300D01*
X156834380Y-97695823D01*
X156843904Y-97714871D01*
X156843904Y-97733919D01*
X156834380Y-97762490D01*
X156720095Y-97876776D01*
X156843904Y-97876776D01*
X156920095Y-97695823D02*
X156929619Y-97686300D01*
X156948666Y-97676776D01*
X156996285Y-97676776D01*
X157015333Y-97686300D01*
X157024857Y-97695823D01*
X157034380Y-97714871D01*
X157034380Y-97733919D01*
X157024857Y-97762490D01*
X156910571Y-97876776D01*
X157034380Y-97876776D01*
X156535952Y-96222776D02*
X156421666Y-96222776D01*
X156478809Y-96222776D02*
X156478809Y-96022776D01*
X156459761Y-96051347D01*
X156440714Y-96070395D01*
X156421666Y-96079919D01*
X156659761Y-96022776D02*
X156678809Y-96022776D01*
X156697857Y-96032300D01*
X156707380Y-96041823D01*
X156716904Y-96060871D01*
X156726428Y-96098966D01*
X156726428Y-96146585D01*
X156716904Y-96184680D01*
X156707380Y-96203728D01*
X156697857Y-96213252D01*
X156678809Y-96222776D01*
X156659761Y-96222776D01*
X156640714Y-96213252D01*
X156631190Y-96203728D01*
X156621666Y-96184680D01*
X156612142Y-96146585D01*
X156612142Y-96098966D01*
X156621666Y-96060871D01*
X156631190Y-96041823D01*
X156640714Y-96032300D01*
X156659761Y-96022776D01*
X156812142Y-96222776D02*
X156812142Y-96022776D01*
X156831190Y-96146585D02*
X156888333Y-96222776D01*
X156888333Y-96089442D02*
X156812142Y-96165633D01*
G04 #@! TO.C,R23*
X185542428Y-86028476D02*
X185475761Y-85933238D01*
X185428142Y-86028476D02*
X185428142Y-85828476D01*
X185504333Y-85828476D01*
X185523380Y-85838000D01*
X185532904Y-85847523D01*
X185542428Y-85866571D01*
X185542428Y-85895142D01*
X185532904Y-85914190D01*
X185523380Y-85923714D01*
X185504333Y-85933238D01*
X185428142Y-85933238D01*
X185618619Y-85847523D02*
X185628142Y-85838000D01*
X185647190Y-85828476D01*
X185694809Y-85828476D01*
X185713857Y-85838000D01*
X185723380Y-85847523D01*
X185732904Y-85866571D01*
X185732904Y-85885619D01*
X185723380Y-85914190D01*
X185609095Y-86028476D01*
X185732904Y-86028476D01*
X185799571Y-85828476D02*
X185923380Y-85828476D01*
X185856714Y-85904666D01*
X185885285Y-85904666D01*
X185904333Y-85914190D01*
X185913857Y-85923714D01*
X185923380Y-85942761D01*
X185923380Y-85990380D01*
X185913857Y-86009428D01*
X185904333Y-86018952D01*
X185885285Y-86028476D01*
X185828142Y-86028476D01*
X185809095Y-86018952D01*
X185799571Y-86009428D01*
X185678952Y-87682476D02*
X185564666Y-87682476D01*
X185621809Y-87682476D02*
X185621809Y-87482476D01*
X185602761Y-87511047D01*
X185583714Y-87530095D01*
X185564666Y-87539619D01*
X185802761Y-87482476D02*
X185821809Y-87482476D01*
X185840857Y-87492000D01*
X185850380Y-87501523D01*
X185859904Y-87520571D01*
X185869428Y-87558666D01*
X185869428Y-87606285D01*
X185859904Y-87644380D01*
X185850380Y-87663428D01*
X185840857Y-87672952D01*
X185821809Y-87682476D01*
X185802761Y-87682476D01*
X185783714Y-87672952D01*
X185774190Y-87663428D01*
X185764666Y-87644380D01*
X185755142Y-87606285D01*
X185755142Y-87558666D01*
X185764666Y-87520571D01*
X185774190Y-87501523D01*
X185783714Y-87492000D01*
X185802761Y-87482476D01*
X185955142Y-87682476D02*
X185955142Y-87482476D01*
X185974190Y-87606285D02*
X186031333Y-87682476D01*
X186031333Y-87549142D02*
X185955142Y-87625333D01*
G04 #@! TO.C,R24*
X185542428Y-81583476D02*
X185475761Y-81488238D01*
X185428142Y-81583476D02*
X185428142Y-81383476D01*
X185504333Y-81383476D01*
X185523380Y-81393000D01*
X185532904Y-81402523D01*
X185542428Y-81421571D01*
X185542428Y-81450142D01*
X185532904Y-81469190D01*
X185523380Y-81478714D01*
X185504333Y-81488238D01*
X185428142Y-81488238D01*
X185618619Y-81402523D02*
X185628142Y-81393000D01*
X185647190Y-81383476D01*
X185694809Y-81383476D01*
X185713857Y-81393000D01*
X185723380Y-81402523D01*
X185732904Y-81421571D01*
X185732904Y-81440619D01*
X185723380Y-81469190D01*
X185609095Y-81583476D01*
X185732904Y-81583476D01*
X185904333Y-81450142D02*
X185904333Y-81583476D01*
X185856714Y-81373952D02*
X185809095Y-81516809D01*
X185932904Y-81516809D01*
X185678952Y-83237476D02*
X185564666Y-83237476D01*
X185621809Y-83237476D02*
X185621809Y-83037476D01*
X185602761Y-83066047D01*
X185583714Y-83085095D01*
X185564666Y-83094619D01*
X185802761Y-83037476D02*
X185821809Y-83037476D01*
X185840857Y-83047000D01*
X185850380Y-83056523D01*
X185859904Y-83075571D01*
X185869428Y-83113666D01*
X185869428Y-83161285D01*
X185859904Y-83199380D01*
X185850380Y-83218428D01*
X185840857Y-83227952D01*
X185821809Y-83237476D01*
X185802761Y-83237476D01*
X185783714Y-83227952D01*
X185774190Y-83218428D01*
X185764666Y-83199380D01*
X185755142Y-83161285D01*
X185755142Y-83113666D01*
X185764666Y-83075571D01*
X185774190Y-83056523D01*
X185783714Y-83047000D01*
X185802761Y-83037476D01*
X185955142Y-83237476D02*
X185955142Y-83037476D01*
X185974190Y-83161285D02*
X186031333Y-83237476D01*
X186031333Y-83104142D02*
X185955142Y-83180333D01*
G04 #@! TO.C,R25*
X191892428Y-86028476D02*
X191825761Y-85933238D01*
X191778142Y-86028476D02*
X191778142Y-85828476D01*
X191854333Y-85828476D01*
X191873380Y-85838000D01*
X191882904Y-85847523D01*
X191892428Y-85866571D01*
X191892428Y-85895142D01*
X191882904Y-85914190D01*
X191873380Y-85923714D01*
X191854333Y-85933238D01*
X191778142Y-85933238D01*
X191968619Y-85847523D02*
X191978142Y-85838000D01*
X191997190Y-85828476D01*
X192044809Y-85828476D01*
X192063857Y-85838000D01*
X192073380Y-85847523D01*
X192082904Y-85866571D01*
X192082904Y-85885619D01*
X192073380Y-85914190D01*
X191959095Y-86028476D01*
X192082904Y-86028476D01*
X192263857Y-85828476D02*
X192168619Y-85828476D01*
X192159095Y-85923714D01*
X192168619Y-85914190D01*
X192187666Y-85904666D01*
X192235285Y-85904666D01*
X192254333Y-85914190D01*
X192263857Y-85923714D01*
X192273380Y-85942761D01*
X192273380Y-85990380D01*
X192263857Y-86009428D01*
X192254333Y-86018952D01*
X192235285Y-86028476D01*
X192187666Y-86028476D01*
X192168619Y-86018952D01*
X192159095Y-86009428D01*
X192028952Y-87682476D02*
X191914666Y-87682476D01*
X191971809Y-87682476D02*
X191971809Y-87482476D01*
X191952761Y-87511047D01*
X191933714Y-87530095D01*
X191914666Y-87539619D01*
X192152761Y-87482476D02*
X192171809Y-87482476D01*
X192190857Y-87492000D01*
X192200380Y-87501523D01*
X192209904Y-87520571D01*
X192219428Y-87558666D01*
X192219428Y-87606285D01*
X192209904Y-87644380D01*
X192200380Y-87663428D01*
X192190857Y-87672952D01*
X192171809Y-87682476D01*
X192152761Y-87682476D01*
X192133714Y-87672952D01*
X192124190Y-87663428D01*
X192114666Y-87644380D01*
X192105142Y-87606285D01*
X192105142Y-87558666D01*
X192114666Y-87520571D01*
X192124190Y-87501523D01*
X192133714Y-87492000D01*
X192152761Y-87482476D01*
X192305142Y-87682476D02*
X192305142Y-87482476D01*
X192324190Y-87606285D02*
X192381333Y-87682476D01*
X192381333Y-87549142D02*
X192305142Y-87625333D01*
G04 #@! TO.C,R26*
X192197428Y-81583476D02*
X192130761Y-81488238D01*
X192083142Y-81583476D02*
X192083142Y-81383476D01*
X192159333Y-81383476D01*
X192178380Y-81393000D01*
X192187904Y-81402523D01*
X192197428Y-81421571D01*
X192197428Y-81450142D01*
X192187904Y-81469190D01*
X192178380Y-81478714D01*
X192159333Y-81488238D01*
X192083142Y-81488238D01*
X192273619Y-81402523D02*
X192283142Y-81393000D01*
X192302190Y-81383476D01*
X192349809Y-81383476D01*
X192368857Y-81393000D01*
X192378380Y-81402523D01*
X192387904Y-81421571D01*
X192387904Y-81440619D01*
X192378380Y-81469190D01*
X192264095Y-81583476D01*
X192387904Y-81583476D01*
X192559333Y-81383476D02*
X192521238Y-81383476D01*
X192502190Y-81393000D01*
X192492666Y-81402523D01*
X192473619Y-81431095D01*
X192464095Y-81469190D01*
X192464095Y-81545380D01*
X192473619Y-81564428D01*
X192483142Y-81573952D01*
X192502190Y-81583476D01*
X192540285Y-81583476D01*
X192559333Y-81573952D01*
X192568857Y-81564428D01*
X192578380Y-81545380D01*
X192578380Y-81497761D01*
X192568857Y-81478714D01*
X192559333Y-81469190D01*
X192540285Y-81459666D01*
X192502190Y-81459666D01*
X192483142Y-81469190D01*
X192473619Y-81478714D01*
X192464095Y-81497761D01*
X192333952Y-83237476D02*
X192219666Y-83237476D01*
X192276809Y-83237476D02*
X192276809Y-83037476D01*
X192257761Y-83066047D01*
X192238714Y-83085095D01*
X192219666Y-83094619D01*
X192457761Y-83037476D02*
X192476809Y-83037476D01*
X192495857Y-83047000D01*
X192505380Y-83056523D01*
X192514904Y-83075571D01*
X192524428Y-83113666D01*
X192524428Y-83161285D01*
X192514904Y-83199380D01*
X192505380Y-83218428D01*
X192495857Y-83227952D01*
X192476809Y-83237476D01*
X192457761Y-83237476D01*
X192438714Y-83227952D01*
X192429190Y-83218428D01*
X192419666Y-83199380D01*
X192410142Y-83161285D01*
X192410142Y-83113666D01*
X192419666Y-83075571D01*
X192429190Y-83056523D01*
X192438714Y-83047000D01*
X192457761Y-83037476D01*
X192610142Y-83237476D02*
X192610142Y-83037476D01*
X192629190Y-83161285D02*
X192686333Y-83237476D01*
X192686333Y-83104142D02*
X192610142Y-83180333D01*
G04 #@! TO.C,R27*
X141639428Y-78611476D02*
X141572761Y-78516238D01*
X141525142Y-78611476D02*
X141525142Y-78411476D01*
X141601333Y-78411476D01*
X141620380Y-78421000D01*
X141629904Y-78430523D01*
X141639428Y-78449571D01*
X141639428Y-78478142D01*
X141629904Y-78497190D01*
X141620380Y-78506714D01*
X141601333Y-78516238D01*
X141525142Y-78516238D01*
X141715619Y-78430523D02*
X141725142Y-78421000D01*
X141744190Y-78411476D01*
X141791809Y-78411476D01*
X141810857Y-78421000D01*
X141820380Y-78430523D01*
X141829904Y-78449571D01*
X141829904Y-78468619D01*
X141820380Y-78497190D01*
X141706095Y-78611476D01*
X141829904Y-78611476D01*
X141896571Y-78411476D02*
X142029904Y-78411476D01*
X141944190Y-78611476D01*
X141775952Y-80265476D02*
X141661666Y-80265476D01*
X141718809Y-80265476D02*
X141718809Y-80065476D01*
X141699761Y-80094047D01*
X141680714Y-80113095D01*
X141661666Y-80122619D01*
X141899761Y-80065476D02*
X141918809Y-80065476D01*
X141937857Y-80075000D01*
X141947380Y-80084523D01*
X141956904Y-80103571D01*
X141966428Y-80141666D01*
X141966428Y-80189285D01*
X141956904Y-80227380D01*
X141947380Y-80246428D01*
X141937857Y-80255952D01*
X141918809Y-80265476D01*
X141899761Y-80265476D01*
X141880714Y-80255952D01*
X141871190Y-80246428D01*
X141861666Y-80227380D01*
X141852142Y-80189285D01*
X141852142Y-80141666D01*
X141861666Y-80103571D01*
X141871190Y-80084523D01*
X141880714Y-80075000D01*
X141899761Y-80065476D01*
X142052142Y-80265476D02*
X142052142Y-80065476D01*
X142071190Y-80189285D02*
X142128333Y-80265476D01*
X142128333Y-80132142D02*
X142052142Y-80208333D01*
G04 #@! TO.C,R28*
X141919428Y-74166476D02*
X141852761Y-74071238D01*
X141805142Y-74166476D02*
X141805142Y-73966476D01*
X141881333Y-73966476D01*
X141900380Y-73976000D01*
X141909904Y-73985523D01*
X141919428Y-74004571D01*
X141919428Y-74033142D01*
X141909904Y-74052190D01*
X141900380Y-74061714D01*
X141881333Y-74071238D01*
X141805142Y-74071238D01*
X141995619Y-73985523D02*
X142005142Y-73976000D01*
X142024190Y-73966476D01*
X142071809Y-73966476D01*
X142090857Y-73976000D01*
X142100380Y-73985523D01*
X142109904Y-74004571D01*
X142109904Y-74023619D01*
X142100380Y-74052190D01*
X141986095Y-74166476D01*
X142109904Y-74166476D01*
X142224190Y-74052190D02*
X142205142Y-74042666D01*
X142195619Y-74033142D01*
X142186095Y-74014095D01*
X142186095Y-74004571D01*
X142195619Y-73985523D01*
X142205142Y-73976000D01*
X142224190Y-73966476D01*
X142262285Y-73966476D01*
X142281333Y-73976000D01*
X142290857Y-73985523D01*
X142300380Y-74004571D01*
X142300380Y-74014095D01*
X142290857Y-74033142D01*
X142281333Y-74042666D01*
X142262285Y-74052190D01*
X142224190Y-74052190D01*
X142205142Y-74061714D01*
X142195619Y-74071238D01*
X142186095Y-74090285D01*
X142186095Y-74128380D01*
X142195619Y-74147428D01*
X142205142Y-74156952D01*
X142224190Y-74166476D01*
X142262285Y-74166476D01*
X142281333Y-74156952D01*
X142290857Y-74147428D01*
X142300380Y-74128380D01*
X142300380Y-74090285D01*
X142290857Y-74071238D01*
X142281333Y-74061714D01*
X142262285Y-74052190D01*
X142055952Y-75820476D02*
X141941666Y-75820476D01*
X141998809Y-75820476D02*
X141998809Y-75620476D01*
X141979761Y-75649047D01*
X141960714Y-75668095D01*
X141941666Y-75677619D01*
X142179761Y-75620476D02*
X142198809Y-75620476D01*
X142217857Y-75630000D01*
X142227380Y-75639523D01*
X142236904Y-75658571D01*
X142246428Y-75696666D01*
X142246428Y-75744285D01*
X142236904Y-75782380D01*
X142227380Y-75801428D01*
X142217857Y-75810952D01*
X142198809Y-75820476D01*
X142179761Y-75820476D01*
X142160714Y-75810952D01*
X142151190Y-75801428D01*
X142141666Y-75782380D01*
X142132142Y-75744285D01*
X142132142Y-75696666D01*
X142141666Y-75658571D01*
X142151190Y-75639523D01*
X142160714Y-75630000D01*
X142179761Y-75620476D01*
X142332142Y-75820476D02*
X142332142Y-75620476D01*
X142351190Y-75744285D02*
X142408333Y-75820476D01*
X142408333Y-75687142D02*
X142332142Y-75763333D01*
G04 #@! TO.C,R29*
X149185428Y-78290376D02*
X149118761Y-78195138D01*
X149071142Y-78290376D02*
X149071142Y-78090376D01*
X149147333Y-78090376D01*
X149166380Y-78099900D01*
X149175904Y-78109423D01*
X149185428Y-78128471D01*
X149185428Y-78157042D01*
X149175904Y-78176090D01*
X149166380Y-78185614D01*
X149147333Y-78195138D01*
X149071142Y-78195138D01*
X149261619Y-78109423D02*
X149271142Y-78099900D01*
X149290190Y-78090376D01*
X149337809Y-78090376D01*
X149356857Y-78099900D01*
X149366380Y-78109423D01*
X149375904Y-78128471D01*
X149375904Y-78147519D01*
X149366380Y-78176090D01*
X149252095Y-78290376D01*
X149375904Y-78290376D01*
X149471142Y-78290376D02*
X149509238Y-78290376D01*
X149528285Y-78280852D01*
X149537809Y-78271328D01*
X149556857Y-78242757D01*
X149566380Y-78204661D01*
X149566380Y-78128471D01*
X149556857Y-78109423D01*
X149547333Y-78099900D01*
X149528285Y-78090376D01*
X149490190Y-78090376D01*
X149471142Y-78099900D01*
X149461619Y-78109423D01*
X149452095Y-78128471D01*
X149452095Y-78176090D01*
X149461619Y-78195138D01*
X149471142Y-78204661D01*
X149490190Y-78214185D01*
X149528285Y-78214185D01*
X149547333Y-78204661D01*
X149556857Y-78195138D01*
X149566380Y-78176090D01*
X149321952Y-79944376D02*
X149207666Y-79944376D01*
X149264809Y-79944376D02*
X149264809Y-79744376D01*
X149245761Y-79772947D01*
X149226714Y-79791995D01*
X149207666Y-79801519D01*
X149445761Y-79744376D02*
X149464809Y-79744376D01*
X149483857Y-79753900D01*
X149493380Y-79763423D01*
X149502904Y-79782471D01*
X149512428Y-79820566D01*
X149512428Y-79868185D01*
X149502904Y-79906280D01*
X149493380Y-79925328D01*
X149483857Y-79934852D01*
X149464809Y-79944376D01*
X149445761Y-79944376D01*
X149426714Y-79934852D01*
X149417190Y-79925328D01*
X149407666Y-79906280D01*
X149398142Y-79868185D01*
X149398142Y-79820566D01*
X149407666Y-79782471D01*
X149417190Y-79763423D01*
X149426714Y-79753900D01*
X149445761Y-79744376D01*
X149598142Y-79944376D02*
X149598142Y-79744376D01*
X149617190Y-79868185D02*
X149674333Y-79944376D01*
X149674333Y-79811042D02*
X149598142Y-79887233D01*
G04 #@! TO.C,R30*
X149035428Y-73928476D02*
X148968761Y-73833238D01*
X148921142Y-73928476D02*
X148921142Y-73728476D01*
X148997333Y-73728476D01*
X149016380Y-73738000D01*
X149025904Y-73747523D01*
X149035428Y-73766571D01*
X149035428Y-73795142D01*
X149025904Y-73814190D01*
X149016380Y-73823714D01*
X148997333Y-73833238D01*
X148921142Y-73833238D01*
X149102095Y-73728476D02*
X149225904Y-73728476D01*
X149159238Y-73804666D01*
X149187809Y-73804666D01*
X149206857Y-73814190D01*
X149216380Y-73823714D01*
X149225904Y-73842761D01*
X149225904Y-73890380D01*
X149216380Y-73909428D01*
X149206857Y-73918952D01*
X149187809Y-73928476D01*
X149130666Y-73928476D01*
X149111619Y-73918952D01*
X149102095Y-73909428D01*
X149349714Y-73728476D02*
X149368761Y-73728476D01*
X149387809Y-73738000D01*
X149397333Y-73747523D01*
X149406857Y-73766571D01*
X149416380Y-73804666D01*
X149416380Y-73852285D01*
X149406857Y-73890380D01*
X149397333Y-73909428D01*
X149387809Y-73918952D01*
X149368761Y-73928476D01*
X149349714Y-73928476D01*
X149330666Y-73918952D01*
X149321142Y-73909428D01*
X149311619Y-73890380D01*
X149302095Y-73852285D01*
X149302095Y-73804666D01*
X149311619Y-73766571D01*
X149321142Y-73747523D01*
X149330666Y-73738000D01*
X149349714Y-73728476D01*
X149171952Y-75582476D02*
X149057666Y-75582476D01*
X149114809Y-75582476D02*
X149114809Y-75382476D01*
X149095761Y-75411047D01*
X149076714Y-75430095D01*
X149057666Y-75439619D01*
X149295761Y-75382476D02*
X149314809Y-75382476D01*
X149333857Y-75392000D01*
X149343380Y-75401523D01*
X149352904Y-75420571D01*
X149362428Y-75458666D01*
X149362428Y-75506285D01*
X149352904Y-75544380D01*
X149343380Y-75563428D01*
X149333857Y-75572952D01*
X149314809Y-75582476D01*
X149295761Y-75582476D01*
X149276714Y-75572952D01*
X149267190Y-75563428D01*
X149257666Y-75544380D01*
X149248142Y-75506285D01*
X149248142Y-75458666D01*
X149257666Y-75420571D01*
X149267190Y-75401523D01*
X149276714Y-75392000D01*
X149295761Y-75382476D01*
X149448142Y-75582476D02*
X149448142Y-75382476D01*
X149467190Y-75506285D02*
X149524333Y-75582476D01*
X149524333Y-75449142D02*
X149448142Y-75525333D01*
G04 #@! TO.C,R31*
X172072428Y-98209576D02*
X172005761Y-98114338D01*
X171958142Y-98209576D02*
X171958142Y-98009576D01*
X172034333Y-98009576D01*
X172053380Y-98019100D01*
X172062904Y-98028623D01*
X172072428Y-98047671D01*
X172072428Y-98076242D01*
X172062904Y-98095290D01*
X172053380Y-98104814D01*
X172034333Y-98114338D01*
X171958142Y-98114338D01*
X172139095Y-98009576D02*
X172262904Y-98009576D01*
X172196238Y-98085766D01*
X172224809Y-98085766D01*
X172243857Y-98095290D01*
X172253380Y-98104814D01*
X172262904Y-98123861D01*
X172262904Y-98171480D01*
X172253380Y-98190528D01*
X172243857Y-98200052D01*
X172224809Y-98209576D01*
X172167666Y-98209576D01*
X172148619Y-98200052D01*
X172139095Y-98190528D01*
X172453380Y-98209576D02*
X172339095Y-98209576D01*
X172396238Y-98209576D02*
X172396238Y-98009576D01*
X172377190Y-98038147D01*
X172358142Y-98057195D01*
X172339095Y-98066719D01*
X171954952Y-96555576D02*
X171840666Y-96555576D01*
X171897809Y-96555576D02*
X171897809Y-96355576D01*
X171878761Y-96384147D01*
X171859714Y-96403195D01*
X171840666Y-96412719D01*
X172078761Y-96355576D02*
X172097809Y-96355576D01*
X172116857Y-96365100D01*
X172126380Y-96374623D01*
X172135904Y-96393671D01*
X172145428Y-96431766D01*
X172145428Y-96479385D01*
X172135904Y-96517480D01*
X172126380Y-96536528D01*
X172116857Y-96546052D01*
X172097809Y-96555576D01*
X172078761Y-96555576D01*
X172059714Y-96546052D01*
X172050190Y-96536528D01*
X172040666Y-96517480D01*
X172031142Y-96479385D01*
X172031142Y-96431766D01*
X172040666Y-96393671D01*
X172050190Y-96374623D01*
X172059714Y-96365100D01*
X172078761Y-96355576D01*
X172231142Y-96555576D02*
X172231142Y-96355576D01*
X172250190Y-96479385D02*
X172307333Y-96555576D01*
X172307333Y-96422242D02*
X172231142Y-96498433D01*
G04 #@! TO.C,R32*
X185339428Y-77440376D02*
X185272761Y-77345138D01*
X185225142Y-77440376D02*
X185225142Y-77240376D01*
X185301333Y-77240376D01*
X185320380Y-77249900D01*
X185329904Y-77259423D01*
X185339428Y-77278471D01*
X185339428Y-77307042D01*
X185329904Y-77326090D01*
X185320380Y-77335614D01*
X185301333Y-77345138D01*
X185225142Y-77345138D01*
X185406095Y-77240376D02*
X185529904Y-77240376D01*
X185463238Y-77316566D01*
X185491809Y-77316566D01*
X185510857Y-77326090D01*
X185520380Y-77335614D01*
X185529904Y-77354661D01*
X185529904Y-77402280D01*
X185520380Y-77421328D01*
X185510857Y-77430852D01*
X185491809Y-77440376D01*
X185434666Y-77440376D01*
X185415619Y-77430852D01*
X185406095Y-77421328D01*
X185606095Y-77259423D02*
X185615619Y-77249900D01*
X185634666Y-77240376D01*
X185682285Y-77240376D01*
X185701333Y-77249900D01*
X185710857Y-77259423D01*
X185720380Y-77278471D01*
X185720380Y-77297519D01*
X185710857Y-77326090D01*
X185596571Y-77440376D01*
X185720380Y-77440376D01*
X185475952Y-79094376D02*
X185361666Y-79094376D01*
X185418809Y-79094376D02*
X185418809Y-78894376D01*
X185399761Y-78922947D01*
X185380714Y-78941995D01*
X185361666Y-78951519D01*
X185599761Y-78894376D02*
X185618809Y-78894376D01*
X185637857Y-78903900D01*
X185647380Y-78913423D01*
X185656904Y-78932471D01*
X185666428Y-78970566D01*
X185666428Y-79018185D01*
X185656904Y-79056280D01*
X185647380Y-79075328D01*
X185637857Y-79084852D01*
X185618809Y-79094376D01*
X185599761Y-79094376D01*
X185580714Y-79084852D01*
X185571190Y-79075328D01*
X185561666Y-79056280D01*
X185552142Y-79018185D01*
X185552142Y-78970566D01*
X185561666Y-78932471D01*
X185571190Y-78913423D01*
X185580714Y-78903900D01*
X185599761Y-78894376D01*
X185752142Y-79094376D02*
X185752142Y-78894376D01*
X185771190Y-79018185D02*
X185828333Y-79094376D01*
X185828333Y-78961042D02*
X185752142Y-79037233D01*
G04 #@! TO.C,R33*
X185533428Y-94548576D02*
X185466761Y-94453338D01*
X185419142Y-94548576D02*
X185419142Y-94348576D01*
X185495333Y-94348576D01*
X185514380Y-94358100D01*
X185523904Y-94367623D01*
X185533428Y-94386671D01*
X185533428Y-94415242D01*
X185523904Y-94434290D01*
X185514380Y-94443814D01*
X185495333Y-94453338D01*
X185419142Y-94453338D01*
X185600095Y-94348576D02*
X185723904Y-94348576D01*
X185657238Y-94424766D01*
X185685809Y-94424766D01*
X185704857Y-94434290D01*
X185714380Y-94443814D01*
X185723904Y-94462861D01*
X185723904Y-94510480D01*
X185714380Y-94529528D01*
X185704857Y-94539052D01*
X185685809Y-94548576D01*
X185628666Y-94548576D01*
X185609619Y-94539052D01*
X185600095Y-94529528D01*
X185790571Y-94348576D02*
X185914380Y-94348576D01*
X185847714Y-94424766D01*
X185876285Y-94424766D01*
X185895333Y-94434290D01*
X185904857Y-94443814D01*
X185914380Y-94462861D01*
X185914380Y-94510480D01*
X185904857Y-94529528D01*
X185895333Y-94539052D01*
X185876285Y-94548576D01*
X185819142Y-94548576D01*
X185800095Y-94539052D01*
X185790571Y-94529528D01*
X185669952Y-96202576D02*
X185555666Y-96202576D01*
X185612809Y-96202576D02*
X185612809Y-96002576D01*
X185593761Y-96031147D01*
X185574714Y-96050195D01*
X185555666Y-96059719D01*
X185793761Y-96002576D02*
X185812809Y-96002576D01*
X185831857Y-96012100D01*
X185841380Y-96021623D01*
X185850904Y-96040671D01*
X185860428Y-96078766D01*
X185860428Y-96126385D01*
X185850904Y-96164480D01*
X185841380Y-96183528D01*
X185831857Y-96193052D01*
X185812809Y-96202576D01*
X185793761Y-96202576D01*
X185774714Y-96193052D01*
X185765190Y-96183528D01*
X185755666Y-96164480D01*
X185746142Y-96126385D01*
X185746142Y-96078766D01*
X185755666Y-96040671D01*
X185765190Y-96021623D01*
X185774714Y-96012100D01*
X185793761Y-96002576D01*
X185946142Y-96202576D02*
X185946142Y-96002576D01*
X185965190Y-96126385D02*
X186022333Y-96202576D01*
X186022333Y-96069242D02*
X185946142Y-96145433D01*
G04 #@! TO.C,R34*
X174066428Y-96412376D02*
X173999761Y-96317138D01*
X173952142Y-96412376D02*
X173952142Y-96212376D01*
X174028333Y-96212376D01*
X174047380Y-96221900D01*
X174056904Y-96231423D01*
X174066428Y-96250471D01*
X174066428Y-96279042D01*
X174056904Y-96298090D01*
X174047380Y-96307614D01*
X174028333Y-96317138D01*
X173952142Y-96317138D01*
X174133095Y-96212376D02*
X174256904Y-96212376D01*
X174190238Y-96288566D01*
X174218809Y-96288566D01*
X174237857Y-96298090D01*
X174247380Y-96307614D01*
X174256904Y-96326661D01*
X174256904Y-96374280D01*
X174247380Y-96393328D01*
X174237857Y-96402852D01*
X174218809Y-96412376D01*
X174161666Y-96412376D01*
X174142619Y-96402852D01*
X174133095Y-96393328D01*
X174428333Y-96279042D02*
X174428333Y-96412376D01*
X174380714Y-96202852D02*
X174333095Y-96345709D01*
X174456904Y-96345709D01*
X174202952Y-98066376D02*
X174088666Y-98066376D01*
X174145809Y-98066376D02*
X174145809Y-97866376D01*
X174126761Y-97894947D01*
X174107714Y-97913995D01*
X174088666Y-97923519D01*
X174326761Y-97866376D02*
X174345809Y-97866376D01*
X174364857Y-97875900D01*
X174374380Y-97885423D01*
X174383904Y-97904471D01*
X174393428Y-97942566D01*
X174393428Y-97990185D01*
X174383904Y-98028280D01*
X174374380Y-98047328D01*
X174364857Y-98056852D01*
X174345809Y-98066376D01*
X174326761Y-98066376D01*
X174307714Y-98056852D01*
X174298190Y-98047328D01*
X174288666Y-98028280D01*
X174279142Y-97990185D01*
X174279142Y-97942566D01*
X174288666Y-97904471D01*
X174298190Y-97885423D01*
X174307714Y-97875900D01*
X174326761Y-97866376D01*
X174479142Y-98066376D02*
X174479142Y-97866376D01*
X174498190Y-97990185D02*
X174555333Y-98066376D01*
X174555333Y-97933042D02*
X174479142Y-98009233D01*
G04 #@! TO.C,R35*
X185454428Y-73900376D02*
X185387761Y-73805138D01*
X185340142Y-73900376D02*
X185340142Y-73700376D01*
X185416333Y-73700376D01*
X185435380Y-73709900D01*
X185444904Y-73719423D01*
X185454428Y-73738471D01*
X185454428Y-73767042D01*
X185444904Y-73786090D01*
X185435380Y-73795614D01*
X185416333Y-73805138D01*
X185340142Y-73805138D01*
X185521095Y-73700376D02*
X185644904Y-73700376D01*
X185578238Y-73776566D01*
X185606809Y-73776566D01*
X185625857Y-73786090D01*
X185635380Y-73795614D01*
X185644904Y-73814661D01*
X185644904Y-73862280D01*
X185635380Y-73881328D01*
X185625857Y-73890852D01*
X185606809Y-73900376D01*
X185549666Y-73900376D01*
X185530619Y-73890852D01*
X185521095Y-73881328D01*
X185825857Y-73700376D02*
X185730619Y-73700376D01*
X185721095Y-73795614D01*
X185730619Y-73786090D01*
X185749666Y-73776566D01*
X185797285Y-73776566D01*
X185816333Y-73786090D01*
X185825857Y-73795614D01*
X185835380Y-73814661D01*
X185835380Y-73862280D01*
X185825857Y-73881328D01*
X185816333Y-73890852D01*
X185797285Y-73900376D01*
X185749666Y-73900376D01*
X185730619Y-73890852D01*
X185721095Y-73881328D01*
X185590952Y-75554376D02*
X185476666Y-75554376D01*
X185533809Y-75554376D02*
X185533809Y-75354376D01*
X185514761Y-75382947D01*
X185495714Y-75401995D01*
X185476666Y-75411519D01*
X185714761Y-75354376D02*
X185733809Y-75354376D01*
X185752857Y-75363900D01*
X185762380Y-75373423D01*
X185771904Y-75392471D01*
X185781428Y-75430566D01*
X185781428Y-75478185D01*
X185771904Y-75516280D01*
X185762380Y-75535328D01*
X185752857Y-75544852D01*
X185733809Y-75554376D01*
X185714761Y-75554376D01*
X185695714Y-75544852D01*
X185686190Y-75535328D01*
X185676666Y-75516280D01*
X185667142Y-75478185D01*
X185667142Y-75430566D01*
X185676666Y-75392471D01*
X185686190Y-75373423D01*
X185695714Y-75363900D01*
X185714761Y-75354376D01*
X185867142Y-75554376D02*
X185867142Y-75354376D01*
X185886190Y-75478185D02*
X185943333Y-75554376D01*
X185943333Y-75421042D02*
X185867142Y-75497233D01*
G04 #@! TO.C,R36*
X185533428Y-90738576D02*
X185466761Y-90643338D01*
X185419142Y-90738576D02*
X185419142Y-90538576D01*
X185495333Y-90538576D01*
X185514380Y-90548100D01*
X185523904Y-90557623D01*
X185533428Y-90576671D01*
X185533428Y-90605242D01*
X185523904Y-90624290D01*
X185514380Y-90633814D01*
X185495333Y-90643338D01*
X185419142Y-90643338D01*
X185600095Y-90538576D02*
X185723904Y-90538576D01*
X185657238Y-90614766D01*
X185685809Y-90614766D01*
X185704857Y-90624290D01*
X185714380Y-90633814D01*
X185723904Y-90652861D01*
X185723904Y-90700480D01*
X185714380Y-90719528D01*
X185704857Y-90729052D01*
X185685809Y-90738576D01*
X185628666Y-90738576D01*
X185609619Y-90729052D01*
X185600095Y-90719528D01*
X185895333Y-90538576D02*
X185857238Y-90538576D01*
X185838190Y-90548100D01*
X185828666Y-90557623D01*
X185809619Y-90586195D01*
X185800095Y-90624290D01*
X185800095Y-90700480D01*
X185809619Y-90719528D01*
X185819142Y-90729052D01*
X185838190Y-90738576D01*
X185876285Y-90738576D01*
X185895333Y-90729052D01*
X185904857Y-90719528D01*
X185914380Y-90700480D01*
X185914380Y-90652861D01*
X185904857Y-90633814D01*
X185895333Y-90624290D01*
X185876285Y-90614766D01*
X185838190Y-90614766D01*
X185819142Y-90624290D01*
X185809619Y-90633814D01*
X185800095Y-90652861D01*
X185669952Y-92392576D02*
X185555666Y-92392576D01*
X185612809Y-92392576D02*
X185612809Y-92192576D01*
X185593761Y-92221147D01*
X185574714Y-92240195D01*
X185555666Y-92249719D01*
X185793761Y-92192576D02*
X185812809Y-92192576D01*
X185831857Y-92202100D01*
X185841380Y-92211623D01*
X185850904Y-92230671D01*
X185860428Y-92268766D01*
X185860428Y-92316385D01*
X185850904Y-92354480D01*
X185841380Y-92373528D01*
X185831857Y-92383052D01*
X185812809Y-92392576D01*
X185793761Y-92392576D01*
X185774714Y-92383052D01*
X185765190Y-92373528D01*
X185755666Y-92354480D01*
X185746142Y-92316385D01*
X185746142Y-92268766D01*
X185755666Y-92230671D01*
X185765190Y-92211623D01*
X185774714Y-92202100D01*
X185793761Y-92192576D01*
X185946142Y-92392576D02*
X185946142Y-92192576D01*
X185965190Y-92316385D02*
X186022333Y-92392576D01*
X186022333Y-92259242D02*
X185946142Y-92335433D01*
G04 #@! TO.C,R37*
X165654428Y-98209576D02*
X165587761Y-98114338D01*
X165540142Y-98209576D02*
X165540142Y-98009576D01*
X165616333Y-98009576D01*
X165635380Y-98019100D01*
X165644904Y-98028623D01*
X165654428Y-98047671D01*
X165654428Y-98076242D01*
X165644904Y-98095290D01*
X165635380Y-98104814D01*
X165616333Y-98114338D01*
X165540142Y-98114338D01*
X165721095Y-98009576D02*
X165844904Y-98009576D01*
X165778238Y-98085766D01*
X165806809Y-98085766D01*
X165825857Y-98095290D01*
X165835380Y-98104814D01*
X165844904Y-98123861D01*
X165844904Y-98171480D01*
X165835380Y-98190528D01*
X165825857Y-98200052D01*
X165806809Y-98209576D01*
X165749666Y-98209576D01*
X165730619Y-98200052D01*
X165721095Y-98190528D01*
X165911571Y-98009576D02*
X166044904Y-98009576D01*
X165959190Y-98209576D01*
X165536952Y-96555576D02*
X165422666Y-96555576D01*
X165479809Y-96555576D02*
X165479809Y-96355576D01*
X165460761Y-96384147D01*
X165441714Y-96403195D01*
X165422666Y-96412719D01*
X165660761Y-96355576D02*
X165679809Y-96355576D01*
X165698857Y-96365100D01*
X165708380Y-96374623D01*
X165717904Y-96393671D01*
X165727428Y-96431766D01*
X165727428Y-96479385D01*
X165717904Y-96517480D01*
X165708380Y-96536528D01*
X165698857Y-96546052D01*
X165679809Y-96555576D01*
X165660761Y-96555576D01*
X165641714Y-96546052D01*
X165632190Y-96536528D01*
X165622666Y-96517480D01*
X165613142Y-96479385D01*
X165613142Y-96431766D01*
X165622666Y-96393671D01*
X165632190Y-96374623D01*
X165641714Y-96365100D01*
X165660761Y-96355576D01*
X165813142Y-96555576D02*
X165813142Y-96355576D01*
X165832190Y-96479385D02*
X165889333Y-96555576D01*
X165889333Y-96422242D02*
X165813142Y-96498433D01*
G04 #@! TO.C,R38*
X192514428Y-77440376D02*
X192447761Y-77345138D01*
X192400142Y-77440376D02*
X192400142Y-77240376D01*
X192476333Y-77240376D01*
X192495380Y-77249900D01*
X192504904Y-77259423D01*
X192514428Y-77278471D01*
X192514428Y-77307042D01*
X192504904Y-77326090D01*
X192495380Y-77335614D01*
X192476333Y-77345138D01*
X192400142Y-77345138D01*
X192581095Y-77240376D02*
X192704904Y-77240376D01*
X192638238Y-77316566D01*
X192666809Y-77316566D01*
X192685857Y-77326090D01*
X192695380Y-77335614D01*
X192704904Y-77354661D01*
X192704904Y-77402280D01*
X192695380Y-77421328D01*
X192685857Y-77430852D01*
X192666809Y-77440376D01*
X192609666Y-77440376D01*
X192590619Y-77430852D01*
X192581095Y-77421328D01*
X192819190Y-77326090D02*
X192800142Y-77316566D01*
X192790619Y-77307042D01*
X192781095Y-77287995D01*
X192781095Y-77278471D01*
X192790619Y-77259423D01*
X192800142Y-77249900D01*
X192819190Y-77240376D01*
X192857285Y-77240376D01*
X192876333Y-77249900D01*
X192885857Y-77259423D01*
X192895380Y-77278471D01*
X192895380Y-77287995D01*
X192885857Y-77307042D01*
X192876333Y-77316566D01*
X192857285Y-77326090D01*
X192819190Y-77326090D01*
X192800142Y-77335614D01*
X192790619Y-77345138D01*
X192781095Y-77364185D01*
X192781095Y-77402280D01*
X192790619Y-77421328D01*
X192800142Y-77430852D01*
X192819190Y-77440376D01*
X192857285Y-77440376D01*
X192876333Y-77430852D01*
X192885857Y-77421328D01*
X192895380Y-77402280D01*
X192895380Y-77364185D01*
X192885857Y-77345138D01*
X192876333Y-77335614D01*
X192857285Y-77326090D01*
X192650952Y-79094376D02*
X192536666Y-79094376D01*
X192593809Y-79094376D02*
X192593809Y-78894376D01*
X192574761Y-78922947D01*
X192555714Y-78941995D01*
X192536666Y-78951519D01*
X192774761Y-78894376D02*
X192793809Y-78894376D01*
X192812857Y-78903900D01*
X192822380Y-78913423D01*
X192831904Y-78932471D01*
X192841428Y-78970566D01*
X192841428Y-79018185D01*
X192831904Y-79056280D01*
X192822380Y-79075328D01*
X192812857Y-79084852D01*
X192793809Y-79094376D01*
X192774761Y-79094376D01*
X192755714Y-79084852D01*
X192746190Y-79075328D01*
X192736666Y-79056280D01*
X192727142Y-79018185D01*
X192727142Y-78970566D01*
X192736666Y-78932471D01*
X192746190Y-78913423D01*
X192755714Y-78903900D01*
X192774761Y-78894376D01*
X192927142Y-79094376D02*
X192927142Y-78894376D01*
X192946190Y-79018185D02*
X193003333Y-79094376D01*
X193003333Y-78961042D02*
X192927142Y-79037233D01*
G04 #@! TO.C,R39*
X192188428Y-94548576D02*
X192121761Y-94453338D01*
X192074142Y-94548576D02*
X192074142Y-94348576D01*
X192150333Y-94348576D01*
X192169380Y-94358100D01*
X192178904Y-94367623D01*
X192188428Y-94386671D01*
X192188428Y-94415242D01*
X192178904Y-94434290D01*
X192169380Y-94443814D01*
X192150333Y-94453338D01*
X192074142Y-94453338D01*
X192255095Y-94348576D02*
X192378904Y-94348576D01*
X192312238Y-94424766D01*
X192340809Y-94424766D01*
X192359857Y-94434290D01*
X192369380Y-94443814D01*
X192378904Y-94462861D01*
X192378904Y-94510480D01*
X192369380Y-94529528D01*
X192359857Y-94539052D01*
X192340809Y-94548576D01*
X192283666Y-94548576D01*
X192264619Y-94539052D01*
X192255095Y-94529528D01*
X192474142Y-94548576D02*
X192512238Y-94548576D01*
X192531285Y-94539052D01*
X192540809Y-94529528D01*
X192559857Y-94500957D01*
X192569380Y-94462861D01*
X192569380Y-94386671D01*
X192559857Y-94367623D01*
X192550333Y-94358100D01*
X192531285Y-94348576D01*
X192493190Y-94348576D01*
X192474142Y-94358100D01*
X192464619Y-94367623D01*
X192455095Y-94386671D01*
X192455095Y-94434290D01*
X192464619Y-94453338D01*
X192474142Y-94462861D01*
X192493190Y-94472385D01*
X192531285Y-94472385D01*
X192550333Y-94462861D01*
X192559857Y-94453338D01*
X192569380Y-94434290D01*
X192324952Y-96202576D02*
X192210666Y-96202576D01*
X192267809Y-96202576D02*
X192267809Y-96002576D01*
X192248761Y-96031147D01*
X192229714Y-96050195D01*
X192210666Y-96059719D01*
X192448761Y-96002576D02*
X192467809Y-96002576D01*
X192486857Y-96012100D01*
X192496380Y-96021623D01*
X192505904Y-96040671D01*
X192515428Y-96078766D01*
X192515428Y-96126385D01*
X192505904Y-96164480D01*
X192496380Y-96183528D01*
X192486857Y-96193052D01*
X192467809Y-96202576D01*
X192448761Y-96202576D01*
X192429714Y-96193052D01*
X192420190Y-96183528D01*
X192410666Y-96164480D01*
X192401142Y-96126385D01*
X192401142Y-96078766D01*
X192410666Y-96040671D01*
X192420190Y-96021623D01*
X192429714Y-96012100D01*
X192448761Y-96002576D01*
X192601142Y-96202576D02*
X192601142Y-96002576D01*
X192620190Y-96126385D02*
X192677333Y-96202576D01*
X192677333Y-96069242D02*
X192601142Y-96145433D01*
G04 #@! TO.C,R40*
X180809428Y-96391476D02*
X180742761Y-96296238D01*
X180695142Y-96391476D02*
X180695142Y-96191476D01*
X180771333Y-96191476D01*
X180790380Y-96201000D01*
X180799904Y-96210523D01*
X180809428Y-96229571D01*
X180809428Y-96258142D01*
X180799904Y-96277190D01*
X180790380Y-96286714D01*
X180771333Y-96296238D01*
X180695142Y-96296238D01*
X180980857Y-96258142D02*
X180980857Y-96391476D01*
X180933238Y-96181952D02*
X180885619Y-96324809D01*
X181009428Y-96324809D01*
X181123714Y-96191476D02*
X181142761Y-96191476D01*
X181161809Y-96201000D01*
X181171333Y-96210523D01*
X181180857Y-96229571D01*
X181190380Y-96267666D01*
X181190380Y-96315285D01*
X181180857Y-96353380D01*
X181171333Y-96372428D01*
X181161809Y-96381952D01*
X181142761Y-96391476D01*
X181123714Y-96391476D01*
X181104666Y-96381952D01*
X181095142Y-96372428D01*
X181085619Y-96353380D01*
X181076095Y-96315285D01*
X181076095Y-96267666D01*
X181085619Y-96229571D01*
X181095142Y-96210523D01*
X181104666Y-96201000D01*
X181123714Y-96191476D01*
X180945952Y-98045476D02*
X180831666Y-98045476D01*
X180888809Y-98045476D02*
X180888809Y-97845476D01*
X180869761Y-97874047D01*
X180850714Y-97893095D01*
X180831666Y-97902619D01*
X181069761Y-97845476D02*
X181088809Y-97845476D01*
X181107857Y-97855000D01*
X181117380Y-97864523D01*
X181126904Y-97883571D01*
X181136428Y-97921666D01*
X181136428Y-97969285D01*
X181126904Y-98007380D01*
X181117380Y-98026428D01*
X181107857Y-98035952D01*
X181088809Y-98045476D01*
X181069761Y-98045476D01*
X181050714Y-98035952D01*
X181041190Y-98026428D01*
X181031666Y-98007380D01*
X181022142Y-97969285D01*
X181022142Y-97921666D01*
X181031666Y-97883571D01*
X181041190Y-97864523D01*
X181050714Y-97855000D01*
X181069761Y-97845476D01*
X181222142Y-98045476D02*
X181222142Y-97845476D01*
X181241190Y-97969285D02*
X181298333Y-98045476D01*
X181298333Y-97912142D02*
X181222142Y-97988333D01*
G04 #@! TO.C,R41*
X192489428Y-74166476D02*
X192422761Y-74071238D01*
X192375142Y-74166476D02*
X192375142Y-73966476D01*
X192451333Y-73966476D01*
X192470380Y-73976000D01*
X192479904Y-73985523D01*
X192489428Y-74004571D01*
X192489428Y-74033142D01*
X192479904Y-74052190D01*
X192470380Y-74061714D01*
X192451333Y-74071238D01*
X192375142Y-74071238D01*
X192660857Y-74033142D02*
X192660857Y-74166476D01*
X192613238Y-73956952D02*
X192565619Y-74099809D01*
X192689428Y-74099809D01*
X192870380Y-74166476D02*
X192756095Y-74166476D01*
X192813238Y-74166476D02*
X192813238Y-73966476D01*
X192794190Y-73995047D01*
X192775142Y-74014095D01*
X192756095Y-74023619D01*
X192625952Y-75820476D02*
X192511666Y-75820476D01*
X192568809Y-75820476D02*
X192568809Y-75620476D01*
X192549761Y-75649047D01*
X192530714Y-75668095D01*
X192511666Y-75677619D01*
X192749761Y-75620476D02*
X192768809Y-75620476D01*
X192787857Y-75630000D01*
X192797380Y-75639523D01*
X192806904Y-75658571D01*
X192816428Y-75696666D01*
X192816428Y-75744285D01*
X192806904Y-75782380D01*
X192797380Y-75801428D01*
X192787857Y-75810952D01*
X192768809Y-75820476D01*
X192749761Y-75820476D01*
X192730714Y-75810952D01*
X192721190Y-75801428D01*
X192711666Y-75782380D01*
X192702142Y-75744285D01*
X192702142Y-75696666D01*
X192711666Y-75658571D01*
X192721190Y-75639523D01*
X192730714Y-75630000D01*
X192749761Y-75620476D01*
X192902142Y-75820476D02*
X192902142Y-75620476D01*
X192921190Y-75744285D02*
X192978333Y-75820476D01*
X192978333Y-75687142D02*
X192902142Y-75763333D01*
G04 #@! TO.C,R42*
X192393428Y-90738576D02*
X192326761Y-90643338D01*
X192279142Y-90738576D02*
X192279142Y-90538576D01*
X192355333Y-90538576D01*
X192374380Y-90548100D01*
X192383904Y-90557623D01*
X192393428Y-90576671D01*
X192393428Y-90605242D01*
X192383904Y-90624290D01*
X192374380Y-90633814D01*
X192355333Y-90643338D01*
X192279142Y-90643338D01*
X192564857Y-90605242D02*
X192564857Y-90738576D01*
X192517238Y-90529052D02*
X192469619Y-90671909D01*
X192593428Y-90671909D01*
X192660095Y-90557623D02*
X192669619Y-90548100D01*
X192688666Y-90538576D01*
X192736285Y-90538576D01*
X192755333Y-90548100D01*
X192764857Y-90557623D01*
X192774380Y-90576671D01*
X192774380Y-90595719D01*
X192764857Y-90624290D01*
X192650571Y-90738576D01*
X192774380Y-90738576D01*
X192529952Y-92392576D02*
X192415666Y-92392576D01*
X192472809Y-92392576D02*
X192472809Y-92192576D01*
X192453761Y-92221147D01*
X192434714Y-92240195D01*
X192415666Y-92249719D01*
X192653761Y-92192576D02*
X192672809Y-92192576D01*
X192691857Y-92202100D01*
X192701380Y-92211623D01*
X192710904Y-92230671D01*
X192720428Y-92268766D01*
X192720428Y-92316385D01*
X192710904Y-92354480D01*
X192701380Y-92373528D01*
X192691857Y-92383052D01*
X192672809Y-92392576D01*
X192653761Y-92392576D01*
X192634714Y-92383052D01*
X192625190Y-92373528D01*
X192615666Y-92354480D01*
X192606142Y-92316385D01*
X192606142Y-92268766D01*
X192615666Y-92230671D01*
X192625190Y-92211623D01*
X192634714Y-92202100D01*
X192653761Y-92192576D01*
X192806142Y-92392576D02*
X192806142Y-92192576D01*
X192825190Y-92316385D02*
X192882333Y-92392576D01*
X192882333Y-92259242D02*
X192806142Y-92335433D01*
G04 #@! TO.C,U1*
X165379159Y-71230051D02*
X165379159Y-71618757D01*
X165402024Y-71664487D01*
X165424889Y-71687352D01*
X165470619Y-71710217D01*
X165562079Y-71710217D01*
X165607809Y-71687352D01*
X165630674Y-71664487D01*
X165653539Y-71618757D01*
X165653539Y-71230051D01*
X166133705Y-71710217D02*
X165859325Y-71710217D01*
X165996515Y-71710217D02*
X165996515Y-71230051D01*
X165950785Y-71298647D01*
X165905055Y-71344377D01*
X165859325Y-71367242D01*
G04 #@! TO.C,U2*
D14*
X145288095Y-81497380D02*
X145288095Y-82306904D01*
X145335714Y-82402142D01*
X145383333Y-82449761D01*
X145478571Y-82497380D01*
X145669047Y-82497380D01*
X145764285Y-82449761D01*
X145811904Y-82402142D01*
X145859523Y-82306904D01*
X145859523Y-81497380D01*
X146288095Y-81592619D02*
X146335714Y-81545000D01*
X146430952Y-81497380D01*
X146669047Y-81497380D01*
X146764285Y-81545000D01*
X146811904Y-81592619D01*
X146859523Y-81687857D01*
X146859523Y-81783095D01*
X146811904Y-81925952D01*
X146240476Y-82497380D01*
X146859523Y-82497380D01*
G04 #@! TO.C,U3*
D12*
X177129159Y-71230051D02*
X177129159Y-71618757D01*
X177152024Y-71664487D01*
X177174889Y-71687352D01*
X177220619Y-71710217D01*
X177312079Y-71710217D01*
X177357809Y-71687352D01*
X177380674Y-71664487D01*
X177403539Y-71618757D01*
X177403539Y-71230051D01*
X177586460Y-71230051D02*
X177883705Y-71230051D01*
X177723650Y-71412972D01*
X177792245Y-71412972D01*
X177837975Y-71435837D01*
X177860840Y-71458702D01*
X177883705Y-71504432D01*
X177883705Y-71618757D01*
X177860840Y-71664487D01*
X177837975Y-71687352D01*
X177792245Y-71710217D01*
X177655055Y-71710217D01*
X177609325Y-71687352D01*
X177586460Y-71664487D01*
G04 #@! TO.C,U4*
X161204159Y-71230051D02*
X161204159Y-71618757D01*
X161227024Y-71664487D01*
X161249889Y-71687352D01*
X161295619Y-71710217D01*
X161387079Y-71710217D01*
X161432809Y-71687352D01*
X161455674Y-71664487D01*
X161478539Y-71618757D01*
X161478539Y-71230051D01*
X161912975Y-71390107D02*
X161912975Y-71710217D01*
X161798650Y-71207186D02*
X161684325Y-71550162D01*
X161981570Y-71550162D01*
G04 #@! TO.C,U5*
X172974159Y-71230051D02*
X172974159Y-71618757D01*
X172997024Y-71664487D01*
X173019889Y-71687352D01*
X173065619Y-71710217D01*
X173157079Y-71710217D01*
X173202809Y-71687352D01*
X173225674Y-71664487D01*
X173248539Y-71618757D01*
X173248539Y-71230051D01*
X173705840Y-71230051D02*
X173477190Y-71230051D01*
X173454325Y-71458702D01*
X173477190Y-71435837D01*
X173522920Y-71412972D01*
X173637245Y-71412972D01*
X173682975Y-71435837D01*
X173705840Y-71458702D01*
X173728705Y-71504432D01*
X173728705Y-71618757D01*
X173705840Y-71664487D01*
X173682975Y-71687352D01*
X173637245Y-71710217D01*
X173522920Y-71710217D01*
X173477190Y-71687352D01*
X173454325Y-71664487D01*
G04 #@! TO.C,U6*
X157379159Y-71230051D02*
X157379159Y-71618757D01*
X157402024Y-71664487D01*
X157424889Y-71687352D01*
X157470619Y-71710217D01*
X157562079Y-71710217D01*
X157607809Y-71687352D01*
X157630674Y-71664487D01*
X157653539Y-71618757D01*
X157653539Y-71230051D01*
X158087975Y-71230051D02*
X157996515Y-71230051D01*
X157950785Y-71252917D01*
X157927920Y-71275782D01*
X157882190Y-71344377D01*
X157859325Y-71435837D01*
X157859325Y-71618757D01*
X157882190Y-71664487D01*
X157905055Y-71687352D01*
X157950785Y-71710217D01*
X158042245Y-71710217D01*
X158087975Y-71687352D01*
X158110840Y-71664487D01*
X158133705Y-71618757D01*
X158133705Y-71504432D01*
X158110840Y-71458702D01*
X158087975Y-71435837D01*
X158042245Y-71412972D01*
X157950785Y-71412972D01*
X157905055Y-71435837D01*
X157882190Y-71458702D01*
X157859325Y-71504432D01*
G04 #@! TO.C,U7*
X169329159Y-71230051D02*
X169329159Y-71618757D01*
X169352024Y-71664487D01*
X169374889Y-71687352D01*
X169420619Y-71710217D01*
X169512079Y-71710217D01*
X169557809Y-71687352D01*
X169580674Y-71664487D01*
X169603539Y-71618757D01*
X169603539Y-71230051D01*
X169786460Y-71230051D02*
X170106570Y-71230051D01*
X169900785Y-71710217D01*
G04 #@! TD*
M02*
