G04 #@! TF.GenerationSoftware,KiCad,Pcbnew,5.0.2-bee76a0~70~ubuntu18.04.1*
G04 #@! TF.CreationDate,2019-01-18T08:46:58-08:00*
G04 #@! TF.ProjectId,SensorArray,53656e73-6f72-4417-9272-61792e6b6963,rev?*
G04 #@! TF.SameCoordinates,Original*
G04 #@! TF.FileFunction,Legend,Bot*
G04 #@! TF.FilePolarity,Positive*
%FSLAX46Y46*%
G04 Gerber Fmt 4.6, Leading zero omitted, Abs format (unit mm)*
G04 Created by KiCad (PCBNEW 5.0.2-bee76a0~70~ubuntu18.04.1) date Fri 18 Jan 2019 08:46:58 AM PST*
%MOMM*%
%LPD*%
G01*
G04 APERTURE LIST*
%ADD10C,0.300000*%
G04 APERTURE END LIST*
D10*
X190390714Y-77653571D02*
X190462142Y-77582142D01*
X190533571Y-77367857D01*
X190533571Y-77225000D01*
X190462142Y-77010714D01*
X190319285Y-76867857D01*
X190176428Y-76796428D01*
X189890714Y-76725000D01*
X189676428Y-76725000D01*
X189390714Y-76796428D01*
X189247857Y-76867857D01*
X189105000Y-77010714D01*
X189033571Y-77225000D01*
X189033571Y-77367857D01*
X189105000Y-77582142D01*
X189176428Y-77653571D01*
X190533571Y-78296428D02*
X189033571Y-78296428D01*
X190533571Y-78939285D02*
X189747857Y-78939285D01*
X189605000Y-78867857D01*
X189533571Y-78725000D01*
X189533571Y-78510714D01*
X189605000Y-78367857D01*
X189676428Y-78296428D01*
X190533571Y-79653571D02*
X189533571Y-79653571D01*
X189819285Y-79653571D02*
X189676428Y-79725000D01*
X189605000Y-79796428D01*
X189533571Y-79939285D01*
X189533571Y-80082142D01*
X190533571Y-80582142D02*
X189533571Y-80582142D01*
X189033571Y-80582142D02*
X189105000Y-80510714D01*
X189176428Y-80582142D01*
X189105000Y-80653571D01*
X189033571Y-80582142D01*
X189176428Y-80582142D01*
X190462142Y-81225000D02*
X190533571Y-81367857D01*
X190533571Y-81653571D01*
X190462142Y-81796428D01*
X190319285Y-81867857D01*
X190247857Y-81867857D01*
X190105000Y-81796428D01*
X190033571Y-81653571D01*
X190033571Y-81439285D01*
X189962142Y-81296428D01*
X189819285Y-81225000D01*
X189747857Y-81225000D01*
X189605000Y-81296428D01*
X189533571Y-81439285D01*
X189533571Y-81653571D01*
X189605000Y-81796428D01*
X189533571Y-82296428D02*
X189533571Y-82867857D01*
X189033571Y-82510714D02*
X190319285Y-82510714D01*
X190462142Y-82582142D01*
X190533571Y-82725000D01*
X190533571Y-82867857D01*
X190533571Y-83367857D02*
X189533571Y-83367857D01*
X189033571Y-83367857D02*
X189105000Y-83296428D01*
X189176428Y-83367857D01*
X189105000Y-83439285D01*
X189033571Y-83367857D01*
X189176428Y-83367857D01*
X190533571Y-84725000D02*
X189747857Y-84725000D01*
X189605000Y-84653571D01*
X189533571Y-84510714D01*
X189533571Y-84225000D01*
X189605000Y-84082142D01*
X190462142Y-84725000D02*
X190533571Y-84582142D01*
X190533571Y-84225000D01*
X190462142Y-84082142D01*
X190319285Y-84010714D01*
X190176428Y-84010714D01*
X190033571Y-84082142D01*
X189962142Y-84225000D01*
X189962142Y-84582142D01*
X189890714Y-84725000D01*
X189533571Y-85439285D02*
X190533571Y-85439285D01*
X189676428Y-85439285D02*
X189605000Y-85510714D01*
X189533571Y-85653571D01*
X189533571Y-85867857D01*
X189605000Y-86010714D01*
X189747857Y-86082142D01*
X190533571Y-86082142D01*
X190462142Y-87867857D02*
X190533571Y-88082142D01*
X190533571Y-88439285D01*
X190462142Y-88582142D01*
X190390714Y-88653571D01*
X190247857Y-88725000D01*
X190105000Y-88725000D01*
X189962142Y-88653571D01*
X189890714Y-88582142D01*
X189819285Y-88439285D01*
X189747857Y-88153571D01*
X189676428Y-88010714D01*
X189605000Y-87939285D01*
X189462142Y-87867857D01*
X189319285Y-87867857D01*
X189176428Y-87939285D01*
X189105000Y-88010714D01*
X189033571Y-88153571D01*
X189033571Y-88510714D01*
X189105000Y-88725000D01*
X190533571Y-89367857D02*
X189533571Y-89367857D01*
X189033571Y-89367857D02*
X189105000Y-89296428D01*
X189176428Y-89367857D01*
X189105000Y-89439285D01*
X189033571Y-89367857D01*
X189176428Y-89367857D01*
X190533571Y-90296428D02*
X190462142Y-90153571D01*
X190319285Y-90082142D01*
X189033571Y-90082142D01*
X189533571Y-90725000D02*
X190533571Y-91082142D01*
X189533571Y-91439285D01*
X190462142Y-92582142D02*
X190533571Y-92439285D01*
X190533571Y-92153571D01*
X190462142Y-92010714D01*
X190319285Y-91939285D01*
X189747857Y-91939285D01*
X189605000Y-92010714D01*
X189533571Y-92153571D01*
X189533571Y-92439285D01*
X189605000Y-92582142D01*
X189747857Y-92653571D01*
X189890714Y-92653571D01*
X190033571Y-91939285D01*
X190533571Y-93296428D02*
X189533571Y-93296428D01*
X189819285Y-93296428D02*
X189676428Y-93367857D01*
X189605000Y-93439285D01*
X189533571Y-93582142D01*
X189533571Y-93725000D01*
X192940714Y-75403571D02*
X193012142Y-75332142D01*
X193083571Y-75117857D01*
X193083571Y-74975000D01*
X193012142Y-74760714D01*
X192869285Y-74617857D01*
X192726428Y-74546428D01*
X192440714Y-74475000D01*
X192226428Y-74475000D01*
X191940714Y-74546428D01*
X191797857Y-74617857D01*
X191655000Y-74760714D01*
X191583571Y-74975000D01*
X191583571Y-75117857D01*
X191655000Y-75332142D01*
X191726428Y-75403571D01*
X193012142Y-76617857D02*
X193083571Y-76475000D01*
X193083571Y-76189285D01*
X193012142Y-76046428D01*
X192869285Y-75975000D01*
X192297857Y-75975000D01*
X192155000Y-76046428D01*
X192083571Y-76189285D01*
X192083571Y-76475000D01*
X192155000Y-76617857D01*
X192297857Y-76689285D01*
X192440714Y-76689285D01*
X192583571Y-75975000D01*
X193083571Y-77975000D02*
X191583571Y-77975000D01*
X193012142Y-77975000D02*
X193083571Y-77832142D01*
X193083571Y-77546428D01*
X193012142Y-77403571D01*
X192940714Y-77332142D01*
X192797857Y-77260714D01*
X192369285Y-77260714D01*
X192226428Y-77332142D01*
X192155000Y-77403571D01*
X192083571Y-77546428D01*
X192083571Y-77832142D01*
X192155000Y-77975000D01*
X193083571Y-78689285D02*
X192083571Y-78689285D01*
X192369285Y-78689285D02*
X192226428Y-78760714D01*
X192155000Y-78832142D01*
X192083571Y-78975000D01*
X192083571Y-79117857D01*
X193083571Y-79617857D02*
X192083571Y-79617857D01*
X191583571Y-79617857D02*
X191655000Y-79546428D01*
X191726428Y-79617857D01*
X191655000Y-79689285D01*
X191583571Y-79617857D01*
X191726428Y-79617857D01*
X193012142Y-80975000D02*
X193083571Y-80832142D01*
X193083571Y-80546428D01*
X193012142Y-80403571D01*
X192940714Y-80332142D01*
X192797857Y-80260714D01*
X192369285Y-80260714D01*
X192226428Y-80332142D01*
X192155000Y-80403571D01*
X192083571Y-80546428D01*
X192083571Y-80832142D01*
X192155000Y-80975000D01*
X192297857Y-83260714D02*
X192297857Y-82760714D01*
X193083571Y-82760714D02*
X191583571Y-82760714D01*
X191583571Y-83475000D01*
X193012142Y-84617857D02*
X193083571Y-84475000D01*
X193083571Y-84189285D01*
X193012142Y-84046428D01*
X192869285Y-83975000D01*
X192297857Y-83975000D01*
X192155000Y-84046428D01*
X192083571Y-84189285D01*
X192083571Y-84475000D01*
X192155000Y-84617857D01*
X192297857Y-84689285D01*
X192440714Y-84689285D01*
X192583571Y-83975000D01*
X193083571Y-85546428D02*
X193012142Y-85403571D01*
X192869285Y-85332142D01*
X191583571Y-85332142D01*
X192083571Y-85975000D02*
X193083571Y-86332142D01*
X192083571Y-86689285D02*
X193083571Y-86332142D01*
X193440714Y-86189285D01*
X193512142Y-86117857D01*
X193583571Y-85975000D01*
X191583571Y-88260714D02*
X191583571Y-89260714D01*
X193083571Y-88260714D01*
X193083571Y-89260714D01*
X193083571Y-89832142D02*
X191583571Y-89832142D01*
X193083571Y-90475000D02*
X192297857Y-90475000D01*
X192155000Y-90403571D01*
X192083571Y-90260714D01*
X192083571Y-90046428D01*
X192155000Y-89903571D01*
X192226428Y-89832142D01*
X193083571Y-91189285D02*
X192083571Y-91189285D01*
X191583571Y-91189285D02*
X191655000Y-91117857D01*
X191726428Y-91189285D01*
X191655000Y-91260714D01*
X191583571Y-91189285D01*
X191726428Y-91189285D01*
X192083571Y-91760714D02*
X193083571Y-92117857D01*
X192083571Y-92475000D02*
X193083571Y-92117857D01*
X193440714Y-91975000D01*
X193512142Y-91903571D01*
X193583571Y-91760714D01*
X193083571Y-93046428D02*
X192083571Y-93046428D01*
X191583571Y-93046428D02*
X191655000Y-92975000D01*
X191726428Y-93046428D01*
X191655000Y-93117857D01*
X191583571Y-93046428D01*
X191726428Y-93046428D01*
X192083571Y-93760714D02*
X193083571Y-93760714D01*
X192226428Y-93760714D02*
X192155000Y-93832142D01*
X192083571Y-93975000D01*
X192083571Y-94189285D01*
X192155000Y-94332142D01*
X192297857Y-94403571D01*
X193083571Y-94403571D01*
X192083571Y-95760714D02*
X193297857Y-95760714D01*
X193440714Y-95689285D01*
X193512142Y-95617857D01*
X193583571Y-95475000D01*
X193583571Y-95260714D01*
X193512142Y-95117857D01*
X193012142Y-95760714D02*
X193083571Y-95617857D01*
X193083571Y-95332142D01*
X193012142Y-95189285D01*
X192940714Y-95117857D01*
X192797857Y-95046428D01*
X192369285Y-95046428D01*
X192226428Y-95117857D01*
X192155000Y-95189285D01*
X192083571Y-95332142D01*
X192083571Y-95617857D01*
X192155000Y-95760714D01*
X195633571Y-77546428D02*
X194133571Y-77546428D01*
X194847857Y-77546428D02*
X194847857Y-78403571D01*
X195633571Y-78403571D02*
X194133571Y-78403571D01*
X195633571Y-79117857D02*
X194133571Y-79117857D01*
X194133571Y-79689285D01*
X194205000Y-79832142D01*
X194276428Y-79903571D01*
X194419285Y-79975000D01*
X194633571Y-79975000D01*
X194776428Y-79903571D01*
X194847857Y-79832142D01*
X194919285Y-79689285D01*
X194919285Y-79117857D01*
X195633571Y-81760714D02*
X194133571Y-81760714D01*
X195205000Y-82260714D01*
X194133571Y-82760714D01*
X195633571Y-82760714D01*
X195633571Y-84117857D02*
X194847857Y-84117857D01*
X194705000Y-84046428D01*
X194633571Y-83903571D01*
X194633571Y-83617857D01*
X194705000Y-83475000D01*
X195562142Y-84117857D02*
X195633571Y-83975000D01*
X195633571Y-83617857D01*
X195562142Y-83475000D01*
X195419285Y-83403571D01*
X195276428Y-83403571D01*
X195133571Y-83475000D01*
X195062142Y-83617857D01*
X195062142Y-83975000D01*
X194990714Y-84117857D01*
X194633571Y-84617857D02*
X194633571Y-85189285D01*
X194133571Y-84832142D02*
X195419285Y-84832142D01*
X195562142Y-84903571D01*
X195633571Y-85046428D01*
X195633571Y-85189285D01*
X195633571Y-85689285D02*
X194133571Y-85689285D01*
X195633571Y-86332142D02*
X194847857Y-86332142D01*
X194705000Y-86260714D01*
X194633571Y-86117857D01*
X194633571Y-85903571D01*
X194705000Y-85760714D01*
X194776428Y-85689285D01*
X195633571Y-87046428D02*
X194633571Y-87046428D01*
X194776428Y-87046428D02*
X194705000Y-87117857D01*
X194633571Y-87260714D01*
X194633571Y-87475000D01*
X194705000Y-87617857D01*
X194847857Y-87689285D01*
X195633571Y-87689285D01*
X194847857Y-87689285D02*
X194705000Y-87760714D01*
X194633571Y-87903571D01*
X194633571Y-88117857D01*
X194705000Y-88260714D01*
X194847857Y-88332142D01*
X195633571Y-88332142D01*
X195633571Y-89689285D02*
X194847857Y-89689285D01*
X194705000Y-89617857D01*
X194633571Y-89475000D01*
X194633571Y-89189285D01*
X194705000Y-89046428D01*
X195562142Y-89689285D02*
X195633571Y-89546428D01*
X195633571Y-89189285D01*
X195562142Y-89046428D01*
X195419285Y-88975000D01*
X195276428Y-88975000D01*
X195133571Y-89046428D01*
X195062142Y-89189285D01*
X195062142Y-89546428D01*
X194990714Y-89689285D01*
X194633571Y-90189285D02*
X194633571Y-90760714D01*
X194133571Y-90403571D02*
X195419285Y-90403571D01*
X195562142Y-90475000D01*
X195633571Y-90617857D01*
X195633571Y-90760714D01*
X195633571Y-91260714D02*
X194633571Y-91260714D01*
X194133571Y-91260714D02*
X194205000Y-91189285D01*
X194276428Y-91260714D01*
X194205000Y-91332142D01*
X194133571Y-91260714D01*
X194276428Y-91260714D01*
X195562142Y-92617857D02*
X195633571Y-92475000D01*
X195633571Y-92189285D01*
X195562142Y-92046428D01*
X195490714Y-91975000D01*
X195347857Y-91903571D01*
X194919285Y-91903571D01*
X194776428Y-91975000D01*
X194705000Y-92046428D01*
X194633571Y-92189285D01*
X194633571Y-92475000D01*
X194705000Y-92617857D01*
X195633571Y-93903571D02*
X194847857Y-93903571D01*
X194705000Y-93832142D01*
X194633571Y-93689285D01*
X194633571Y-93403571D01*
X194705000Y-93260714D01*
X195562142Y-93903571D02*
X195633571Y-93760714D01*
X195633571Y-93403571D01*
X195562142Y-93260714D01*
X195419285Y-93189285D01*
X195276428Y-93189285D01*
X195133571Y-93260714D01*
X195062142Y-93403571D01*
X195062142Y-93760714D01*
X194990714Y-93903571D01*
M02*
