G04 #@! TF.GenerationSoftware,KiCad,Pcbnew,5.0.2-bee76a0~70~ubuntu18.04.1*
G04 #@! TF.CreationDate,2019-01-18T08:46:58-08:00*
G04 #@! TF.ProjectId,SensorArray,53656e73-6f72-4417-9272-61792e6b6963,rev?*
G04 #@! TF.SameCoordinates,Original*
G04 #@! TF.FileFunction,Soldermask,Bot*
G04 #@! TF.FilePolarity,Negative*
%FSLAX46Y46*%
G04 Gerber Fmt 4.6, Leading zero omitted, Abs format (unit mm)*
G04 Created by KiCad (PCBNEW 5.0.2-bee76a0~70~ubuntu18.04.1) date Fri 18 Jan 2019 08:46:58 AM PST*
%MOMM*%
%LPD*%
G01*
G04 APERTURE LIST*
%ADD10C,0.100000*%
G04 APERTURE END LIST*
D10*
G36*
X134251000Y-94881000D02*
X132449000Y-94881000D01*
X132449000Y-93079000D01*
X134251000Y-93079000D01*
X134251000Y-94881000D01*
X134251000Y-94881000D01*
G37*
G36*
X133460443Y-90545519D02*
X133526627Y-90552037D01*
X133639853Y-90586384D01*
X133696467Y-90603557D01*
X133835087Y-90677652D01*
X133852991Y-90687222D01*
X133888729Y-90716552D01*
X133990186Y-90799814D01*
X134073448Y-90901271D01*
X134102778Y-90937009D01*
X134102779Y-90937011D01*
X134186443Y-91093533D01*
X134186443Y-91093534D01*
X134237963Y-91263373D01*
X134255359Y-91440000D01*
X134237963Y-91616627D01*
X134203616Y-91729853D01*
X134186443Y-91786467D01*
X134112348Y-91925087D01*
X134102778Y-91942991D01*
X134073448Y-91978729D01*
X133990186Y-92080186D01*
X133888729Y-92163448D01*
X133852991Y-92192778D01*
X133852989Y-92192779D01*
X133696467Y-92276443D01*
X133639853Y-92293616D01*
X133526627Y-92327963D01*
X133460443Y-92334481D01*
X133394260Y-92341000D01*
X133305740Y-92341000D01*
X133239557Y-92334481D01*
X133173373Y-92327963D01*
X133060147Y-92293616D01*
X133003533Y-92276443D01*
X132847011Y-92192779D01*
X132847009Y-92192778D01*
X132811271Y-92163448D01*
X132709814Y-92080186D01*
X132626552Y-91978729D01*
X132597222Y-91942991D01*
X132587652Y-91925087D01*
X132513557Y-91786467D01*
X132496384Y-91729853D01*
X132462037Y-91616627D01*
X132444641Y-91440000D01*
X132462037Y-91263373D01*
X132513557Y-91093534D01*
X132513557Y-91093533D01*
X132597221Y-90937011D01*
X132597222Y-90937009D01*
X132626552Y-90901271D01*
X132709814Y-90799814D01*
X132811271Y-90716552D01*
X132847009Y-90687222D01*
X132864913Y-90677652D01*
X133003533Y-90603557D01*
X133060147Y-90586384D01*
X133173373Y-90552037D01*
X133239557Y-90545519D01*
X133305740Y-90539000D01*
X133394260Y-90539000D01*
X133460443Y-90545519D01*
X133460443Y-90545519D01*
G37*
G36*
X133460443Y-88005519D02*
X133526627Y-88012037D01*
X133639853Y-88046384D01*
X133696467Y-88063557D01*
X133835087Y-88137652D01*
X133852991Y-88147222D01*
X133888729Y-88176552D01*
X133990186Y-88259814D01*
X134073448Y-88361271D01*
X134102778Y-88397009D01*
X134102779Y-88397011D01*
X134186443Y-88553533D01*
X134186443Y-88553534D01*
X134237963Y-88723373D01*
X134255359Y-88900000D01*
X134237963Y-89076627D01*
X134203616Y-89189853D01*
X134186443Y-89246467D01*
X134112348Y-89385087D01*
X134102778Y-89402991D01*
X134073448Y-89438729D01*
X133990186Y-89540186D01*
X133888729Y-89623448D01*
X133852991Y-89652778D01*
X133852989Y-89652779D01*
X133696467Y-89736443D01*
X133639853Y-89753616D01*
X133526627Y-89787963D01*
X133460443Y-89794481D01*
X133394260Y-89801000D01*
X133305740Y-89801000D01*
X133239557Y-89794481D01*
X133173373Y-89787963D01*
X133060147Y-89753616D01*
X133003533Y-89736443D01*
X132847011Y-89652779D01*
X132847009Y-89652778D01*
X132811271Y-89623448D01*
X132709814Y-89540186D01*
X132626552Y-89438729D01*
X132597222Y-89402991D01*
X132587652Y-89385087D01*
X132513557Y-89246467D01*
X132496384Y-89189853D01*
X132462037Y-89076627D01*
X132444641Y-88900000D01*
X132462037Y-88723373D01*
X132513557Y-88553534D01*
X132513557Y-88553533D01*
X132597221Y-88397011D01*
X132597222Y-88397009D01*
X132626552Y-88361271D01*
X132709814Y-88259814D01*
X132811271Y-88176552D01*
X132847009Y-88147222D01*
X132864913Y-88137652D01*
X133003533Y-88063557D01*
X133060147Y-88046384D01*
X133173373Y-88012037D01*
X133239557Y-88005519D01*
X133305740Y-87999000D01*
X133394260Y-87999000D01*
X133460443Y-88005519D01*
X133460443Y-88005519D01*
G37*
G36*
X133460442Y-85465518D02*
X133526627Y-85472037D01*
X133639853Y-85506384D01*
X133696467Y-85523557D01*
X133835087Y-85597652D01*
X133852991Y-85607222D01*
X133888729Y-85636552D01*
X133990186Y-85719814D01*
X134073448Y-85821271D01*
X134102778Y-85857009D01*
X134102779Y-85857011D01*
X134186443Y-86013533D01*
X134186443Y-86013534D01*
X134237963Y-86183373D01*
X134255359Y-86360000D01*
X134237963Y-86536627D01*
X134203616Y-86649853D01*
X134186443Y-86706467D01*
X134112348Y-86845087D01*
X134102778Y-86862991D01*
X134073448Y-86898729D01*
X133990186Y-87000186D01*
X133888729Y-87083448D01*
X133852991Y-87112778D01*
X133852989Y-87112779D01*
X133696467Y-87196443D01*
X133639853Y-87213616D01*
X133526627Y-87247963D01*
X133460442Y-87254482D01*
X133394260Y-87261000D01*
X133305740Y-87261000D01*
X133239558Y-87254482D01*
X133173373Y-87247963D01*
X133060147Y-87213616D01*
X133003533Y-87196443D01*
X132847011Y-87112779D01*
X132847009Y-87112778D01*
X132811271Y-87083448D01*
X132709814Y-87000186D01*
X132626552Y-86898729D01*
X132597222Y-86862991D01*
X132587652Y-86845087D01*
X132513557Y-86706467D01*
X132496384Y-86649853D01*
X132462037Y-86536627D01*
X132444641Y-86360000D01*
X132462037Y-86183373D01*
X132513557Y-86013534D01*
X132513557Y-86013533D01*
X132597221Y-85857011D01*
X132597222Y-85857009D01*
X132626552Y-85821271D01*
X132709814Y-85719814D01*
X132811271Y-85636552D01*
X132847009Y-85607222D01*
X132864913Y-85597652D01*
X133003533Y-85523557D01*
X133060147Y-85506384D01*
X133173373Y-85472037D01*
X133239558Y-85465518D01*
X133305740Y-85459000D01*
X133394260Y-85459000D01*
X133460442Y-85465518D01*
X133460442Y-85465518D01*
G37*
G36*
X133460443Y-82925519D02*
X133526627Y-82932037D01*
X133639853Y-82966384D01*
X133696467Y-82983557D01*
X133835087Y-83057652D01*
X133852991Y-83067222D01*
X133888729Y-83096552D01*
X133990186Y-83179814D01*
X134073448Y-83281271D01*
X134102778Y-83317009D01*
X134102779Y-83317011D01*
X134186443Y-83473533D01*
X134186443Y-83473534D01*
X134237963Y-83643373D01*
X134255359Y-83820000D01*
X134237963Y-83996627D01*
X134203616Y-84109853D01*
X134186443Y-84166467D01*
X134112348Y-84305087D01*
X134102778Y-84322991D01*
X134073448Y-84358729D01*
X133990186Y-84460186D01*
X133888729Y-84543448D01*
X133852991Y-84572778D01*
X133852989Y-84572779D01*
X133696467Y-84656443D01*
X133639853Y-84673616D01*
X133526627Y-84707963D01*
X133460443Y-84714481D01*
X133394260Y-84721000D01*
X133305740Y-84721000D01*
X133239557Y-84714481D01*
X133173373Y-84707963D01*
X133060147Y-84673616D01*
X133003533Y-84656443D01*
X132847011Y-84572779D01*
X132847009Y-84572778D01*
X132811271Y-84543448D01*
X132709814Y-84460186D01*
X132626552Y-84358729D01*
X132597222Y-84322991D01*
X132587652Y-84305087D01*
X132513557Y-84166467D01*
X132496384Y-84109853D01*
X132462037Y-83996627D01*
X132444641Y-83820000D01*
X132462037Y-83643373D01*
X132513557Y-83473534D01*
X132513557Y-83473533D01*
X132597221Y-83317011D01*
X132597222Y-83317009D01*
X132626552Y-83281271D01*
X132709814Y-83179814D01*
X132811271Y-83096552D01*
X132847009Y-83067222D01*
X132864913Y-83057652D01*
X133003533Y-82983557D01*
X133060147Y-82966384D01*
X133173373Y-82932037D01*
X133239557Y-82925519D01*
X133305740Y-82919000D01*
X133394260Y-82919000D01*
X133460443Y-82925519D01*
X133460443Y-82925519D01*
G37*
G36*
X133460442Y-80385518D02*
X133526627Y-80392037D01*
X133639853Y-80426384D01*
X133696467Y-80443557D01*
X133835087Y-80517652D01*
X133852991Y-80527222D01*
X133888729Y-80556552D01*
X133990186Y-80639814D01*
X134073448Y-80741271D01*
X134102778Y-80777009D01*
X134102779Y-80777011D01*
X134186443Y-80933533D01*
X134186443Y-80933534D01*
X134237963Y-81103373D01*
X134255359Y-81280000D01*
X134237963Y-81456627D01*
X134203616Y-81569853D01*
X134186443Y-81626467D01*
X134112348Y-81765087D01*
X134102778Y-81782991D01*
X134073448Y-81818729D01*
X133990186Y-81920186D01*
X133888729Y-82003448D01*
X133852991Y-82032778D01*
X133852989Y-82032779D01*
X133696467Y-82116443D01*
X133639853Y-82133616D01*
X133526627Y-82167963D01*
X133460443Y-82174481D01*
X133394260Y-82181000D01*
X133305740Y-82181000D01*
X133239557Y-82174481D01*
X133173373Y-82167963D01*
X133060147Y-82133616D01*
X133003533Y-82116443D01*
X132847011Y-82032779D01*
X132847009Y-82032778D01*
X132811271Y-82003448D01*
X132709814Y-81920186D01*
X132626552Y-81818729D01*
X132597222Y-81782991D01*
X132587652Y-81765087D01*
X132513557Y-81626467D01*
X132496384Y-81569853D01*
X132462037Y-81456627D01*
X132444641Y-81280000D01*
X132462037Y-81103373D01*
X132513557Y-80933534D01*
X132513557Y-80933533D01*
X132597221Y-80777011D01*
X132597222Y-80777009D01*
X132626552Y-80741271D01*
X132709814Y-80639814D01*
X132811271Y-80556552D01*
X132847009Y-80527222D01*
X132864913Y-80517652D01*
X133003533Y-80443557D01*
X133060147Y-80426384D01*
X133173373Y-80392037D01*
X133239558Y-80385518D01*
X133305740Y-80379000D01*
X133394260Y-80379000D01*
X133460442Y-80385518D01*
X133460442Y-80385518D01*
G37*
G36*
X133460443Y-77845519D02*
X133526627Y-77852037D01*
X133639853Y-77886384D01*
X133696467Y-77903557D01*
X133835087Y-77977652D01*
X133852991Y-77987222D01*
X133888729Y-78016552D01*
X133990186Y-78099814D01*
X134073448Y-78201271D01*
X134102778Y-78237009D01*
X134102779Y-78237011D01*
X134186443Y-78393533D01*
X134186443Y-78393534D01*
X134237963Y-78563373D01*
X134255359Y-78740000D01*
X134237963Y-78916627D01*
X134203616Y-79029853D01*
X134186443Y-79086467D01*
X134112348Y-79225087D01*
X134102778Y-79242991D01*
X134073448Y-79278729D01*
X133990186Y-79380186D01*
X133888729Y-79463448D01*
X133852991Y-79492778D01*
X133852989Y-79492779D01*
X133696467Y-79576443D01*
X133639853Y-79593616D01*
X133526627Y-79627963D01*
X133460442Y-79634482D01*
X133394260Y-79641000D01*
X133305740Y-79641000D01*
X133239558Y-79634482D01*
X133173373Y-79627963D01*
X133060147Y-79593616D01*
X133003533Y-79576443D01*
X132847011Y-79492779D01*
X132847009Y-79492778D01*
X132811271Y-79463448D01*
X132709814Y-79380186D01*
X132626552Y-79278729D01*
X132597222Y-79242991D01*
X132587652Y-79225087D01*
X132513557Y-79086467D01*
X132496384Y-79029853D01*
X132462037Y-78916627D01*
X132444641Y-78740000D01*
X132462037Y-78563373D01*
X132513557Y-78393534D01*
X132513557Y-78393533D01*
X132597221Y-78237011D01*
X132597222Y-78237009D01*
X132626552Y-78201271D01*
X132709814Y-78099814D01*
X132811271Y-78016552D01*
X132847009Y-77987222D01*
X132864913Y-77977652D01*
X133003533Y-77903557D01*
X133060147Y-77886384D01*
X133173373Y-77852037D01*
X133239557Y-77845519D01*
X133305740Y-77839000D01*
X133394260Y-77839000D01*
X133460443Y-77845519D01*
X133460443Y-77845519D01*
G37*
G36*
X133460442Y-75305518D02*
X133526627Y-75312037D01*
X133639853Y-75346384D01*
X133696467Y-75363557D01*
X133835087Y-75437652D01*
X133852991Y-75447222D01*
X133888729Y-75476552D01*
X133990186Y-75559814D01*
X134073448Y-75661271D01*
X134102778Y-75697009D01*
X134102779Y-75697011D01*
X134186443Y-75853533D01*
X134186443Y-75853534D01*
X134237963Y-76023373D01*
X134255359Y-76200000D01*
X134237963Y-76376627D01*
X134203616Y-76489853D01*
X134186443Y-76546467D01*
X134112348Y-76685087D01*
X134102778Y-76702991D01*
X134073448Y-76738729D01*
X133990186Y-76840186D01*
X133888729Y-76923448D01*
X133852991Y-76952778D01*
X133852989Y-76952779D01*
X133696467Y-77036443D01*
X133639853Y-77053616D01*
X133526627Y-77087963D01*
X133460442Y-77094482D01*
X133394260Y-77101000D01*
X133305740Y-77101000D01*
X133239558Y-77094482D01*
X133173373Y-77087963D01*
X133060147Y-77053616D01*
X133003533Y-77036443D01*
X132847011Y-76952779D01*
X132847009Y-76952778D01*
X132811271Y-76923448D01*
X132709814Y-76840186D01*
X132626552Y-76738729D01*
X132597222Y-76702991D01*
X132587652Y-76685087D01*
X132513557Y-76546467D01*
X132496384Y-76489853D01*
X132462037Y-76376627D01*
X132444641Y-76200000D01*
X132462037Y-76023373D01*
X132513557Y-75853534D01*
X132513557Y-75853533D01*
X132597221Y-75697011D01*
X132597222Y-75697009D01*
X132626552Y-75661271D01*
X132709814Y-75559814D01*
X132811271Y-75476552D01*
X132847009Y-75447222D01*
X132864913Y-75437652D01*
X133003533Y-75363557D01*
X133060147Y-75346384D01*
X133173373Y-75312037D01*
X133239558Y-75305518D01*
X133305740Y-75299000D01*
X133394260Y-75299000D01*
X133460442Y-75305518D01*
X133460442Y-75305518D01*
G37*
M02*
