M48
;DRILL file {KiCad 5.0.2-bee76a0~70~ubuntu18.04.1} date Fri 18 Jan 2019 08:47:44 AM PST
;FORMAT={-:-/ absolute / inch / decimal}
FMAT,2
INCH,TZ
T1C0.0157
T2C0.0394
%
G90
G05
T1
X5.3953Y-3.627
X5.3965Y-3.1707
X5.5419Y-3.6107
X5.5654Y-3.2537
X5.6736Y-3.6454
X5.6844Y-3.4944
X5.6905Y-3.2858
X5.6951Y-3.3828
X5.7199Y-3.6484
X5.7223Y-3.519
X5.742Y-3.3402
X5.7515Y-3.4924
X5.7889Y-3.6258
X5.8402Y-2.8707
X5.842Y-3.1069
X5.8682Y-3.5983
X5.8694Y-3.0471
X5.881Y-3.1698
X5.9113Y-2.9725
X5.9285Y-3.5871
X5.9327Y-3.3305
X5.9809Y-3.9331
X5.9987Y-3.6768
X6.0154Y-3.8067
X6.0187Y-2.774
X6.0197Y-3.4585
X6.0535Y-3.3906
X6.089Y-3.031
X6.0914Y-3.7477
X6.1171Y-3.0011
X6.1696Y-3.0511
X6.1832Y-3.0968
X6.2187Y-3.7354
X6.2289Y-3.0406
X6.2637Y-3.6
X6.2805Y-3.0637
X6.2966Y-2.9035
X6.2973Y-2.9434
X6.3706Y-3.118
X6.3889Y-3.5645
X6.4289Y-3.04
X6.4591Y-2.962
X6.4638Y-3.3055
X6.5266Y-3.0399
X6.5843Y-3.0342
X6.5911Y-2.8749
X6.6469Y-3.0429
X6.7086Y-3.0429
X6.7289Y-3.8278
X6.7422Y-2.9149
X6.7639Y-3.043
X6.7774Y-3.0836
X6.8468Y-3.2362
X6.8555Y-3.7647
X6.857Y-2.8218
X6.8831Y-3.794
X6.9093Y-2.9897
X6.9093Y-2.9503
X6.9357Y-3.5063
X6.962Y-3.3087
X6.9647Y-3.648
X6.9679Y-3.3727
X6.9935Y-3.6166
X7.0227Y-3.4009
X7.0915Y-3.5816
X7.0917Y-3.1912
X7.0926Y-3.2719
X7.0933Y-3.4707
X7.1429Y-3.7128
X7.1506Y-3.5879
X7.1674Y-2.8565
X7.1804Y-3.4006
X7.1847Y-2.8971
X7.195Y-2.8146
X7.2064Y-3.5071
X7.21Y-3.1816
X7.21Y-3.283
X7.21Y-3.5964
X7.2542Y-3.4214
X7.2551Y-3.1619
X7.2682Y-3.908
X7.2843Y-3.515
X7.3057Y-3.3847
X7.3391Y-2.7927
X7.3501Y-3.6318
X7.3586Y-3.5818
X7.3601Y-3.2399
X7.3819Y-3.5285
X7.4005Y-3.7158
X7.5066Y-3.5613
X7.5068Y-3.2305
X7.5193Y-3.0433
X7.5418Y-2.8575
T2
X5.25Y-3.
X5.25Y-3.1
X5.25Y-3.2
X5.25Y-3.3
X5.25Y-3.4
X5.25Y-3.5
X5.25Y-3.6
X5.25Y-3.7
T0
M30
